<svg width="57" height="61" viewBox="0 0 57 61" fill="none" xmlns="http://www.w3.org/2000/svg">
<path d="M23.8865 38.4856L22.1142 37.9695L25.8014 24.6067L27.5737 25.1322L23.8865 38.4856Z" fill="#0D3B66"/>
<path d="M25.0355 43.9283L24.6525 42.0609L42.1622 38.251L42.5452 40.1184L25.0355 43.9283Z" fill="#0D3B66"/>
<path d="M23.3254 15.0913L16.8773 9.36707L18.0708 7.92194L24.5278 13.6462L23.3254 15.0913Z" fill="#0D3B66"/>
<path d="M31.8933 17.0057L30.6998 15.5511L37.148 9.8269L38.3414 11.272L31.8933 17.0057Z" fill="#0D3B66"/>
<path d="M21.1523 19.1452H10.0997V21.0502H21.1523V19.1452Z" fill="#0D3B66"/>
<path d="M14.3836 40.0715L7.01813 37.2093L7.66828 35.4264L15.0338 38.2885L14.3836 40.0715Z" fill="#0D3B66"/>
<path d="M8.77263 53.3311L7.74841 51.7452L16.0401 46.0209L17.0644 47.6068L8.77263 53.3311Z" fill="#0D3B66"/>
<path d="M29.925 52.4208L21.6333 47.6537L22.5328 45.9834L30.8245 50.7505L29.925 52.4208Z" fill="#0D3B66"/>
<path d="M49.7414 49.8872L47.8978 41.2914L49.6969 40.8785L51.5405 49.4743L49.7414 49.8872Z" fill="#0D3B66"/>
<path d="M47.8177 30.9315L46.0988 30.2558L48.8597 22.6266L50.5875 23.2929L47.8177 30.9315Z" fill="#0D3B66"/>
<path d="M26.692 25.714C30.1352 25.714 32.9264 22.773 32.9264 19.1452C32.9264 15.5174 30.1352 12.5764 26.692 12.5764C23.2489 12.5764 20.4576 15.5174 20.4576 19.1452C20.4576 22.773 23.2489 25.714 26.692 25.714Z" fill="#E45F56"/>
<path d="M19.3176 48.6109C22.7608 48.6109 25.552 45.67 25.552 42.0421C25.552 38.4143 22.7608 35.4733 19.3176 35.4733C15.8745 35.4733 13.0833 38.4143 13.0833 42.0421C13.0833 45.67 15.8745 48.6109 19.3176 48.6109Z" fill="#E45F56"/>
<path d="M46.9537 42.8867C50.3969 42.8867 53.1881 39.9457 53.1881 36.3179C53.1881 32.69 50.3969 29.7491 46.9537 29.7491C43.5106 29.7491 40.7194 32.69 40.7194 36.3179C40.7194 39.9457 43.5106 42.8867 46.9537 42.8867Z" fill="#28CC75"/>
<path d="M15.6305 9.60169C17.6669 9.60169 19.3177 7.89174 19.3177 5.78241C19.3177 3.67308 17.6669 1.96313 15.6305 1.96313C13.5941 1.96313 11.9433 3.67308 11.9433 5.78241C11.9433 7.89174 13.5941 9.60169 15.6305 9.60169Z" fill="#7ACCC8"/>
<path d="M7.89092 23.2084C9.9273 23.2084 11.5781 21.4985 11.5781 19.3892C11.5781 17.2798 9.9273 15.5699 7.89092 15.5699C5.85455 15.5699 4.20374 17.2798 4.20374 19.3892C4.20374 21.4985 5.85455 23.2084 7.89092 23.2084Z" fill="#7ACCC8"/>
<path d="M4.57781 38.2323C6.61419 38.2323 8.265 36.5223 8.265 34.413C8.265 32.3036 6.61419 30.5937 4.57781 30.5937C2.54144 30.5937 0.890625 32.3036 0.890625 34.413C0.890625 36.5223 2.54144 38.2323 4.57781 38.2323Z" fill="#EA8943"/>
<path d="M5.49517 58.267C7.53155 58.267 9.18236 56.5571 9.18236 54.4478C9.18236 52.3384 7.53155 50.6285 5.49517 50.6285C3.45879 50.6285 1.80798 52.3384 1.80798 54.4478C1.80798 56.5571 3.45879 58.267 5.49517 58.267Z" fill="#EA8943"/>
<path d="M32.2139 56.9908C34.2503 56.9908 35.9011 55.2808 35.9011 53.1715C35.9011 51.0622 34.2503 49.3522 32.2139 49.3522C30.1775 49.3522 28.5267 51.0622 28.5267 53.1715C28.5267 55.2808 30.1775 56.9908 32.2139 56.9908Z" fill="#EA8943"/>
<path d="M51.7809 56.0524C53.8173 56.0524 55.4681 54.3424 55.4681 52.2331C55.4681 50.1238 53.8173 48.4138 51.7809 48.4138C49.7446 48.4138 48.0938 50.1238 48.0938 52.2331C48.0938 54.3424 49.7446 56.0524 51.7809 56.0524Z" fill="#FBD373"/>
<path d="M50.6409 24.0155C52.6773 24.0155 54.3281 22.3056 54.3281 20.1962C54.3281 18.0869 52.6773 16.377 50.6409 16.377C48.6045 16.377 46.9537 18.0869 46.9537 20.1962C46.9537 22.3056 48.6045 24.0155 50.6409 24.0155Z" fill="#FBD373"/>
<path d="M39.5883 11.5067C41.6247 11.5067 43.2755 9.79671 43.2755 7.68738C43.2755 5.57805 41.6247 3.8681 39.5883 3.8681C37.5519 3.8681 35.9011 5.57805 35.9011 7.68738C35.9011 9.79671 37.5519 11.5067 39.5883 11.5067Z" fill="#7ACCC8"/>
</svg>
