<svg width="66" height="67" viewBox="0 0 66 67" fill="none" xmlns="http://www.w3.org/2000/svg">
<g clip-path="url(#clip0_19_50)">
<path d="M65.5772 53.7139C65.3194 52.7584 64.7109 51.9672 63.855 51.474C63.7622 51.4226 63.6488 51.3918 63.5456 51.3404V41.3119C63.6488 41.2605 63.7519 41.2194 63.855 41.1577C65.6184 40.1405 66.2269 37.8902 65.2059 36.1332C64.185 34.3761 61.9266 33.7802 60.1631 34.7871C60.0703 34.8488 59.9878 34.9207 59.895 34.9824L52.3669 30.6668C52.4391 30.3277 52.4803 29.9886 52.4803 29.629C52.4803 27.4301 51.0263 25.5909 49.0463 24.9436V16.2816C49.1494 16.2302 49.2525 16.1891 49.3556 16.1275C51.1088 15.1103 51.7172 12.86 50.7066 11.1029C50.215 10.2603 49.4087 9.64574 48.4638 9.39353C47.5189 9.14132 46.5123 9.27196 45.6638 9.75691C45.5606 9.81856 45.4781 9.89048 45.3853 9.96241L36.6609 4.92759C36.6713 4.81456 36.6919 4.71181 36.6919 4.59879C36.6919 2.57458 35.0316 0.920288 33 0.920288C30.9684 0.920288 29.3081 2.57458 29.3081 4.59879C29.3081 4.71181 29.3391 4.81456 29.3494 4.92759L20.6147 9.95213C20.5219 9.89048 20.4394 9.81856 20.3466 9.75691C18.5728 8.74994 16.3144 9.3459 15.3038 11.1029C14.8088 11.9558 14.6747 12.9422 14.9325 13.8978C15.1903 14.8431 15.7988 15.6343 16.6547 16.1275C16.7475 16.1789 16.8609 16.2302 16.9641 16.2816V24.9436C14.9738 25.5909 13.5197 27.4301 13.5197 29.629C13.5197 29.9886 13.5609 30.3277 13.6331 30.6668L6.11532 34.9824C6.02251 34.9207 5.94001 34.8488 5.83688 34.7871C4.98836 34.3022 3.98171 34.1716 3.03683 34.4238C2.09194 34.676 1.28565 35.2905 0.794072 36.1332C0.307363 36.9786 0.176251 37.9816 0.429378 38.9231C0.682506 39.8646 1.2993 40.6679 2.14501 41.1577C2.24813 41.2194 2.35126 41.2605 2.45438 41.3119V51.3404C2.35126 51.3918 2.24813 51.4226 2.14501 51.474C1.28907 51.9672 0.680635 52.7584 0.422822 53.7139C0.175322 54.6593 0.299072 55.6457 0.794072 56.4985C1.03539 56.9172 1.35728 57.2843 1.7413 57.5787C2.12531 57.8732 2.56389 58.0892 3.03188 58.2144C3.35157 58.2966 3.68157 58.3377 4.00126 58.3377C4.64063 58.3377 5.2697 58.1733 5.83688 57.8445C5.94001 57.7932 6.02251 57.711 6.11532 57.6493L14.8397 62.6636C14.8294 62.7766 14.8088 62.8896 14.8088 63.0027C14.8088 63.9769 15.1972 64.9112 15.8886 65.6001C16.58 66.289 17.5177 66.676 18.4955 66.676C19.4733 66.676 20.411 66.289 21.1024 65.6001C21.7938 64.9112 22.1822 63.9769 22.1822 63.0027C22.1822 62.8896 22.1616 62.7869 22.1513 62.6739L29.6794 58.3377C29.9269 58.5741 30.2053 58.7796 30.5147 58.9543C31.2984 59.4064 32.1544 59.6119 32.9897 59.6119C34.2066 59.6119 35.3925 59.1598 36.3206 58.3377L43.8488 62.6739C43.8384 62.7869 43.8178 62.8896 43.8178 63.0027C43.8178 63.9769 44.2062 64.9112 44.8976 65.6001C45.589 66.289 46.5268 66.676 47.5045 66.676C48.4823 66.676 49.42 66.289 50.1114 65.6001C50.8028 64.9112 51.1913 63.9769 51.1913 63.0027C51.1913 62.8896 51.1706 62.7766 51.1603 62.6636L59.895 57.6493C59.9878 57.711 60.0703 57.7932 60.1631 57.8445C60.7303 58.1733 61.3697 58.3377 62.0091 58.3377C62.6573 58.3387 63.2942 58.1692 63.8556 57.8462C64.4169 57.5233 64.8827 57.0583 65.2059 56.4985C65.7009 55.6457 65.835 54.6593 65.5772 53.7139ZM60.6788 35.6708C61.0913 35.4242 61.5553 35.3112 62.0091 35.3112C62.9269 35.3112 63.8344 35.7838 64.3294 36.6367C64.6845 37.2499 64.7808 37.9785 64.5971 38.6625C64.4134 39.3465 63.9648 39.9298 63.3497 40.2843C63.195 40.3665 63.0403 40.4385 62.8856 40.4898C62.865 40.5001 62.8444 40.5001 62.8341 40.5104C62.2521 40.6939 61.6249 40.6748 61.0552 40.4564C60.4856 40.2379 60.0074 39.8331 59.6991 39.3082C58.9566 38.0341 59.4 36.4003 60.6788 35.6708ZM62.535 41.6098V51.0321C62.1844 50.9808 61.8338 50.991 61.4934 51.0424V41.6098C61.6688 41.6304 61.8441 41.6509 62.0194 41.6509C62.1947 41.6509 62.3597 41.6304 62.535 41.6098ZM58.3481 55.0086L49.6444 60.0126C49.0359 59.5913 48.3038 59.3242 47.5097 59.3242C46.7439 59.3288 45.9983 59.5692 45.375 60.0126L37.8469 55.6765C38.2697 53.642 37.3931 51.4637 35.4853 50.3745C35.1863 50.1896 34.8666 50.056 34.5366 49.9532V44.3327C35.145 44.1786 35.7328 43.9628 36.2897 43.6443C37.5643 42.9079 38.5534 41.7657 39.0977 40.4015C39.642 39.0373 39.7099 37.5303 39.2906 36.1229L44.1994 33.2972C45.0759 34.0884 46.2309 34.5816 47.5097 34.5816C48.7781 34.5816 49.9331 34.0884 50.82 33.2972L58.3481 37.6231C58.2759 38.3629 58.4203 39.1232 58.8122 39.8117C59.2144 40.5001 59.8022 41.0036 60.4828 41.3119V51.3301C59.8022 51.6281 59.2144 52.1316 58.8122 52.82C58.4339 53.4841 58.2717 54.2488 58.3481 55.0086ZM31.5666 43.3155C30.8608 43.1303 30.199 42.8068 29.6201 42.364C29.0411 41.9212 28.5564 41.3679 28.1944 40.7364C26.6681 38.0957 27.5756 34.7049 30.2259 33.1842C31.1025 32.6807 32.0513 32.4444 32.9897 32.4444C34.9078 32.4444 36.7847 33.4411 37.8056 35.2084C38.5481 36.4928 38.7441 37.9827 38.3625 39.4007C38.1766 40.1039 37.852 40.7632 37.4076 41.3401C36.9631 41.917 36.4078 42.3999 35.7741 42.7606C34.4953 43.5005 33 43.6957 31.5666 43.3155ZM33.5156 44.4869V49.7375C33.1753 49.7066 32.835 49.7066 32.4844 49.7477V44.4869C32.6597 44.4971 32.835 44.5177 33.0103 44.5177C33.1856 44.5177 33.3506 44.4971 33.5156 44.4869ZM28.1531 55.6868L20.625 60.0126C20.0055 59.5694 19.2632 59.3289 18.5006 59.3242C17.6963 59.3242 16.9641 59.5913 16.3659 60.0126L7.65188 55.0086C7.73305 54.2505 7.57122 53.4862 7.18959 52.8254C6.80795 52.1646 6.22612 51.6411 5.52751 51.3301V41.3119C6.19782 41.0036 6.78563 40.5001 7.18782 39.8117C7.59001 39.1232 7.72407 38.3629 7.65188 37.6231L15.1903 33.2972C16.0669 34.0884 17.2219 34.5816 18.5006 34.5816C19.7691 34.5816 20.9241 34.0884 21.8109 33.2972L26.7094 36.1229C26.4572 36.9741 26.3811 37.8674 26.4857 38.7487C26.5903 39.6301 26.8734 40.4811 27.3178 41.2502C27.7468 41.994 28.3195 42.6457 29.0027 43.1678C29.6859 43.6898 30.4662 44.0718 31.2984 44.2916C31.3603 44.3122 31.4119 44.3122 31.4634 44.3225V49.9635C30.2977 50.336 29.3126 51.127 28.6997 52.1829C28.0861 53.2424 27.8912 54.4918 28.1531 55.6868ZM22.1616 12.6031L30.8756 7.58885C31.4738 8.02041 32.2059 8.27729 33 8.27729C33.7941 8.27729 34.5263 8.02041 35.1347 7.58885L43.8384 12.6031C43.7663 13.3327 43.9106 14.093 44.3128 14.7814C44.7047 15.4699 45.3028 15.9734 45.9731 16.2816V24.9436C43.9828 25.5909 42.5288 27.4301 42.5288 29.629C42.5288 29.9886 42.57 30.3277 42.6422 30.6668L37.7541 33.4719C35.7122 31.3347 32.3916 30.7696 29.7206 32.3108C29.1638 32.6294 28.6688 33.0198 28.2459 33.4719L23.3578 30.6668C23.43 30.3277 23.4713 29.9886 23.4713 29.629C23.4713 27.4301 22.0172 25.5909 20.0269 24.9436V16.2816C20.7281 15.9631 21.3056 15.4493 21.6975 14.7814C22.0894 14.093 22.2338 13.3327 22.1616 12.6031ZM43.4981 32.5369L38.9297 35.1673C38.8472 35.0029 38.775 34.8488 38.6925 34.7049C38.5997 34.5508 38.5069 34.407 38.4038 34.2631L42.9722 31.6429C43.1166 31.9615 43.2919 32.2595 43.4981 32.5369ZM23.0278 31.6429L27.6066 34.2631C27.4003 34.5508 27.225 34.8488 27.0806 35.1673L22.5122 32.5369C22.7081 32.2595 22.8938 31.9615 23.0278 31.6429ZM52.0369 31.6429L59.1113 35.7119C58.8947 35.9791 58.7297 36.2873 58.6059 36.6058L51.5213 32.5369C51.7172 32.2595 51.9028 31.9615 52.0369 31.6429ZM51.4697 29.629C51.4697 31.8073 49.6856 33.5747 47.5097 33.5747C46.4751 33.5511 45.4908 33.1251 44.7674 32.3877C44.0441 31.6503 43.639 30.6601 43.639 29.629C43.639 28.5979 44.0441 27.6077 44.7674 26.8703C45.4908 26.1329 46.4751 25.7069 47.5097 25.6834C49.6856 25.6834 51.4697 27.4507 51.4697 29.629ZM46.9838 24.7278V16.5796C47.1591 16.6001 47.3344 16.6207 47.5097 16.6207C47.685 16.6207 47.8603 16.6001 48.0253 16.5796V24.7278C47.85 24.7072 47.685 24.6764 47.5097 24.6764C47.3344 24.6764 47.1591 24.7072 46.9838 24.7278ZM46.1691 10.6303C46.5919 10.394 47.0456 10.2809 47.4994 10.2809C48.4275 10.2809 49.3247 10.7536 49.8197 11.6064C50.0177 11.9481 50.1372 12.3291 50.1698 12.7223C50.2024 13.1154 50.1472 13.5109 50.0082 13.8802C49.8692 14.2496 49.6498 14.5837 49.3658 14.8586C49.0818 15.1334 48.7402 15.3422 48.3656 15.4699H48.3347C47.85 15.6343 47.3241 15.6548 46.8188 15.5213C46.4785 15.4308 46.1595 15.2744 45.88 15.0611C45.6004 14.8478 45.3657 14.5817 45.1894 14.278C44.4572 13.0038 44.8903 11.3701 46.1691 10.6303ZM36.4238 5.9551L44.6016 10.6817C44.3953 10.9488 44.2303 11.2571 44.0963 11.5756L35.8875 6.85932C36.1041 6.58189 36.2897 6.28391 36.4238 5.9551ZM33 1.93753C34.4747 1.93753 35.6813 3.12944 35.6813 4.59879C35.6813 6.06813 34.4747 7.26005 33 7.26005C32.2916 7.26005 31.6123 6.97967 31.1114 6.48058C30.6105 5.9815 30.3291 5.3046 30.3291 4.59879C30.3291 3.89298 30.6105 3.21607 31.1114 2.71699C31.6123 2.21791 32.2916 1.93753 33 1.93753ZM29.5763 5.9551C29.7103 6.28391 29.8959 6.58189 30.1125 6.85932L21.9038 11.5756C21.78 11.2571 21.615 10.9488 21.3984 10.6817L29.5763 5.9551ZM15.9122 13.6306C15.7266 12.9422 15.8194 12.2229 16.1803 11.6064C16.5413 10.9899 17.1188 10.5481 17.7994 10.3631C18.0366 10.3015 18.2738 10.2809 18.5006 10.2809C18.9647 10.2809 19.4184 10.394 19.8309 10.6303C20.446 10.9848 20.8947 11.5682 21.0784 12.2521C21.2621 12.9361 21.1658 13.6647 20.8106 14.278C20.5089 14.8091 20.0308 15.2187 19.4585 15.4363C18.8862 15.6539 18.2557 15.6657 17.6756 15.4699H17.6344C17.4694 15.4082 17.3147 15.3363 17.16 15.2541C16.8552 15.0784 16.5881 14.8446 16.374 14.566C16.1599 14.2875 16.003 13.9696 15.9122 13.6306ZM19.0163 16.5796V24.7278C18.8409 24.7072 18.6759 24.6764 18.5006 24.6764C18.315 24.6764 18.15 24.7072 17.9747 24.7278V16.5796C18.15 16.6104 18.315 16.6207 18.4903 16.6207C18.6656 16.6207 18.8409 16.6104 19.0163 16.5796ZM18.5006 25.6834C20.6766 25.6834 22.4606 27.4507 22.4606 29.629C22.4606 31.8073 20.6766 33.5747 18.5006 33.5747C17.466 33.5511 16.4817 33.1251 15.7584 32.3877C15.035 31.6503 14.63 30.6601 14.63 29.629C14.63 28.5979 15.035 27.6077 15.7584 26.8703C16.4817 26.1329 17.466 25.7069 18.5006 25.6834ZM13.9631 31.6429C14.1075 31.9615 14.2828 32.2595 14.4891 32.5369L7.39407 36.6058C7.27032 36.2873 7.10532 35.9791 6.88876 35.7119L13.9631 31.6429ZM1.41282 38.6609C1.27481 38.152 1.29177 37.6137 1.46154 37.1144C1.63131 36.6152 1.94623 36.1775 2.36626 35.857C2.7863 35.5365 3.29249 35.3477 3.82049 35.3145C4.3485 35.2814 4.87448 35.4054 5.33157 35.6708C5.95032 36.0202 6.39376 36.5956 6.57938 37.284C6.76501 37.9724 6.66188 38.6917 6.31126 39.3082C6.00226 39.8324 5.52399 40.2367 4.95457 40.4551C4.38515 40.6734 3.75824 40.6929 3.17626 40.5104C3.15563 40.5001 3.14532 40.5001 3.1247 40.4898C2.9597 40.4385 2.80501 40.3665 2.65032 40.2843C2.03157 39.9247 1.58813 39.3493 1.41282 38.6609ZM4.50657 41.6098V51.0424C4.16626 50.991 3.81563 50.9808 3.46501 51.0321V41.6098C3.64032 41.6304 3.81563 41.6509 3.99095 41.6509C4.16626 41.6509 4.33126 41.6304 4.50657 41.6098ZM6.57938 55.3477C6.43501 55.8614 6.16688 56.3033 5.78532 56.6424C5.7647 56.6526 5.7647 56.6629 5.74407 56.6732C5.62032 56.7862 5.47595 56.8787 5.33157 56.9712C4.71282 57.3205 3.99095 57.4233 3.30001 57.2383C2.60907 57.0534 2.03157 56.6115 1.68095 55.995C1.32001 55.3785 1.2272 54.6593 1.41282 53.9708C1.58813 53.2824 2.03157 52.707 2.65032 52.3576C3.07313 52.111 3.5372 51.998 3.99095 51.998C4.90876 51.998 5.81626 52.4706 6.31126 53.3338C6.66188 53.9503 6.76501 54.6593 6.57938 55.3477ZM15.0769 61.6361L6.88876 56.9301C7.10532 56.6629 7.27032 56.3546 7.40438 56.0258L15.6028 60.7524C15.3966 61.0196 15.2109 61.3073 15.0769 61.6361ZM18.5006 65.6742C17.0259 65.6742 15.8194 64.472 15.8194 63.0027C15.8194 61.5333 17.0259 60.3414 18.5006 60.3414C19.9753 60.3414 21.1716 61.5333 21.1716 63.0027C21.1716 64.472 19.9753 65.6742 18.5006 65.6742ZM21.9141 61.6463C21.7903 61.3175 21.6047 61.0196 21.3881 60.7524L28.4728 56.6732C28.6172 56.9814 28.7822 57.2897 28.9884 57.5671L21.9141 61.6463ZM36.4341 56.6321C35.9058 57.5362 35.0404 58.1958 34.0264 58.4671C33.0124 58.7385 31.9318 58.5996 31.02 58.0809C30.1121 57.5549 29.4503 56.6919 29.1797 55.6808C28.9091 54.6697 29.0517 53.593 29.5763 52.6864C30.1022 51.7822 30.9581 51.1246 31.9791 50.8574C33 50.58 34.0622 50.7239 34.98 51.2479C35.8865 51.7725 36.5481 52.6329 36.8205 53.6415C37.0929 54.6501 36.954 55.7251 36.4341 56.6321ZM44.0859 61.6463L37.0116 57.5774C37.1147 57.4335 37.2178 57.2897 37.3106 57.1356C37.3931 56.9814 37.455 56.8273 37.5272 56.6629L44.6119 60.7524C44.4056 61.0196 44.22 61.3175 44.0859 61.6463ZM47.5097 65.6742C46.035 65.6742 44.8284 64.472 44.8284 63.0027C44.8284 61.5333 46.035 60.3414 47.5097 60.3414C48.9844 60.3414 50.1806 61.5333 50.1806 63.0027C50.1806 64.472 48.9844 65.6742 47.5097 65.6742ZM50.9231 61.6361C50.7891 61.3073 50.6138 61.0196 50.3972 60.7524L58.6059 56.0258C58.7297 56.3444 58.8947 56.6526 59.1113 56.9301L50.9231 61.6361ZM64.3294 55.995C64.153 56.2987 63.9184 56.5648 63.6388 56.7781C63.3592 56.9915 63.0402 57.1478 62.7 57.2383C62.0091 57.4233 61.2975 57.3205 60.6788 56.9712C60.5241 56.8787 60.3797 56.7862 60.2559 56.6732L60.225 56.6424C59.8434 56.3033 59.565 55.8614 59.4309 55.3477C59.2453 54.6593 59.3381 53.9503 59.6991 53.3338C60.1941 52.4706 61.0913 51.998 62.0194 51.998C62.4731 51.998 62.9269 52.111 63.3497 52.3576C63.9684 52.707 64.4119 53.2824 64.5975 53.9708C64.7831 54.6593 64.68 55.3785 64.3294 55.995Z" fill="black"/>
<path d="M59.1112 56.9301L50.9231 61.6361C50.789 61.3073 50.6137 61.0196 50.3972 60.7524L58.6059 56.0258C58.7297 56.3444 58.8947 56.6526 59.1112 56.9301ZM62.535 41.6098V51.0321C62.1843 50.9808 61.8337 50.991 61.4934 51.0424V41.6098C61.6687 41.6304 61.844 41.6509 62.0193 41.6509C62.1947 41.6509 62.3597 41.6304 62.535 41.6098ZM59.1112 35.7119C58.8947 35.9791 58.7297 36.2873 58.6059 36.6058L51.5212 32.5369C51.7172 32.2595 51.9028 31.9615 52.0368 31.643L59.1112 35.7119ZM48.0253 16.5796V24.7278C47.85 24.7072 47.685 24.6764 47.5097 24.6764C47.3343 24.6764 47.159 24.7072 46.9837 24.7278V16.5796C47.159 16.6002 47.3343 16.6207 47.5097 16.6207C47.685 16.6207 47.8603 16.6002 48.0253 16.5796ZM44.6015 10.6817C44.3953 10.9488 44.2303 11.2571 44.0962 11.5756L35.8875 6.85932C36.104 6.58189 36.2897 6.28391 36.4237 5.95511L44.6015 10.6817ZM30.1125 6.85932L21.9037 11.5756C21.78 11.2571 21.615 10.9488 21.3984 10.6817L29.5762 5.95511C29.7103 6.28391 29.8959 6.58189 30.1125 6.85932ZM19.0162 16.5796V24.7278C18.8409 24.7072 18.6759 24.6764 18.5006 24.6764C18.315 24.6764 18.15 24.7072 17.9747 24.7278V16.5796C18.15 16.6104 18.315 16.6207 18.4903 16.6207C18.6656 16.6207 18.8409 16.6104 19.0162 16.5796ZM14.489 32.5369L7.39403 36.6058C7.27028 36.2873 7.10528 35.9791 6.88872 35.7119L13.9631 31.643C14.1075 31.9615 14.2828 32.2595 14.489 32.5369ZM4.50653 41.6098V51.0424C4.16622 50.991 3.81559 50.9808 3.46497 51.0321V41.6098C3.64028 41.6304 3.81559 41.6509 3.9909 41.6509C4.16622 41.6509 4.33122 41.6304 4.50653 41.6098ZM15.6028 60.7524C15.3965 61.0196 15.2109 61.3073 15.0768 61.6361L6.88872 56.9301C7.10528 56.6629 7.27028 56.3547 7.40434 56.0258L15.6028 60.7524ZM28.9884 57.5671L21.914 61.6463C21.7903 61.3175 21.6047 61.0196 21.3881 60.7524L28.4728 56.6732C28.6172 56.9814 28.7822 57.2897 28.9884 57.5671ZM44.6118 60.7524C44.4056 61.0196 44.22 61.3175 44.0859 61.6463L37.0115 57.5774C37.1147 57.4335 37.2178 57.2897 37.3106 57.1356C37.3931 56.9814 37.455 56.8273 37.5272 56.6629L44.6118 60.7524ZM33.5156 44.4869V49.7375C33.1753 49.7066 32.835 49.7066 32.4843 49.7477V44.4869C32.6597 44.4971 32.835 44.5177 33.0103 44.5177C33.1856 44.5177 33.3506 44.4971 33.5156 44.4869ZM27.6065 34.2631C27.4003 34.5508 27.225 34.8488 27.0806 35.1673L22.5122 32.5369C22.7081 32.2595 22.8937 31.9615 23.0278 31.643L27.6065 34.2631ZM43.4981 32.5369L38.9297 35.1673C38.8472 35.0029 38.775 34.8488 38.6925 34.7049C38.5997 34.5508 38.5068 34.407 38.4037 34.2631L42.9722 31.643C43.1165 31.9615 43.2918 32.2595 43.4981 32.5369Z" fill="#D6D6D6"/>
<path d="M35.6812 4.59879C35.6785 5.30554 35.3948 5.98242 34.8923 6.48121C34.3897 6.98 33.7093 7.26006 33 7.26005C32.2916 7.26005 31.6122 6.97967 31.1113 6.48059C30.6104 5.9815 30.329 5.3046 30.329 4.59879C30.329 3.89298 30.6104 3.21608 31.1113 2.717C31.6122 2.21791 32.2916 1.93753 33 1.93753C33.7093 1.93753 34.3897 2.21758 34.8923 2.71637C35.3948 3.21516 35.6785 3.89204 35.6812 4.59879ZM6.57934 55.3477C6.43497 55.8614 6.16684 56.3033 5.78528 56.6424C5.76465 56.6526 5.76465 56.6629 5.74403 56.6732C5.62028 56.7862 5.4759 56.8787 5.33153 56.9712C4.71278 57.3205 3.9909 57.4233 3.29997 57.2383C2.60903 57.0534 2.03153 56.6115 1.6809 55.995C1.31997 55.3785 1.22715 54.6593 1.41278 53.9708C1.58809 53.2824 2.03153 52.707 2.65028 52.3576C3.07309 52.111 3.53715 51.998 3.9909 51.998C4.90872 51.998 5.81622 52.4706 6.31122 53.3338C6.66184 53.9503 6.76497 54.6593 6.57934 55.3477ZM64.3293 55.995C64.153 56.2987 63.9183 56.5648 63.6388 56.7781C63.3592 56.9915 63.0402 57.1478 62.7 57.2383C62.009 57.4233 61.2975 57.3205 60.6787 56.9712C60.524 56.8787 60.3797 56.7862 60.2559 56.6732L60.225 56.6424C59.8434 56.3033 59.565 55.8614 59.4309 55.3477C59.2453 54.6593 59.3381 53.9503 59.699 53.3338C60.194 52.4706 61.0912 51.998 62.0193 51.998C62.4731 51.998 62.9268 52.111 63.3497 52.3576C63.9684 52.707 64.4118 53.2824 64.5975 53.9708C64.7831 54.6593 64.68 55.3785 64.3293 55.995Z" fill="#F2A446"/>
<path d="M48.84 15.2541C48.6956 15.3363 48.5306 15.4082 48.3656 15.4699H48.3347C47.85 15.6343 47.3241 15.6548 46.8188 15.5213C46.4785 15.4308 46.1595 15.2744 45.88 15.0611C45.6004 14.8478 45.3657 14.5817 45.1894 14.278C44.4572 13.0039 44.8903 11.3701 46.1691 10.6303C46.5919 10.394 47.0456 10.2809 47.4994 10.2809C48.4275 10.2809 49.3247 10.7536 49.8197 11.6064C50.1749 12.2197 50.2712 12.9483 50.0875 13.6323C49.9038 14.3162 49.4551 14.8996 48.84 15.2541Z" fill="#47B28E"/>
<path d="M20.8106 14.278C20.5089 14.8091 20.0307 15.2187 19.4585 15.4363C18.8862 15.6539 18.2557 15.6658 17.6756 15.4699H17.6344C17.4694 15.4082 17.3147 15.3363 17.16 15.2541C16.5412 14.8945 16.0978 14.3191 15.9122 13.6306C15.7265 12.9422 15.8194 12.2229 16.1803 11.6064C16.5412 10.9899 17.1187 10.5481 17.7994 10.3631C18.0365 10.3015 18.2737 10.2809 18.5006 10.2809C18.9647 10.2809 19.4184 10.394 19.8309 10.6303C20.446 10.9848 20.8947 11.5682 21.0784 12.2521C21.2621 12.9361 21.1658 13.6647 20.8106 14.278ZM21.1715 63.0027C21.1715 64.472 19.9753 65.6742 18.5006 65.6742C17.0259 65.6742 15.8194 64.472 15.8194 63.0027C15.8194 61.5333 17.0259 60.3414 18.5006 60.3414C19.9753 60.3414 21.1715 61.5333 21.1715 63.0027Z" fill="#5E7791"/>
<path d="M21.1715 63.0027C21.1705 63.6785 20.9125 64.3289 20.4494 64.8227C19.9863 65.3165 19.3526 65.6171 18.6759 65.6639C19.5525 65.5201 20.2434 64.3795 20.2434 63.0027C20.2434 61.6258 19.5525 60.4955 18.6759 60.3517C19.3517 60.396 19.9853 60.6944 20.4487 61.1866C20.912 61.6787 21.1704 62.3279 21.1715 63.0027Z" fill="#7188A1"/>
<path d="M18.3253 65.6639C17.6475 65.6175 17.0125 65.3173 16.5477 64.8237C16.0829 64.3301 15.8227 63.6795 15.8193 63.0027C15.8193 61.595 16.9331 60.4442 18.3253 60.3517C17.4384 60.4955 16.7475 61.6258 16.7475 63.0027C16.7475 64.3795 17.4384 65.5201 18.3253 65.6639Z" fill="#506B87"/>
<path d="M6.31124 39.3082C6.00225 39.8324 5.52397 40.2367 4.95455 40.4551C4.38514 40.6734 3.75823 40.6929 3.17624 40.5104C3.15562 40.5001 3.14531 40.5001 3.12468 40.4898C2.95968 40.4385 2.80499 40.3665 2.65031 40.2843C2.03156 39.9247 1.58812 39.3493 1.41281 38.6609C1.2748 38.152 1.29175 37.6137 1.46152 37.1144C1.63129 36.6152 1.94621 36.1775 2.36625 35.857C2.78629 35.5365 3.29248 35.3477 3.82048 35.3145C4.34848 35.2814 4.87446 35.4054 5.33156 35.6708C5.95031 36.0202 6.39374 36.5956 6.57937 37.284C6.765 37.9724 6.66187 38.6917 6.31124 39.3082ZM50.1806 63.0027C50.1806 63.7094 49.8996 64.3874 49.3989 64.8881C48.8983 65.3888 48.219 65.6715 47.5097 65.6742C46.035 65.6742 44.8284 64.472 44.8284 63.0027C44.8284 61.5333 46.035 60.3414 47.5097 60.3414C47.8604 60.3414 48.2078 60.4102 48.5318 60.544C48.8559 60.6777 49.1503 60.8737 49.3983 61.1209C49.6463 61.368 49.8431 61.6614 49.9773 61.9842C50.1115 62.3071 50.1806 62.6532 50.1806 63.0027Z" fill="#47B28E"/>
<path d="M64.5975 38.6608C64.5067 38.9998 64.3498 39.3177 64.1357 39.5962C63.9216 39.8748 63.6545 40.1086 63.3497 40.2843C63.195 40.3665 63.0403 40.4384 62.8857 40.4898C62.865 40.5001 62.8444 40.5001 62.8341 40.5104C62.2522 40.6939 61.6249 40.6748 61.0553 40.4564C60.4856 40.2379 60.0074 39.8331 59.6991 39.3082C58.9566 38.0341 59.4 36.4003 60.6788 35.6708C61.0913 35.4242 61.5554 35.3112 62.0091 35.3112C62.9269 35.3112 63.8344 35.7838 64.3294 36.6366C64.68 37.2532 64.7832 37.9724 64.5975 38.6608Z" fill="#5E7791"/>
<path d="M36.4341 56.6321C35.9058 57.5362 35.0404 58.1958 34.0264 58.4671C33.0124 58.7385 31.9318 58.5997 31.02 58.0809C30.112 57.5549 29.4503 56.6919 29.1797 55.6808C28.9091 54.6697 29.0517 53.593 29.5762 52.6864C30.1022 51.7822 30.9581 51.1246 31.979 50.8575C33 50.58 34.0622 50.7239 34.98 51.2479C35.8865 51.7725 36.5481 52.6329 36.8204 53.6415C37.0928 54.6501 36.9539 55.7251 36.4341 56.6321Z" fill="#43B5DD"/>
<path d="M18.5006 33.5747C20.6877 33.5747 22.4606 31.8082 22.4606 29.629C22.4606 27.4499 20.6877 25.6834 18.5006 25.6834C16.3136 25.6834 14.5406 27.4499 14.5406 29.629C14.5406 31.8082 16.3136 33.5747 18.5006 33.5747Z" fill="#43B5DD"/>
<path d="M22.4606 29.629C22.4606 31.8074 20.6765 33.5747 18.5006 33.5747C20.0372 33.5747 21.2953 31.8074 21.2953 29.629C21.2953 27.4507 20.0372 25.6834 18.5006 25.6834C20.6765 25.6834 22.4606 27.4507 22.4606 29.629Z" fill="#58CBF5"/>
<path d="M18.5007 33.5747C17.466 33.5512 16.4818 33.1251 15.7584 32.3877C15.035 31.6503 14.63 30.6602 14.63 29.629C14.63 28.5979 15.035 27.6077 15.7584 26.8703C16.4818 26.1329 17.466 25.7069 18.5007 25.6834C16.9538 25.6834 15.706 27.4507 15.706 29.629C15.706 31.8074 16.9538 33.5747 18.5007 33.5747Z" fill="#35A2D1"/>
<path d="M47.5097 33.5747C49.6967 33.5747 51.4697 31.8082 51.4697 29.629C51.4697 27.4499 49.6967 25.6834 47.5097 25.6834C45.3226 25.6834 43.5497 27.4499 43.5497 29.629C43.5497 31.8082 45.3226 33.5747 47.5097 33.5747Z" fill="#43B5DD"/>
<path d="M38.3625 39.4007C38.1766 40.1039 37.8519 40.7632 37.4075 41.3401C36.9631 41.917 36.4078 42.3999 35.774 42.7606C34.4953 43.5004 33 43.6957 31.5665 43.3155C30.8607 43.1303 30.199 42.8068 29.62 42.364C29.041 41.9212 28.5564 41.3679 28.1943 40.7364C26.6681 38.0957 27.5756 34.7049 30.2259 33.1842C31.1025 32.6807 32.0512 32.4444 32.9896 32.4444C34.9078 32.4444 36.7846 33.4411 37.8056 35.2084C38.5481 36.4928 38.744 37.9827 38.3625 39.4007Z" fill="#EA625C"/>
<path d="M38.3626 39.4007C38.1767 40.1039 37.852 40.7632 37.4076 41.3401C36.9632 41.917 36.4079 42.3999 35.7741 42.7606C34.9904 43.2127 34.1344 43.4594 33.2682 43.4902C33.8766 43.4388 34.4644 43.1922 35.0007 42.7606C35.9391 42.0208 36.5991 40.8289 36.8776 39.4007C37.1457 37.9827 37.0116 36.4928 36.4754 35.2084C35.7741 33.5541 34.5469 32.5677 33.2476 32.4547C35.0729 32.5369 36.826 33.5233 37.8057 35.2084C38.5482 36.4928 38.7441 37.9827 38.3626 39.4007Z" fill="#FA786B"/>
<path d="M32.7525 43.4902C31.8206 43.4542 30.9133 43.1826 30.1159 42.7008C29.3185 42.2191 28.6572 41.5431 28.1943 40.7364C26.6681 38.0957 27.5756 34.7049 30.2259 33.1842C31.0303 32.7218 31.8862 32.4855 32.7421 32.4547C32.144 32.5061 31.5459 32.7424 30.9993 33.1842C29.0812 34.7049 28.4315 38.0957 29.5246 40.7364C30.0712 42.0208 30.9271 42.9353 31.9687 43.3155C32.2265 43.408 32.4843 43.4696 32.7525 43.4902Z" fill="#D95B57"/>
<path d="M51.4696 29.629C51.4696 31.8074 49.6856 33.5747 47.5096 33.5747C49.0462 33.5747 50.3043 31.8074 50.3043 29.629C50.3043 27.4507 49.0462 25.6834 47.5096 25.6834C49.6856 25.6834 51.4696 27.4507 51.4696 29.629Z" fill="#58CBF5"/>
<path d="M47.5097 33.5747C46.4751 33.5512 45.4908 33.1251 44.7674 32.3877C44.044 31.6503 43.639 30.6602 43.639 29.629C43.639 28.5979 44.044 27.6077 44.7674 26.8703C45.4908 26.1329 46.4751 25.7069 47.5097 25.6834C45.9628 25.6834 44.715 27.4507 44.715 29.629C44.715 31.8074 45.9628 33.5747 47.5097 33.5747Z" fill="#35A2D1"/>
<path d="M36.96 54.6592C36.96 56.8376 35.1759 58.6049 33 58.6049C34.5366 58.6049 35.7947 56.8376 35.7947 54.6592C35.7947 52.4809 34.5366 50.7136 33 50.7136C35.1759 50.7136 36.96 52.4809 36.96 54.6592Z" fill="#58CBF5"/>
<path d="M33 58.6049C31.9654 58.5814 30.9812 58.1553 30.2578 57.4179C29.5344 56.6806 29.1294 55.6904 29.1294 54.6592C29.1294 53.6281 29.5344 52.6379 30.2578 51.9005C30.9812 51.1632 31.9654 50.7371 33 50.7136C31.4532 50.7136 30.2054 52.4809 30.2054 54.6592C30.2054 56.8376 31.4532 58.6049 33 58.6049Z" fill="#35A2D1"/>
<path d="M6.67214 37.9724C6.67116 38.6483 6.41312 39.2986 5.95003 39.7925C5.48693 40.2863 4.8532 40.5869 4.17651 40.6337C5.05308 40.4898 5.74401 39.3493 5.74401 37.9724C5.74401 36.5956 5.05308 35.4653 4.17651 35.3214C4.8523 35.3657 5.48596 35.6642 5.94928 36.1563C6.4126 36.6485 6.67098 37.2976 6.67214 37.9724Z" fill="#53BF9F"/>
<path d="M3.82588 40.6337C3.14815 40.5873 2.51313 40.2871 2.04831 39.7935C1.58349 39.2998 1.32329 38.6493 1.31995 37.9724C1.31995 36.5647 2.4337 35.4139 3.82588 35.3214C2.93901 35.4653 2.24807 36.5956 2.24807 37.9724C2.24807 39.3493 2.93901 40.4898 3.82588 40.6337Z" fill="#3BA580"/>
<path d="M6.67214 54.6593C6.67116 55.3351 6.41312 55.9855 5.95003 56.4793C5.48693 56.9731 4.8532 57.2737 4.17651 57.3205C5.05308 57.1767 5.74401 56.0361 5.74401 54.6593C5.74401 53.2824 5.05308 52.1521 4.17651 52.0083C4.8523 52.0526 5.48596 52.351 5.94928 52.8431C6.4126 53.3353 6.67098 53.9845 6.67214 54.6593Z" fill="#FCB653"/>
<path d="M3.82588 57.3205C2.4337 57.228 1.31995 56.0669 1.31995 54.6593C1.31995 53.2516 2.4337 52.1007 3.82588 52.0083C2.93901 52.1521 2.24807 53.2824 2.24807 54.6593C2.24807 56.0361 2.93901 57.1767 3.82588 57.3205Z" fill="#E89431"/>
<path d="M64.6903 37.9724C64.6893 38.6483 64.4313 39.2986 63.9682 39.7925C63.5051 40.2863 62.8714 40.5869 62.1947 40.6337C63.0713 40.4898 63.7622 39.3493 63.7622 37.9724C63.7622 36.5956 63.0713 35.4653 62.1947 35.3214C62.8705 35.3657 63.5041 35.6642 63.9675 36.1563C64.4308 36.6485 64.6892 37.2976 64.6903 37.9724Z" fill="#7188A1"/>
<path d="M61.8441 40.6337C61.1663 40.5873 60.5313 40.2871 60.0665 39.7935C59.6017 39.2998 59.3415 38.6493 59.3381 37.9724C59.3381 36.5647 60.4519 35.4139 61.8441 35.3214C60.9572 35.4653 60.2663 36.5956 60.2663 37.9724C60.2663 39.3493 60.9572 40.4898 61.8441 40.6337Z" fill="#506B87"/>
<path d="M64.6903 54.6593C64.6893 55.3351 64.4313 55.9855 63.9682 56.4793C63.5051 56.9731 62.8714 57.2737 62.1947 57.3205C63.0713 57.1767 63.7622 56.0361 63.7622 54.6593C63.7622 53.2824 63.0713 52.1521 62.1947 52.0083C62.8705 52.0526 63.5041 52.351 63.9675 52.8431C64.4308 53.3353 64.6892 53.9845 64.6903 54.6593Z" fill="#FCB653"/>
<path d="M61.8441 57.3205C60.4519 57.228 59.3381 56.0669 59.3381 54.6593C59.3381 53.2516 60.4519 52.1007 61.8441 52.0083C60.9572 52.1521 60.2663 53.2824 60.2663 54.6593C60.2663 56.0361 60.9572 57.1767 61.8441 57.3205Z" fill="#E89431"/>
<path d="M50.1807 63.0027C50.1797 63.6785 49.9217 64.3289 49.4586 64.8227C48.9955 65.3165 48.3617 65.6171 47.6851 65.6639C48.5616 65.5201 49.2526 64.3795 49.2526 63.0027C49.2526 61.6258 48.5616 60.4955 47.6851 60.3517C48.3608 60.396 48.9945 60.6944 49.4578 61.1866C49.9211 61.6787 50.1795 62.3279 50.1807 63.0027Z" fill="#53BF9F"/>
<path d="M47.3344 65.6639C46.6567 65.6175 46.0217 65.3173 45.5569 64.8237C45.092 64.3301 44.8318 63.6795 44.8285 63.0027C44.8285 61.595 45.9422 60.4442 47.3344 60.3517C46.4476 60.4955 45.7566 61.6258 45.7566 63.0027C45.7566 64.3795 46.4476 65.5201 47.3344 65.6639Z" fill="#3BA580"/>
<path d="M21.1715 12.9422C21.1705 13.618 20.9125 14.2684 20.4494 14.7622C19.9863 15.2561 19.3526 15.5567 18.6759 15.6034C19.5525 15.4596 20.2434 14.3191 20.2434 12.9422C20.2434 11.5653 19.5525 10.4351 18.6759 10.2912C19.3517 10.3355 19.9853 10.6339 20.4487 11.1261C20.912 11.6182 21.1704 12.2674 21.1715 12.9422Z" fill="#7188A1"/>
<path d="M18.3253 15.6034C16.9331 15.511 15.8193 14.3499 15.8193 12.9422C15.8193 11.5345 16.9331 10.3837 18.3253 10.2912C17.4384 10.4351 16.7475 11.5653 16.7475 12.9422C16.7475 14.3191 17.4384 15.4596 18.3253 15.6034Z" fill="#506B87"/>
<path d="M50.1807 12.9422C50.1797 13.618 49.9217 14.2684 49.4586 14.7622C48.9955 15.2561 48.3617 15.5567 47.6851 15.6034C48.5616 15.4596 49.2526 14.3191 49.2526 12.9422C49.2526 11.5653 48.5616 10.4351 47.6851 10.2912C48.3608 10.3355 48.9945 10.6339 49.4578 11.1261C49.9211 11.6182 50.1795 12.2674 50.1807 12.9422Z" fill="#53BF9F"/>
<path d="M47.3344 15.6034C45.9422 15.511 44.8285 14.3499 44.8285 12.9422C44.8285 11.5345 45.9422 10.3837 47.3344 10.2912C46.4476 10.4351 45.7566 11.5653 45.7566 12.9422C45.7566 14.3191 46.4476 15.4596 47.3344 15.6034Z" fill="#3BA580"/>
<path d="M35.6813 4.5988C35.6803 5.27465 35.4223 5.92501 34.9592 6.41885C34.4961 6.91268 33.8624 7.21327 33.1857 7.26006C34.0622 7.11621 34.7532 5.97567 34.7532 4.5988C34.7532 3.22193 34.0622 2.09167 33.1857 1.94781C33.8615 1.99211 34.4951 2.29053 34.9584 2.78269C35.4218 3.27486 35.6801 3.92401 35.6813 4.5988Z" fill="#FCB653"/>
<path d="M32.835 7.26006C31.4429 7.16758 30.3291 6.00649 30.3291 4.5988C30.3291 3.19111 31.4429 2.04029 32.835 1.94781C31.9482 2.09167 31.2572 3.22193 31.2572 4.5988C31.2572 5.97567 31.9482 7.11621 32.835 7.26006Z" fill="#E89431"/>
</g>
<defs>
<clipPath id="clip0_19_50">
<rect width="66" height="65.7609" fill="white" transform="translate(0 0.920288)"/>
</clipPath>
</defs>
</svg>
