<svg width="301" height="244" viewBox="0 0 301 244" fill="none" xmlns="http://www.w3.org/2000/svg">
<path d="M138.262 148.186H89.73C87.8825 148.186 86.1753 147.201 85.2515 145.601L60.9859 103.571C60.0622 101.971 60.0622 99.9991 60.9859 98.3992L85.2515 56.3698C86.1753 54.7699 87.8825 53.7841 89.73 53.7841H138.262C140.109 53.7841 141.817 54.7699 142.74 56.3698L167.007 98.3992C167.932 99.9991 167.932 101.971 167.007 103.571L142.74 145.601C141.817 147.201 140.109 148.186 138.262 148.186ZM92.7158 137.844H135.277L156.558 100.985L135.277 64.1269H92.7158L71.4361 100.985L92.7158 137.844Z" fill="black"/>
<path d="M211.059 190.217H162.529C160.682 190.217 158.975 189.232 158.051 187.631L133.783 145.6C132.86 144 132.86 142.029 133.783 140.429L158.051 98.3986C158.975 96.7987 160.681 95.8129 162.529 95.8129H211.061C212.908 95.8129 214.615 96.7987 215.54 98.3986L239.805 140.429C240.728 142.029 240.728 144 239.804 145.6L215.538 187.631C214.614 189.232 212.907 190.217 211.059 190.217ZM165.515 179.874H208.073L229.355 143.014L208.075 106.156H165.515L144.234 143.014L165.515 179.874ZM65.4644 106.156H28.6827C25.8267 106.156 23.5112 103.841 23.5112 100.985C23.5112 98.129 25.8267 95.8135 28.6827 95.8135H65.4644C68.3203 95.8135 70.6358 98.129 70.6358 100.985C70.6358 103.841 68.321 106.156 65.4644 106.156Z" fill="black"/>
<path d="M272.102 148.187H235.326C232.47 148.187 230.155 145.872 230.155 143.016C230.155 140.16 232.47 137.844 235.326 137.844H272.102C274.958 137.844 277.274 140.16 277.274 143.016C277.274 145.872 274.957 148.187 272.102 148.187ZM71.3359 180.044C70.4587 180.044 69.5699 179.82 68.7547 179.351C66.2815 177.923 65.434 174.759 66.862 172.286L85.2528 140.43C86.6801 137.957 89.8431 137.11 92.317 138.537C94.7902 139.965 95.6377 143.128 94.2097 145.601L75.8189 177.457C74.8615 179.116 73.1226 180.044 71.3359 180.044ZM138.261 64.1269C137.383 64.1269 136.494 63.9033 135.679 63.4327C133.206 62.0047 132.359 58.8417 133.787 56.3685L152.178 24.519C153.606 22.0458 156.769 21.197 159.242 22.6269C161.716 24.0549 162.564 27.2178 161.135 29.6911L142.744 61.5406C141.786 63.1993 140.047 64.1269 138.261 64.1269ZM211.054 106.158C210.177 106.158 209.288 105.934 208.474 105.463C206 104.035 205.152 100.872 206.581 98.3992L224.972 66.5497C226.4 64.0765 229.562 63.2284 232.036 64.6577C234.509 66.0856 235.357 69.2486 233.929 71.7218L215.538 103.571C214.58 105.23 212.841 106.158 211.054 106.158ZM229.455 222.068C227.668 222.068 225.93 221.14 224.972 219.482L206.581 187.632C205.152 185.159 206 181.996 208.474 180.568C210.947 179.141 214.11 179.987 215.538 182.461L233.929 214.31C235.357 216.783 234.509 219.946 232.036 221.374C231.221 221.844 230.333 222.068 229.455 222.068ZM16.9261 117.911C7.59294 117.911 0 110.318 0 100.985C0 91.6518 7.59294 84.0595 16.9261 84.0595C26.2592 84.0595 33.8521 91.6525 33.8521 100.985C33.8521 110.317 26.2592 117.911 16.9261 117.911ZM16.9261 94.4024C13.2964 94.4024 10.3428 97.3553 10.3428 100.985C10.3428 104.615 13.2957 107.568 16.9261 107.568C20.5564 107.568 23.5093 104.615 23.5093 100.985C23.5093 97.3553 20.5558 94.4024 16.9261 94.4024Z" fill="black"/>
<path d="M65.4644 201.972C56.1319 201.972 48.5389 194.38 48.5389 185.046C48.5389 175.713 56.1319 168.12 65.4644 168.12C74.7975 168.12 82.3904 175.713 82.3904 185.046C82.3904 194.38 74.7975 201.972 65.4644 201.972ZM65.4644 178.464C61.8347 178.464 58.8818 181.417 58.8818 185.046C58.8818 188.677 61.8347 191.63 65.4644 191.63C69.0941 191.63 72.0476 188.677 72.0476 185.046C72.0476 181.417 69.0941 178.464 65.4644 178.464ZM235.326 244C225.992 244 218.399 236.407 218.399 227.073C218.399 217.741 225.992 210.149 235.326 210.149C244.659 210.149 252.252 217.741 252.252 227.073C252.251 236.407 244.658 244 235.326 244ZM235.326 220.492C231.696 220.492 228.742 223.444 228.742 227.074C228.742 230.704 231.695 233.658 235.326 233.658C238.956 233.658 241.909 230.705 241.909 227.074C241.908 223.445 238.955 220.492 235.326 220.492ZM283.858 159.94C274.525 159.94 266.932 152.348 266.932 143.014C266.932 133.681 274.525 126.088 283.858 126.088C293.191 126.088 300.784 133.681 300.784 143.014C300.783 152.348 293.191 159.94 283.858 159.94ZM283.858 136.432C280.228 136.432 277.275 139.385 277.275 143.014C277.275 146.645 280.228 149.598 283.858 149.598C287.488 149.598 290.441 146.645 290.441 143.014C290.441 139.385 287.488 136.432 283.858 136.432ZM235.326 75.8816C225.992 75.8816 218.399 68.288 218.399 58.9549C218.399 49.6224 225.992 42.0294 235.326 42.0294C244.659 42.0294 252.252 49.6224 252.252 58.9549C252.251 68.288 244.658 75.8816 235.326 75.8816ZM235.326 52.3729C231.696 52.3729 228.742 55.3258 228.742 58.9555C228.742 62.5858 231.695 65.5394 235.326 65.5394C238.956 65.5394 241.909 62.5858 241.909 58.9555C241.908 55.3252 238.955 52.3729 235.326 52.3729ZM162.529 33.8515C153.196 33.8515 145.602 26.2579 145.602 16.9248C145.602 7.5923 153.195 0 162.529 0C171.861 0 179.454 7.5923 179.454 16.9248C179.454 26.2585 171.861 33.8515 162.529 33.8515ZM162.529 10.3435C158.898 10.3435 155.945 13.2964 155.945 16.9254C155.945 20.5558 158.898 23.5093 162.529 23.5093C166.158 23.5093 169.111 20.5558 169.111 16.9254C169.111 13.2957 166.158 10.3435 162.529 10.3435Z" fill="black"/>
</svg>
