<svg width="156" height="154" viewBox="0 0 156 154" fill="none" xmlns="http://www.w3.org/2000/svg">
<path d="M86.9426 65.6628C74.3559 65.6628 70.6966 55.3221 70.5473 54.8874C70.3097 54.1728 69.5754 53.7322 68.8167 53.8513C68.058 53.9704 67.4974 54.6105 67.4974 55.3608V129.154C67.4974 134.814 72.2079 139.417 78 139.417C83.7921 139.417 88.5026 134.814 88.5026 129.154V67.1932C88.5026 66.3476 87.8048 65.6628 86.9426 65.6628ZM85.3765 129.154C85.3765 133.129 82.0676 136.362 78 136.362C73.9324 136.362 70.6235 133.129 70.6235 129.154V61.1431C70.9282 61.5242 71.2573 61.9112 71.6107 62.2983C74.1274 65.0257 78.5088 68.2413 85.3765 68.673V129.154ZM86.9426 65.6628C74.3559 65.6628 70.6966 55.3221 70.5473 54.8874C70.3097 54.1728 69.5754 53.7322 68.8167 53.8513C68.058 53.9704 67.4974 54.6105 67.4974 55.3608V129.154C67.4974 134.814 72.2079 139.417 78 139.417C83.7921 139.417 88.5026 134.814 88.5026 129.154V67.1932C88.5026 66.3476 87.8048 65.6628 86.9426 65.6628ZM85.3765 129.154C85.3765 133.129 82.0676 136.362 78 136.362C73.9324 136.362 70.6235 133.129 70.6235 129.154V61.1431C70.9282 61.5242 71.2573 61.9112 71.6107 62.2983C74.1274 65.0257 78.5088 68.2413 85.3765 68.673V129.154ZM86.9426 65.6628C74.3559 65.6628 70.6966 55.3221 70.5473 54.8874C70.3097 54.1728 69.5754 53.7322 68.8167 53.8513C68.058 53.9704 67.4974 54.6105 67.4974 55.3608V129.154C67.4974 134.814 72.2079 139.417 78 139.417C83.7921 139.417 88.5026 134.814 88.5026 129.154V67.1932C88.5026 66.3476 87.8048 65.6628 86.9426 65.6628ZM85.3765 129.154C85.3765 133.129 82.0676 136.362 78 136.362C73.9324 136.362 70.6235 133.129 70.6235 129.154V61.1431C70.9282 61.5242 71.2573 61.9112 71.6107 62.2983C74.1274 65.0257 78.5088 68.2413 85.3765 68.673V129.154ZM86.9426 65.6628C74.3559 65.6628 70.6966 55.3221 70.5473 54.8874C70.3097 54.1728 69.5754 53.7322 68.8167 53.8513C68.058 53.9704 67.4974 54.6105 67.4974 55.3608V129.154C67.4974 134.814 72.2079 139.417 78 139.417C83.7921 139.417 88.5026 134.814 88.5026 129.154V67.1932C88.5026 66.3476 87.8048 65.6628 86.9426 65.6628ZM85.3765 129.154C85.3765 133.129 82.0676 136.362 78 136.362C73.9324 136.362 70.6235 133.129 70.6235 129.154V61.1431C70.9282 61.5242 71.2573 61.9112 71.6107 62.2983C74.1274 65.0257 78.5088 68.2413 85.3765 68.673V129.154ZM97.7864 5.20264H58.2136C54.9443 5.20264 52.2844 7.80195 52.2844 10.9968V11.8989C52.2844 15.0937 54.9443 17.6931 58.2136 17.6931H59.8894V129.449C59.8894 140.004 68.0154 148.591 77.9969 148.591C87.9785 148.591 96.1045 140.004 96.1045 129.449V17.6931H97.7803C101.05 17.6931 103.71 15.0937 103.71 11.8989V10.9968C103.716 7.80195 101.056 5.20264 97.7864 5.20264ZM92.9815 129.449C92.9815 138.319 86.2601 145.536 78 145.536C69.7399 145.536 63.0185 138.319 63.0185 129.449V42.5876H71.7691C72.6314 42.5876 73.3352 41.9057 73.3352 41.0571C73.3352 40.2145 72.6344 39.5297 71.7691 39.5297H63.0185V34.2388H71.7691C72.6314 34.2388 73.3352 33.554 73.3352 32.7113C73.3352 31.8657 72.6344 31.1809 71.7691 31.1809H63.0185V26.8279H71.7691C72.6314 26.8279 73.3352 26.1461 73.3352 25.3005C73.3352 24.4549 72.6344 23.773 71.7691 23.773H63.0185V17.6931H92.9845V129.449H92.9815ZM100.59 11.8989C100.59 13.4085 99.3342 14.6382 97.7864 14.6382H58.2136C56.6658 14.6382 55.4105 13.4085 55.4105 11.8989V10.9968C55.4105 9.48719 56.6658 8.2575 58.2136 8.2575H97.7833C99.3312 8.2575 100.586 9.48719 100.586 10.9968V11.8989H100.59ZM68.8137 53.8513C68.055 53.9704 67.4944 54.6105 67.4944 55.3608V129.154C67.4944 134.814 72.2048 139.417 77.9969 139.417C83.7891 139.417 88.4995 134.814 88.4995 129.154V67.1932C88.4995 66.3476 87.8018 65.6628 86.9365 65.6628C74.3498 65.6628 70.6905 55.3221 70.5412 54.8874C70.3066 54.1728 69.5754 53.7351 68.8137 53.8513ZM70.6235 61.1431C70.9282 61.5242 71.2573 61.9112 71.6107 62.2983C74.1274 65.0257 78.5088 68.2413 85.3765 68.673V129.157C85.3765 133.132 82.0676 136.365 78 136.365C73.9324 136.365 70.6235 133.132 70.6235 129.157V61.1431ZM86.9426 65.6628C74.3559 65.6628 70.6966 55.3221 70.5473 54.8874C70.3097 54.1728 69.5754 53.7322 68.8167 53.8513C68.058 53.9704 67.4974 54.6105 67.4974 55.3608V129.154C67.4974 134.814 72.2079 139.417 78 139.417C83.7921 139.417 88.5026 134.814 88.5026 129.154V67.1932C88.5026 66.3476 87.8048 65.6628 86.9426 65.6628ZM85.3765 129.154C85.3765 133.129 82.0676 136.362 78 136.362C73.9324 136.362 70.6235 133.129 70.6235 129.154V61.1431C70.9282 61.5242 71.2573 61.9112 71.6107 62.2983C74.1274 65.0257 78.5088 68.2413 85.3765 68.673V129.154ZM86.9426 65.6628C74.3559 65.6628 70.6966 55.3221 70.5473 54.8874C70.3097 54.1728 69.5754 53.7322 68.8167 53.8513C68.058 53.9704 67.4974 54.6105 67.4974 55.3608V129.154C67.4974 134.814 72.2079 139.417 78 139.417C83.7921 139.417 88.5026 134.814 88.5026 129.154V67.1932C88.5026 66.3476 87.8048 65.6628 86.9426 65.6628ZM85.3765 129.154C85.3765 133.129 82.0676 136.362 78 136.362C73.9324 136.362 70.6235 133.129 70.6235 129.154V61.1431C70.9282 61.5242 71.2573 61.9112 71.6107 62.2983C74.1274 65.0257 78.5088 68.2413 85.3765 68.673V129.154Z" fill="#231F20"/>
<path d="M100.59 10.9968V11.8989C100.59 13.4085 99.3342 14.6382 97.7864 14.6382H58.2136C56.6658 14.6382 55.4105 13.4085 55.4105 11.8989V10.9968C55.4105 9.4872 56.6658 8.25751 58.2136 8.25751H97.7834C99.3342 8.25751 100.59 9.4872 100.59 10.9968ZM68.8137 53.8513C69.5723 53.7322 70.3066 54.1728 70.5443 54.8874C70.6723 55.2655 73.4358 63.0754 82.357 65.1567V17.6931H63.0155V23.776H71.7661C72.6284 23.776 73.3322 24.4608 73.3322 25.3034C73.3322 26.146 72.6314 26.8309 71.7661 26.8309H63.0155V31.1899H71.7661C72.6284 31.1899 73.3322 31.8717 73.3322 32.7203C73.3322 33.5629 72.6314 34.2477 71.7661 34.2477H63.0155V39.5386H71.7661C72.6284 39.5386 73.3322 40.2235 73.3322 41.0661C73.3322 41.9117 72.6314 42.5965 71.7661 42.5965H63.0155V129.449C63.0155 138.319 69.7369 145.536 77.997 145.536C78.7373 145.536 79.4625 145.476 80.1694 145.369C80.9585 143.237 81.5222 140.963 81.9244 138.673C80.7117 139.158 79.3863 139.42 77.997 139.42C72.2048 139.42 67.4944 134.817 67.4944 129.157V55.3608C67.4974 54.6105 68.055 53.9704 68.8137 53.8513Z" fill="#DFF6FD"/>
<path d="M85.3765 68.673V129.157C85.3765 133.132 82.0676 136.365 78 136.365C73.9324 136.365 70.6235 133.132 70.6235 129.157V61.143C70.9282 61.5241 71.2573 61.9112 71.6107 62.2983C74.0421 64.9303 78.2103 68.0209 84.6757 68.6194C84.9073 68.6373 85.1419 68.6581 85.3765 68.673Z" fill="#00AEEF"/>
<path d="M85.3765 68.673V129.157C85.3765 133.132 82.0676 136.365 78 136.365C73.9324 136.365 70.6235 133.132 70.6235 129.157V98.4118C79.2858 88.3391 83.1492 76.5216 84.6788 68.6165C84.9073 68.6373 85.1419 68.6581 85.3765 68.673Z" fill="#029ECE"/>
<path d="M92.9815 17.6931V129.449C92.9815 137.527 87.4088 144.232 80.1724 145.366C80.9616 143.234 81.5252 140.96 81.9274 138.67C85.7817 137.149 88.5056 133.459 88.5056 129.154V67.1932C88.5056 66.3476 87.8079 65.6628 86.9426 65.6628C85.2607 65.6628 83.7342 65.4782 82.3601 65.1567V17.6931H92.9815ZM100.59 10.9968V11.8989C100.59 13.4085 99.3342 14.6382 97.7864 14.6382H82.3601V8.25751H97.7864C99.3342 8.25751 100.59 9.4872 100.59 10.9968Z" fill="#C8EFFE"/>
</svg>
