<svg width="61" height="62" viewBox="0 0 61 62" fill="none" xmlns="http://www.w3.org/2000/svg">
<path d="M35.2656 6.85263V30.8553C35.2656 32.1285 35.7677 33.3495 36.6614 34.2498C37.5552 35.1501 38.7673 35.6559 40.0312 35.6559C41.2952 35.6559 42.5073 35.1501 43.4011 34.2498C44.2948 33.3495 44.7969 32.1285 44.7969 30.8553V6.85263H35.2656Z" fill="#E8EBED"/>
<path d="M29.5469 16.4537H53.375V13.6252C53.3771 13.1105 53.1786 12.6155 52.8221 12.2466C52.4656 11.8778 51.9796 11.6647 51.4688 11.6532H31.4531C30.9423 11.6647 30.4563 11.8778 30.0998 12.2466C29.7433 12.6155 29.5448 13.1105 29.5469 13.6252V16.4537Z" fill="#B5B4AC"/>
<path d="M51.4688 11.6532H31.4531C30.9508 11.6635 30.4718 11.8691 30.1165 12.227C29.7612 12.5849 29.5571 13.0673 29.5469 13.5734H49.5625C50.0733 13.5852 50.5591 13.7984 50.9156 14.1671C51.272 14.5359 51.4706 15.0308 51.4688 15.5454V16.4537H53.375V13.6252C53.3769 13.1106 53.1783 12.6157 52.8218 12.2469C52.4654 11.8782 51.9796 11.665 51.4688 11.6532Z" fill="#CECECC"/>
<path d="M12.3954 51.0176C11.7456 51.0175 11.1065 50.8501 10.539 50.5312C9.97148 50.2124 9.49427 49.7527 9.15269 49.1959C8.81111 48.639 8.6165 48.0034 8.58734 47.3495C8.55817 46.6956 8.69543 46.045 8.98606 45.4595L18.1094 18.3739V6.85263H25.7344V18.3739L35.8118 45.4595C36.1024 46.0451 36.2397 46.6957 36.2105 47.3497C36.1813 48.0037 35.9866 48.6394 35.6449 49.1963C35.3032 49.7532 34.8259 50.2128 34.2582 50.5316C33.6905 50.8503 33.0514 51.0176 32.4015 51.0176H12.3954Z" fill="#E8EBED"/>
<path d="M44.7969 3.01218H35.2656C34.2128 3.01218 33.3594 3.87189 33.3594 4.93239C33.3594 5.9929 34.2128 6.85261 35.2656 6.85261H44.7969C45.8497 6.85261 46.7031 5.9929 46.7031 4.93239C46.7031 3.87189 45.8497 3.01218 44.7969 3.01218Z" fill="#D0D9DD"/>
<path d="M53.375 16.4537H48.6094V51.0176H53.375V16.4537Z" fill="#7C7C79"/>
<path d="M31.6847 39.3801C30.4406 40.0065 29.0623 40.3138 27.672 40.275C26.2817 40.2361 24.9224 39.8522 23.7147 39.1574C21.9446 38.1364 19.8675 37.7954 17.8673 38.1973L11.0152 39.4963H10.9943L8.98509 45.4595C8.69441 46.0451 8.55716 46.6957 8.58637 47.3497C8.61558 48.0037 8.81027 48.6394 9.15196 49.1963C9.49366 49.7531 9.971 50.2128 10.5387 50.5316C11.1063 50.8503 11.7455 51.0176 12.3954 51.0176H32.4015C33.0514 51.0176 33.6905 50.8503 34.2582 50.5316C34.8258 50.2128 35.3032 49.7531 35.6449 49.1963C35.9866 48.6394 36.1812 48.0037 36.2105 47.3497C36.2397 46.6957 36.1024 46.0451 35.8117 45.4595L33.2555 38.589L31.6847 39.3801Z" fill="#A47FCF"/>
<path d="M32.6483 49.0973H12.6432C11.7152 49.0965 10.8193 48.7547 10.1236 48.1361C9.42788 47.5175 8.98004 46.6644 8.86404 45.737C8.63017 46.3193 8.5417 46.9506 8.60637 47.5754C8.67105 48.2002 8.8869 48.7995 9.235 49.3208C9.5831 49.842 10.0528 50.2693 10.603 50.5651C11.1532 50.8609 11.767 51.0163 12.3906 51.0176H32.3967C32.9366 51.0171 33.4702 50.901 33.9622 50.6772C34.4542 50.4534 34.8935 50.1269 35.2508 49.7193C35.6082 49.3116 35.8755 48.8322 36.0351 48.3127C36.1948 47.7932 36.2431 47.2454 36.1768 46.7057C35.8934 47.414 35.4058 48.0205 34.7768 48.4468C34.1478 48.8731 33.4064 49.0997 32.6483 49.0973Z" fill="#8969B7"/>
<path d="M40.6298 24.2162C40.1584 23.8997 39.6123 23.7144 39.0469 23.679C38.4815 23.6436 37.9168 23.7593 37.4102 24.0145L35.2656 25.0947V30.8553C35.2656 32.1285 35.7677 33.3495 36.6614 34.2498C37.5552 35.1501 38.7673 35.6558 40.0312 35.6558C41.2952 35.6558 42.5073 35.1501 43.4011 34.2498C44.2948 33.3495 44.7969 32.1285 44.7969 30.8553V24.1345L43.4282 24.5944C42.9639 24.7501 42.4705 24.797 41.9856 24.7314C41.5006 24.6659 41.0369 24.4896 40.6298 24.2162Z" fill="#ADC5F8"/>
<path d="M43.4282 24.5944C42.9639 24.7501 42.4705 24.797 41.9856 24.7314C41.5006 24.6659 41.0369 24.4896 40.6298 24.2162C40.1584 23.8997 39.6123 23.7144 39.0469 23.679C38.4815 23.6436 37.9168 23.7593 37.4102 24.0145L35.2656 25.0947V27.4767L37.4102 26.3966C37.9168 26.1414 38.4815 26.0256 39.0469 26.061C39.6123 26.0964 40.1584 26.2817 40.6298 26.5982C41.0369 26.8718 41.5006 27.048 41.9856 27.1134C42.4706 27.1788 42.964 27.1316 43.4282 26.9755L44.7969 26.5166V24.1345L43.4282 24.5944Z" fill="#8AAAE9"/>
<path d="M7.625 54.858C7.625 53.8395 8.02667 52.8626 8.74166 52.1424C9.45664 51.4222 10.4264 51.0176 11.4375 51.0176H53.375V54.858H7.625Z" fill="#CECECC"/>
<path d="M1.90625 54.858H59.0938V57.7383C59.0938 58.2476 58.8929 58.736 58.5354 59.0961C58.1779 59.4562 57.6931 59.6585 57.1875 59.6585H3.8125C3.30693 59.6585 2.82207 59.4562 2.46458 59.0961C2.10709 58.736 1.90625 58.2476 1.90625 57.7383V54.858Z" fill="#7C7C79"/>
<path d="M26.2109 2.05209H17.6328C16.3168 2.05209 15.25 3.12673 15.25 4.45236C15.25 5.77799 16.3168 6.85263 17.6328 6.85263H26.2109C27.5269 6.85263 28.5938 5.77799 28.5938 4.45236C28.5938 3.12673 27.5269 2.05209 26.2109 2.05209Z" fill="#D0D9DD"/>
<path d="M35.2656 6.85262H44.7969C45.3024 6.85262 45.7873 6.65031 46.1448 6.2902C46.5023 5.93009 46.7031 5.44168 46.7031 4.9324H33.3594C33.3594 5.44168 33.5602 5.93009 33.9177 6.2902C34.2752 6.65031 34.7601 6.85262 35.2656 6.85262Z" fill="#BCC9CE"/>
<path d="M7.625 54.858H53.375V52.9378H8.15398C7.81109 53.519 7.62848 54.1819 7.625 54.858Z" fill="#B5B4AC"/>
<path d="M28.4984 4.9324H15.25C15.3599 5.47456 15.6523 5.96183 16.0778 6.31175C16.5034 6.66166 17.0358 6.85273 17.5852 6.85262H26.1633C26.7126 6.85273 27.2451 6.66166 27.6706 6.31175C28.0961 5.96183 28.3886 5.47456 28.4984 4.9324Z" fill="#BCC9CE"/>
<path d="M59.0938 53.8979H54.3281V13.6252C54.334 12.8547 54.0362 12.1134 53.5002 11.5637C52.9642 11.014 52.2336 10.7009 51.4688 10.6931H45.75V7.81274C46.5084 7.81274 47.2356 7.50928 47.7719 6.96911C48.3081 6.42895 48.6094 5.69633 48.6094 4.93242C48.6094 4.16851 48.3081 3.43589 47.7719 2.89572C47.2356 2.35556 46.5084 2.05209 45.75 2.05209H35.2656C34.5919 2.05081 33.9395 2.28974 33.424 2.72657C32.9084 3.1634 32.5629 3.76993 32.4488 4.43875C32.3346 5.10757 32.4591 5.7955 32.8002 6.38071C33.1414 6.96591 33.6771 7.41063 34.3125 7.63608V10.6931H31.4531C30.6883 10.7009 29.9577 11.014 29.4217 11.5637C28.8856 12.1134 28.5879 12.8547 28.5938 13.6252V16.4537C28.5938 16.7083 28.6942 16.9526 28.8729 17.1326C29.0517 17.3127 29.2941 17.4138 29.5469 17.4138H34.3125V30.8553C34.3125 32.3831 34.915 33.8484 35.9875 34.9287C37.06 36.009 38.5145 36.616 40.0312 36.616C41.548 36.616 43.0025 36.009 44.075 34.9287C45.1475 33.8484 45.75 32.3831 45.75 30.8553V17.4138H47.6562V50.0575H36.2045C36.2902 49.9413 36.3779 49.8261 36.4551 49.7013C36.8804 49.0138 37.1248 48.2285 37.1653 47.4195C37.2059 46.6106 37.0411 45.8045 36.6867 45.0774L26.6875 18.1992V7.76377C27.5216 7.64393 28.2795 7.20991 28.8083 6.54928C29.3372 5.88864 29.5977 5.05055 29.5372 4.20406C29.4768 3.35757 29.0999 2.56568 28.4825 1.98812C27.8652 1.41056 27.0534 1.09031 26.2109 1.09199H17.6328C16.7903 1.09031 15.9785 1.41056 15.3612 1.98812C14.7439 2.56568 14.367 3.35757 14.3065 4.20406C14.2461 5.05055 14.5065 5.88864 15.0354 6.54928C15.5643 7.20991 16.3222 7.64393 17.1562 7.76377V18.2155L8.10156 45.0918C7.75097 45.8175 7.58892 46.621 7.6306 47.427C7.67227 48.233 7.9163 49.0152 8.33984 49.7003C8.5612 50.0603 8.82845 50.3896 9.13475 50.6796C8.53334 51.0127 8.01044 51.4727 7.60182 52.0281C7.1932 52.5836 6.9085 53.2214 6.76719 53.8979H1.90625C1.65347 53.8979 1.41103 53.9991 1.23229 54.1791C1.05354 54.3592 0.953125 54.6034 0.953125 54.858V57.7383C0.953125 58.5022 1.25438 59.2349 1.79062 59.775C2.32685 60.3152 3.05415 60.6187 3.8125 60.6187H57.1875C57.9459 60.6187 58.6731 60.3152 59.2094 59.775C59.7456 59.2349 60.0469 58.5022 60.0469 57.7383V54.858C60.0469 54.6034 59.9465 54.3592 59.7677 54.1791C59.589 53.9991 59.3465 53.8979 59.0938 53.8979ZM35.2656 3.97231H45.75C46.0028 3.97231 46.2452 4.07346 46.424 4.25352C46.6027 4.43357 46.7031 4.67778 46.7031 4.93242C46.7031 5.18705 46.6027 5.43126 46.424 5.61132C46.2452 5.79137 46.0028 5.89252 45.75 5.89252H35.2656C35.0128 5.89252 34.7704 5.79137 34.5917 5.61132C34.4129 5.43126 34.3125 5.18705 34.3125 4.93242C34.3125 4.67778 34.4129 4.43357 34.5917 4.25352C34.7704 4.07346 35.0128 3.97231 35.2656 3.97231ZM43.8438 7.81274V10.6931H36.2188V7.81274H43.8438ZM43.8438 30.8553C43.8438 31.8739 43.4421 32.8507 42.7271 33.5709C42.0121 34.2911 41.0424 34.6958 40.0312 34.6958C39.0201 34.6958 38.0504 34.2911 37.3354 33.5709C36.6204 32.8507 36.2188 31.8739 36.2188 30.8553V25.688L37.8391 24.8739C38.1955 24.6946 38.5926 24.6132 38.9902 24.638C39.3878 24.6628 39.7719 24.7928 40.1037 25.015C40.6309 25.3715 41.2324 25.6011 41.8618 25.686C42.4911 25.7709 43.1314 25.7088 43.7332 25.5046L43.8466 25.4662L43.8438 30.8553ZM43.8438 23.4433L43.127 23.6833C42.8007 23.794 42.4534 23.8276 42.1121 23.7815C41.7708 23.7354 41.4446 23.6108 41.1588 23.4174C40.5472 23.0079 39.8393 22.7681 39.1064 22.7221C38.3734 22.6761 37.6414 22.8255 36.9841 23.1553L36.2216 23.5393V17.4138H43.8466L43.8438 23.4433ZM30.5 15.4936V13.6252C30.4966 13.3647 30.5943 13.1131 30.7723 12.9241C30.9504 12.735 31.1947 12.6235 31.4531 12.6133H51.4688C51.7272 12.6235 51.9715 12.735 52.1495 12.9241C52.3276 13.1131 52.4253 13.3647 52.4219 13.6252V15.4936H30.5ZM52.4219 17.4138V50.0575H49.5625V17.4138H52.4219ZM16.2031 4.45236C16.2031 4.07041 16.3538 3.7041 16.6219 3.43402C16.89 3.16393 17.2536 3.0122 17.6328 3.0122H26.2109C26.5901 3.0122 26.9538 3.16393 27.2219 3.43402C27.49 3.7041 27.6406 4.07041 27.6406 4.45236C27.6406 4.83432 27.49 5.20063 27.2219 5.47071C26.9538 5.74079 26.5901 5.89252 26.2109 5.89252H17.6328C17.2536 5.89252 16.89 5.74079 16.6219 5.47071C16.3538 5.20063 16.2031 4.83432 16.2031 4.45236ZM19.012 18.6821C19.0454 18.5829 19.0625 18.4787 19.0625 18.3739V7.81274H24.7812V18.3739C24.7811 18.489 24.8014 18.6031 24.8413 18.7109L32.0612 38.1166L31.2587 38.5208C30.1554 39.0778 28.9325 39.3512 27.6989 39.3166C26.4653 39.2821 25.2593 38.9408 24.1884 38.323C22.2214 37.1902 19.9141 36.8117 17.6919 37.2573L12.4202 38.2539L19.012 18.6821ZM9.83816 45.8887C9.85774 45.8496 9.87462 45.8092 9.88867 45.7677L11.7168 40.3393L18.0541 39.142C19.8287 38.786 21.6713 39.0874 23.2429 39.9907C24.5856 40.7651 26.0975 41.1929 27.6441 41.2361C29.1906 41.2794 30.7238 40.9366 32.107 40.2385L32.7303 39.9245L34.9149 45.7965C34.9261 45.8294 34.9395 45.8614 34.9549 45.8925C35.1719 46.3312 35.2742 46.8184 35.2521 47.3081C35.23 47.7977 35.0842 48.2736 34.8285 48.6906C34.5728 49.1076 34.2158 49.452 33.791 49.6912C33.3663 49.9304 32.8881 50.0565 32.4015 50.0575H12.3954C11.908 50.0575 11.4286 49.9319 11.0029 49.6928C10.5772 49.4537 10.2193 49.1089 9.96303 48.6912C9.70681 48.2735 9.56084 47.7968 9.53899 47.3063C9.51713 46.8158 9.62012 46.3278 9.83816 45.8887ZM11.4375 51.9777H52.4219V53.8979H8.7535C8.94992 53.3382 9.3132 52.8534 9.79365 52.5097C10.2741 52.166 10.8482 51.9801 11.4375 51.9777ZM58.1406 57.7383C58.1406 57.993 58.0402 58.2372 57.8615 58.4172C57.6827 58.5973 57.4403 58.6984 57.1875 58.6984H3.8125C3.55972 58.6984 3.31728 58.5973 3.13854 58.4172C2.95979 58.2372 2.85938 57.993 2.85938 57.7383V55.8181H58.1406V57.7383Z" fill="black"/>
</svg>
