<svg width="996" height="288" viewBox="0 0 996 288" fill="none" xmlns="http://www.w3.org/2000/svg">
<path d="M73.76 31.8V45H72.16V31.8H73.76ZM81.2022 45.2C80.2289 45.2 79.3289 44.9933 78.5022 44.58C77.6889 44.1667 77.0622 43.58 76.6222 42.82L77.9822 41.84C78.2755 42.4533 78.7022 42.9333 79.2622 43.28C79.8355 43.6267 80.5222 43.8 81.3222 43.8C82.0289 43.8 82.5822 43.6667 82.9822 43.4C83.3822 43.12 83.5822 42.76 83.5822 42.32C83.5822 42.04 83.4889 41.7867 83.3022 41.56C83.1289 41.32 82.7889 41.1467 82.2822 41.04L79.8822 40.54C78.9089 40.34 78.2089 40.0067 77.7822 39.54C77.3689 39.0733 77.1622 38.4933 77.1622 37.8C77.1622 37.2533 77.3155 36.7533 77.6222 36.3C77.9422 35.8467 78.3889 35.4867 78.9622 35.22C79.5489 34.94 80.2355 34.8 81.0222 34.8C82.0089 34.8 82.8422 34.9933 83.5222 35.38C84.2022 35.7667 84.7089 36.3133 85.0422 37.02L83.7022 37.9C83.4755 37.3133 83.1089 36.8867 82.6022 36.62C82.0955 36.34 81.5689 36.2 81.0222 36.2C80.5422 36.2 80.1289 36.2667 79.7822 36.4C79.4489 36.5333 79.1889 36.72 79.0022 36.96C78.8289 37.1867 78.7422 37.4467 78.7422 37.74C78.7422 38.0333 78.8422 38.3067 79.0422 38.56C79.2422 38.8 79.6155 38.9733 80.1622 39.08L82.6622 39.6C83.5955 39.7867 84.2489 40.0933 84.6222 40.52C84.9955 40.9467 85.1822 41.4667 85.1822 42.08C85.1822 42.7067 85.0155 43.26 84.6822 43.74C84.3489 44.2067 83.8822 44.5667 83.2822 44.82C82.6822 45.0733 81.9889 45.2 81.2022 45.2ZM92.2891 34.8C93.2357 34.8 94.0691 35.0067 94.7891 35.42C95.5224 35.8333 96.0957 36.4333 96.5091 37.22C96.9224 37.9933 97.1291 38.92 97.1291 40C97.1291 41.08 96.9224 42.0133 96.5091 42.8C96.0957 43.5733 95.5224 44.1667 94.7891 44.58C94.0691 44.9933 93.2357 45.2 92.2891 45.2C91.3557 45.2 90.5224 44.9933 89.7891 44.58C89.0557 44.1667 88.4824 43.5733 88.0691 42.8C87.6557 42.0133 87.4491 41.08 87.4491 40C87.4491 38.92 87.6557 37.9933 88.0691 37.22C88.4824 36.4333 89.0557 35.8333 89.7891 35.42C90.5224 35.0067 91.3557 34.8 92.2891 34.8ZM92.2891 36.18C91.6091 36.18 91.0291 36.3333 90.5491 36.64C90.0691 36.9467 89.6957 37.3867 89.4291 37.96C89.1757 38.52 89.0491 39.2 89.0491 40C89.0491 40.7867 89.1757 41.4667 89.4291 42.04C89.6957 42.6133 90.0691 43.0533 90.5491 43.36C91.0291 43.6667 91.6091 43.82 92.2891 43.82C92.9691 43.82 93.5491 43.6667 94.0291 43.36C94.5091 43.0533 94.8757 42.6133 95.1291 42.04C95.3957 41.4667 95.5291 40.7867 95.5291 40C95.5291 39.2 95.3957 38.52 95.1291 37.96C94.8757 37.3867 94.5091 36.9467 94.0291 36.64C93.5491 36.3333 92.9691 36.18 92.2891 36.18ZM102.325 32.16V42.24C102.325 42.7333 102.465 43.1 102.745 43.34C103.025 43.58 103.385 43.7 103.825 43.7C104.212 43.7 104.545 43.6333 104.825 43.5C105.105 43.3667 105.359 43.1867 105.585 42.96L106.145 44.3C105.839 44.58 105.472 44.8 105.045 44.96C104.632 45.12 104.152 45.2 103.605 45.2C103.099 45.2 102.625 45.1133 102.185 44.94C101.745 44.7533 101.392 44.4667 101.125 44.08C100.872 43.68 100.739 43.16 100.725 42.52V32.6L102.325 32.16ZM105.965 35V36.38H98.7255V35H105.965ZM112.484 34.8C113.431 34.8 114.264 35.0067 114.984 35.42C115.718 35.8333 116.291 36.4333 116.704 37.22C117.118 37.9933 117.324 38.92 117.324 40C117.324 41.08 117.118 42.0133 116.704 42.8C116.291 43.5733 115.718 44.1667 114.984 44.58C114.264 44.9933 113.431 45.2 112.484 45.2C111.551 45.2 110.718 44.9933 109.984 44.58C109.251 44.1667 108.678 43.5733 108.264 42.8C107.851 42.0133 107.644 41.08 107.644 40C107.644 38.92 107.851 37.9933 108.264 37.22C108.678 36.4333 109.251 35.8333 109.984 35.42C110.718 35.0067 111.551 34.8 112.484 34.8ZM112.484 36.18C111.804 36.18 111.224 36.3333 110.744 36.64C110.264 36.9467 109.891 37.3867 109.624 37.96C109.371 38.52 109.244 39.2 109.244 40C109.244 40.7867 109.371 41.4667 109.624 42.04C109.891 42.6133 110.264 43.0533 110.744 43.36C111.224 43.6667 111.804 43.82 112.484 43.82C113.164 43.82 113.744 43.6667 114.224 43.36C114.704 43.0533 115.071 42.6133 115.324 42.04C115.591 41.4667 115.724 40.7867 115.724 40C115.724 39.2 115.591 38.52 115.324 37.96C115.071 37.3867 114.704 36.9467 114.224 36.64C113.744 36.3333 113.164 36.18 112.484 36.18ZM120.337 49.2V35H121.737L121.877 37.44L121.657 37.16C121.83 36.6933 122.09 36.2867 122.437 35.94C122.783 35.58 123.203 35.3 123.697 35.1C124.19 34.9 124.723 34.8 125.297 34.8C126.11 34.8 126.857 35.0067 127.537 35.42C128.23 35.8333 128.783 36.4267 129.197 37.2C129.61 37.9733 129.817 38.9067 129.817 40C129.817 41.08 129.603 42.0133 129.177 42.8C128.763 43.5733 128.21 44.1667 127.517 44.58C126.823 44.9933 126.063 45.2 125.237 45.2C124.41 45.2 123.683 45 123.057 44.6C122.443 44.1867 122.003 43.6667 121.737 43.04L121.937 42.74V49.2H120.337ZM125.077 43.8C126.063 43.8 126.83 43.4533 127.377 42.76C127.937 42.0667 128.217 41.1467 128.217 40C128.217 38.8533 127.943 37.9333 127.397 37.24C126.863 36.5467 126.11 36.2 125.137 36.2C124.497 36.2 123.937 36.36 123.457 36.68C122.977 36.9867 122.603 37.4267 122.337 38C122.07 38.56 121.937 39.2267 121.937 40C121.937 40.76 122.063 41.4267 122.317 42C122.583 42.5733 122.95 43.02 123.417 43.34C123.897 43.6467 124.45 43.8 125.077 43.8ZM137.056 45.2C136.109 45.2 135.262 44.9933 134.516 44.58C133.782 44.1667 133.209 43.5733 132.796 42.8C132.382 42.0133 132.176 41.08 132.176 40C132.176 38.92 132.382 37.9933 132.796 37.22C133.209 36.4333 133.776 35.8333 134.496 35.42C135.216 35.0067 136.036 34.8 136.956 34.8C137.889 34.8 138.682 35 139.336 35.4C140.002 35.8 140.509 36.3467 140.856 37.04C141.202 37.72 141.376 38.4867 141.376 39.34C141.376 39.5667 141.369 39.7733 141.356 39.96C141.342 40.1467 141.322 40.3133 141.296 40.46H133.216V39.04H140.596L139.776 39.2C139.776 38.24 139.509 37.5 138.976 36.98C138.456 36.46 137.769 36.2 136.916 36.2C136.262 36.2 135.696 36.3533 135.216 36.66C134.749 36.9533 134.382 37.3867 134.116 37.96C133.862 38.52 133.736 39.2 133.736 40C133.736 40.7867 133.869 41.4667 134.136 42.04C134.402 42.6133 134.776 43.0533 135.256 43.36C135.749 43.6533 136.336 43.8 137.016 43.8C137.749 43.8 138.342 43.66 138.796 43.38C139.262 43.1 139.636 42.72 139.916 42.24L141.176 42.98C140.922 43.4333 140.596 43.8267 140.196 44.16C139.809 44.4933 139.349 44.7533 138.816 44.94C138.296 45.1133 137.709 45.2 137.056 45.2ZM148.019 45.2C147.045 45.2 146.145 44.9933 145.319 44.58C144.505 44.1667 143.879 43.58 143.439 42.82L144.799 41.84C145.092 42.4533 145.519 42.9333 146.079 43.28C146.652 43.6267 147.339 43.8 148.139 43.8C148.845 43.8 149.399 43.6667 149.799 43.4C150.199 43.12 150.399 42.76 150.399 42.32C150.399 42.04 150.305 41.7867 150.119 41.56C149.945 41.32 149.605 41.1467 149.099 41.04L146.699 40.54C145.725 40.34 145.025 40.0067 144.599 39.54C144.185 39.0733 143.979 38.4933 143.979 37.8C143.979 37.2533 144.132 36.7533 144.439 36.3C144.759 35.8467 145.205 35.4867 145.779 35.22C146.365 34.94 147.052 34.8 147.839 34.8C148.825 34.8 149.659 34.9933 150.339 35.38C151.019 35.7667 151.525 36.3133 151.859 37.02L150.519 37.9C150.292 37.3133 149.925 36.8867 149.419 36.62C148.912 36.34 148.385 36.2 147.839 36.2C147.359 36.2 146.945 36.2667 146.599 36.4C146.265 36.5333 146.005 36.72 145.819 36.96C145.645 37.1867 145.559 37.4467 145.559 37.74C145.559 38.0333 145.659 38.3067 145.859 38.56C146.059 38.8 146.432 38.9733 146.979 39.08L149.479 39.6C150.412 39.7867 151.065 40.0933 151.439 40.52C151.812 40.9467 151.999 41.4667 151.999 42.08C151.999 42.7067 151.832 43.26 151.499 43.74C151.165 44.2067 150.699 44.5667 150.099 44.82C149.499 45.0733 148.805 45.2 148.019 45.2Z" fill="white"/>
<path d="M323.82 31.8C324.713 31.8 325.487 31.9667 326.14 32.3C326.807 32.62 327.327 33.08 327.7 33.68C328.073 34.28 328.26 34.9933 328.26 35.82C328.26 36.6467 328.073 37.36 327.7 37.96C327.327 38.56 326.807 39.0267 326.14 39.36C325.487 39.68 324.713 39.84 323.82 39.84H320.76V45H319.16V31.8H323.82ZM323.58 38.34C324.62 38.34 325.38 38.1267 325.86 37.7C326.34 37.26 326.58 36.6333 326.58 35.82C326.58 34.9933 326.34 34.3667 325.86 33.94C325.38 33.5133 324.62 33.3 323.58 33.3H320.76V38.34H323.58ZM331.067 45V35H332.367L332.587 36.64C332.867 36.0267 333.274 35.5667 333.807 35.26C334.354 34.9533 335.014 34.8 335.787 34.8C335.96 34.8 336.147 34.8133 336.347 34.84C336.56 34.8667 336.74 34.92 336.887 35L336.607 36.46C336.46 36.4067 336.3 36.3667 336.127 36.34C335.954 36.3133 335.707 36.3 335.387 36.3C334.974 36.3 334.554 36.42 334.127 36.66C333.714 36.9 333.367 37.2667 333.087 37.76C332.807 38.24 332.667 38.8533 332.667 39.6V45H331.067ZM343.059 34.8C344.005 34.8 344.839 35.0067 345.559 35.42C346.292 35.8333 346.865 36.4333 347.279 37.22C347.692 37.9933 347.899 38.92 347.899 40C347.899 41.08 347.692 42.0133 347.279 42.8C346.865 43.5733 346.292 44.1667 345.559 44.58C344.839 44.9933 344.005 45.2 343.059 45.2C342.125 45.2 341.292 44.9933 340.559 44.58C339.825 44.1667 339.252 43.5733 338.839 42.8C338.425 42.0133 338.219 41.08 338.219 40C338.219 38.92 338.425 37.9933 338.839 37.22C339.252 36.4333 339.825 35.8333 340.559 35.42C341.292 35.0067 342.125 34.8 343.059 34.8ZM343.059 36.18C342.379 36.18 341.799 36.3333 341.319 36.64C340.839 36.9467 340.465 37.3867 340.199 37.96C339.945 38.52 339.819 39.2 339.819 40C339.819 40.7867 339.945 41.4667 340.199 42.04C340.465 42.6133 340.839 43.0533 341.319 43.36C341.799 43.6667 342.379 43.82 343.059 43.82C343.739 43.82 344.319 43.6667 344.799 43.36C345.279 43.0533 345.645 42.6133 345.899 42.04C346.165 41.4667 346.299 40.7867 346.299 40C346.299 39.2 346.165 38.52 345.899 37.96C345.645 37.3867 345.279 36.9467 344.799 36.64C344.319 36.3333 343.739 36.18 343.059 36.18ZM353.095 32.16V42.24C353.095 42.7333 353.235 43.1 353.515 43.34C353.795 43.58 354.155 43.7 354.595 43.7C354.982 43.7 355.315 43.6333 355.595 43.5C355.875 43.3667 356.128 43.1867 356.355 42.96L356.915 44.3C356.608 44.58 356.242 44.8 355.815 44.96C355.402 45.12 354.922 45.2 354.375 45.2C353.868 45.2 353.395 45.1133 352.955 44.94C352.515 44.7533 352.162 44.4667 351.895 44.08C351.642 43.68 351.508 43.16 351.495 42.52V32.6L353.095 32.16ZM356.735 35V36.38H349.495V35H356.735ZM363.254 34.8C364.201 34.8 365.034 35.0067 365.754 35.42C366.487 35.8333 367.061 36.4333 367.474 37.22C367.887 37.9933 368.094 38.92 368.094 40C368.094 41.08 367.887 42.0133 367.474 42.8C367.061 43.5733 366.487 44.1667 365.754 44.58C365.034 44.9933 364.201 45.2 363.254 45.2C362.321 45.2 361.487 44.9933 360.754 44.58C360.021 44.1667 359.447 43.5733 359.034 42.8C358.621 42.0133 358.414 41.08 358.414 40C358.414 38.92 358.621 37.9933 359.034 37.22C359.447 36.4333 360.021 35.8333 360.754 35.42C361.487 35.0067 362.321 34.8 363.254 34.8ZM363.254 36.18C362.574 36.18 361.994 36.3333 361.514 36.64C361.034 36.9467 360.661 37.3867 360.394 37.96C360.141 38.52 360.014 39.2 360.014 40C360.014 40.7867 360.141 41.4667 360.394 42.04C360.661 42.6133 361.034 43.0533 361.514 43.36C361.994 43.6667 362.574 43.82 363.254 43.82C363.934 43.82 364.514 43.6667 364.994 43.36C365.474 43.0533 365.841 42.6133 366.094 42.04C366.361 41.4667 366.494 40.7867 366.494 40C366.494 39.2 366.361 38.52 366.094 37.96C365.841 37.3867 365.474 36.9467 364.994 36.64C364.514 36.3333 363.934 36.18 363.254 36.18ZM371.106 45V35H372.506L372.646 37.24L372.386 37.02C372.599 36.4867 372.886 36.06 373.246 35.74C373.606 35.4067 374.019 35.1667 374.486 35.02C374.966 34.8733 375.459 34.8 375.966 34.8C376.686 34.8 377.339 34.94 377.926 35.22C378.513 35.4867 378.979 35.9 379.326 36.46C379.686 37.02 379.866 37.7333 379.866 38.6V45H378.266V39.16C378.266 38.0533 378.026 37.2867 377.546 36.86C377.079 36.42 376.499 36.2 375.806 36.2C375.326 36.2 374.846 36.3133 374.366 36.54C373.886 36.7667 373.486 37.1333 373.166 37.64C372.859 38.1467 372.706 38.8267 372.706 39.68V45H371.106ZM387.089 45.2C386.116 45.2 385.216 44.9933 384.389 44.58C383.576 44.1667 382.949 43.58 382.509 42.82L383.869 41.84C384.162 42.4533 384.589 42.9333 385.149 43.28C385.722 43.6267 386.409 43.8 387.209 43.8C387.916 43.8 388.469 43.6667 388.869 43.4C389.269 43.12 389.469 42.76 389.469 42.32C389.469 42.04 389.376 41.7867 389.189 41.56C389.016 41.32 388.676 41.1467 388.169 41.04L385.769 40.54C384.796 40.34 384.096 40.0067 383.669 39.54C383.256 39.0733 383.049 38.4933 383.049 37.8C383.049 37.2533 383.202 36.7533 383.509 36.3C383.829 35.8467 384.276 35.4867 384.849 35.22C385.436 34.94 386.122 34.8 386.909 34.8C387.896 34.8 388.729 34.9933 389.409 35.38C390.089 35.7667 390.596 36.3133 390.929 37.02L389.589 37.9C389.362 37.3133 388.996 36.8867 388.489 36.62C387.982 36.34 387.456 36.2 386.909 36.2C386.429 36.2 386.016 36.2667 385.669 36.4C385.336 36.5333 385.076 36.72 384.889 36.96C384.716 37.1867 384.629 37.4467 384.629 37.74C384.629 38.0333 384.729 38.3067 384.929 38.56C385.129 38.8 385.502 38.9733 386.049 39.08L388.549 39.6C389.482 39.7867 390.136 40.0933 390.509 40.52C390.882 40.9467 391.069 41.4667 391.069 42.08C391.069 42.7067 390.902 43.26 390.569 43.74C390.236 44.2067 389.769 44.5667 389.169 44.82C388.569 45.0733 387.876 45.2 387.089 45.2Z" fill="white"/>
<path d="M584.52 31.8V45H582.54L577.02 36.16L575.62 33.68H575.6L575.68 35.68V45H574.16V31.8H576.14L581.64 40.6L583.06 43.14H583.08L583 41.12V31.8H584.52ZM592.571 45.2C591.625 45.2 590.778 44.9933 590.031 44.58C589.298 44.1667 588.725 43.5733 588.311 42.8C587.898 42.0133 587.691 41.08 587.691 40C587.691 38.92 587.898 37.9933 588.311 37.22C588.725 36.4333 589.291 35.8333 590.011 35.42C590.731 35.0067 591.551 34.8 592.471 34.8C593.405 34.8 594.198 35 594.851 35.4C595.518 35.8 596.025 36.3467 596.371 37.04C596.718 37.72 596.891 38.4867 596.891 39.34C596.891 39.5667 596.885 39.7733 596.871 39.96C596.858 40.1467 596.838 40.3133 596.811 40.46H588.731V39.04H596.111L595.291 39.2C595.291 38.24 595.025 37.5 594.491 36.98C593.971 36.46 593.285 36.2 592.431 36.2C591.778 36.2 591.211 36.3533 590.731 36.66C590.265 36.9533 589.898 37.3867 589.631 37.96C589.378 38.52 589.251 39.2 589.251 40C589.251 40.7867 589.385 41.4667 589.651 42.04C589.918 42.6133 590.291 43.0533 590.771 43.36C591.265 43.6533 591.851 43.8 592.531 43.8C593.265 43.8 593.858 43.66 594.311 43.38C594.778 43.1 595.151 42.72 595.431 42.24L596.691 42.98C596.438 43.4333 596.111 43.8267 595.711 44.16C595.325 44.4933 594.865 44.7533 594.331 44.94C593.811 45.1133 593.225 45.2 592.571 45.2ZM603.554 45.2C602.914 45.2 602.308 45.08 601.734 44.84C601.174 44.6 600.714 44.2133 600.354 43.68C600.008 43.1333 599.834 42.4267 599.834 41.56V35H601.434V41.14C601.434 42.1533 601.654 42.8533 602.094 43.24C602.534 43.6133 603.154 43.8 603.954 43.8C604.328 43.8 604.694 43.74 605.054 43.62C605.414 43.4867 605.734 43.2867 606.014 43.02C606.308 42.74 606.534 42.3867 606.694 41.96C606.868 41.5333 606.954 41.0267 606.954 40.44V35H608.554V45H607.154L607.054 43.48C606.708 44.08 606.234 44.52 605.634 44.8C605.048 45.0667 604.354 45.2 603.554 45.2ZM614.638 32.16V42.24C614.638 42.7333 614.778 43.1 615.058 43.34C615.338 43.58 615.698 43.7 616.138 43.7C616.525 43.7 616.858 43.6333 617.138 43.5C617.418 43.3667 617.671 43.1867 617.898 42.96L618.458 44.3C618.151 44.58 617.785 44.8 617.358 44.96C616.945 45.12 616.465 45.2 615.918 45.2C615.411 45.2 614.938 45.1133 614.498 44.94C614.058 44.7533 613.705 44.4667 613.438 44.08C613.185 43.68 613.051 43.16 613.038 42.52V32.6L614.638 32.16ZM618.278 35V36.38H611.038V35H618.278ZM620.657 45V35H621.957L622.177 36.64C622.457 36.0267 622.864 35.5667 623.397 35.26C623.944 34.9533 624.604 34.8 625.377 34.8C625.55 34.8 625.737 34.8133 625.937 34.84C626.15 34.8667 626.33 34.92 626.477 35L626.197 36.46C626.05 36.4067 625.89 36.3667 625.717 36.34C625.544 36.3133 625.297 36.3 624.977 36.3C624.564 36.3 624.144 36.42 623.717 36.66C623.304 36.9 622.957 37.2667 622.677 37.76C622.397 38.24 622.257 38.8533 622.257 39.6V45H620.657ZM632.648 34.8C633.595 34.8 634.428 35.0067 635.148 35.42C635.882 35.8333 636.455 36.4333 636.868 37.22C637.282 37.9933 637.488 38.92 637.488 40C637.488 41.08 637.282 42.0133 636.868 42.8C636.455 43.5733 635.882 44.1667 635.148 44.58C634.428 44.9933 633.595 45.2 632.648 45.2C631.715 45.2 630.882 44.9933 630.148 44.58C629.415 44.1667 628.842 43.5733 628.428 42.8C628.015 42.0133 627.808 41.08 627.808 40C627.808 38.92 628.015 37.9933 628.428 37.22C628.842 36.4333 629.415 35.8333 630.148 35.42C630.882 35.0067 631.715 34.8 632.648 34.8ZM632.648 36.18C631.968 36.18 631.388 36.3333 630.908 36.64C630.428 36.9467 630.055 37.3867 629.788 37.96C629.535 38.52 629.408 39.2 629.408 40C629.408 40.7867 629.535 41.4667 629.788 42.04C630.055 42.6133 630.428 43.0533 630.908 43.36C631.388 43.6667 631.968 43.82 632.648 43.82C633.328 43.82 633.908 43.6667 634.388 43.36C634.868 43.0533 635.235 42.6133 635.488 42.04C635.755 41.4667 635.888 40.7867 635.888 40C635.888 39.2 635.755 38.52 635.488 37.96C635.235 37.3867 634.868 36.9467 634.388 36.64C633.908 36.3333 633.328 36.18 632.648 36.18ZM640.501 45V35H641.901L642.041 37.24L641.781 37.02C641.994 36.4867 642.281 36.06 642.641 35.74C643.001 35.4067 643.414 35.1667 643.881 35.02C644.361 34.8733 644.854 34.8 645.361 34.8C646.081 34.8 646.734 34.94 647.321 35.22C647.907 35.4867 648.374 35.9 648.721 36.46C649.081 37.02 649.261 37.7333 649.261 38.6V45H647.661V39.16C647.661 38.0533 647.421 37.2867 646.941 36.86C646.474 36.42 645.894 36.2 645.201 36.2C644.721 36.2 644.241 36.3133 643.761 36.54C643.281 36.7667 642.881 37.1333 642.561 37.64C642.254 38.1467 642.101 38.8267 642.101 39.68V45H640.501ZM656.483 45.2C655.51 45.2 654.61 44.9933 653.783 44.58C652.97 44.1667 652.343 43.58 651.903 42.82L653.263 41.84C653.557 42.4533 653.983 42.9333 654.543 43.28C655.117 43.6267 655.803 43.8 656.603 43.8C657.31 43.8 657.863 43.6667 658.263 43.4C658.663 43.12 658.863 42.76 658.863 42.32C658.863 42.04 658.77 41.7867 658.583 41.56C658.41 41.32 658.07 41.1467 657.563 41.04L655.163 40.54C654.19 40.34 653.49 40.0067 653.063 39.54C652.65 39.0733 652.443 38.4933 652.443 37.8C652.443 37.2533 652.597 36.7533 652.903 36.3C653.223 35.8467 653.67 35.4867 654.243 35.22C654.83 34.94 655.517 34.8 656.303 34.8C657.29 34.8 658.123 34.9933 658.803 35.38C659.483 35.7667 659.99 36.3133 660.323 37.02L658.983 37.9C658.757 37.3133 658.39 36.8867 657.883 36.62C657.377 36.34 656.85 36.2 656.303 36.2C655.823 36.2 655.41 36.2667 655.063 36.4C654.73 36.5333 654.47 36.72 654.283 36.96C654.11 37.1867 654.023 37.4467 654.023 37.74C654.023 38.0333 654.123 38.3067 654.323 38.56C654.523 38.8 654.897 38.9733 655.443 39.08L657.943 39.6C658.877 39.7867 659.53 40.0933 659.903 40.52C660.277 40.9467 660.463 41.4667 660.463 42.08C660.463 42.7067 660.297 43.26 659.963 43.74C659.63 44.2067 659.163 44.5667 658.563 44.82C657.963 45.0733 657.27 45.2 656.483 45.2Z" fill="white"/>
<path d="M824.92 31.8V45H823.4V36.7L823.58 33.22H823.56L819.22 45H817.86L813.52 33.22H813.5L813.68 36.7V45H812.16V31.8H814.62L817.52 39.82L818.52 43.12H818.56L819.58 39.84L822.46 31.8H824.92ZM834.653 38.54C834.653 37.7933 834.453 37.22 834.053 36.82C833.653 36.4067 833.086 36.2 832.353 36.2C831.66 36.2 831.073 36.3533 830.593 36.66C830.113 36.9533 829.76 37.4333 829.533 38.1L828.233 37.3C828.5 36.5533 828.993 35.9533 829.713 35.5C830.433 35.0333 831.326 34.8 832.393 34.8C833.113 34.8 833.766 34.9267 834.353 35.18C834.94 35.42 835.4 35.7933 835.733 36.3C836.08 36.7933 836.253 37.4333 836.253 38.22V43.06C836.253 43.54 836.506 43.78 837.013 43.78C837.266 43.78 837.513 43.7467 837.753 43.68L837.673 44.94C837.406 45.0733 837.06 45.14 836.633 45.14C836.246 45.14 835.9 45.0667 835.593 44.92C835.286 44.7733 835.046 44.5533 834.873 44.26C834.7 43.9533 834.613 43.5733 834.613 43.12V42.92L835.013 42.98C834.853 43.5 834.58 43.9267 834.193 44.26C833.806 44.58 833.373 44.82 832.893 44.98C832.413 45.1267 831.94 45.2 831.473 45.2C830.886 45.2 830.34 45.1 829.833 44.9C829.326 44.7 828.92 44.4 828.613 44C828.32 43.5867 828.173 43.08 828.173 42.48C828.173 41.7333 828.42 41.12 828.913 40.64C829.42 40.1467 830.12 39.8133 831.013 39.64L834.973 38.86V40.18L831.753 40.84C831.1 40.9733 830.613 41.16 830.293 41.4C829.973 41.64 829.813 41.9733 829.813 42.4C829.813 42.8133 829.973 43.1533 830.293 43.42C830.626 43.6733 831.093 43.8 831.693 43.8C832.08 43.8 832.446 43.7533 832.793 43.66C833.153 43.5533 833.473 43.4 833.753 43.2C834.033 42.9867 834.253 42.7267 834.413 42.42C834.573 42.1 834.653 41.7267 834.653 41.3V38.54ZM843.741 45.2C842.768 45.2 841.868 44.9933 841.041 44.58C840.228 44.1667 839.601 43.58 839.161 42.82L840.521 41.84C840.815 42.4533 841.241 42.9333 841.801 43.28C842.375 43.6267 843.061 43.8 843.861 43.8C844.568 43.8 845.121 43.6667 845.521 43.4C845.921 43.12 846.121 42.76 846.121 42.32C846.121 42.04 846.028 41.7867 845.841 41.56C845.668 41.32 845.328 41.1467 844.821 41.04L842.421 40.54C841.448 40.34 840.748 40.0067 840.321 39.54C839.908 39.0733 839.701 38.4933 839.701 37.8C839.701 37.2533 839.855 36.7533 840.161 36.3C840.481 35.8467 840.928 35.4867 841.501 35.22C842.088 34.94 842.775 34.8 843.561 34.8C844.548 34.8 845.381 34.9933 846.061 35.38C846.741 35.7667 847.248 36.3133 847.581 37.02L846.241 37.9C846.015 37.3133 845.648 36.8867 845.141 36.62C844.635 36.34 844.108 36.2 843.561 36.2C843.081 36.2 842.668 36.2667 842.321 36.4C841.988 36.5333 841.728 36.72 841.541 36.96C841.368 37.1867 841.281 37.4467 841.281 37.74C841.281 38.0333 841.381 38.3067 841.581 38.56C841.781 38.8 842.155 38.9733 842.701 39.08L845.201 39.6C846.135 39.7867 846.788 40.0933 847.161 40.52C847.535 40.9467 847.721 41.4667 847.721 42.08C847.721 42.7067 847.555 43.26 847.221 43.74C846.888 44.2067 846.421 44.5667 845.821 44.82C845.221 45.0733 844.528 45.2 843.741 45.2ZM854.288 45.2C853.315 45.2 852.415 44.9933 851.588 44.58C850.775 44.1667 850.148 43.58 849.708 42.82L851.068 41.84C851.361 42.4533 851.788 42.9333 852.348 43.28C852.921 43.6267 853.608 43.8 854.408 43.8C855.115 43.8 855.668 43.6667 856.068 43.4C856.468 43.12 856.668 42.76 856.668 42.32C856.668 42.04 856.575 41.7867 856.388 41.56C856.215 41.32 855.875 41.1467 855.368 41.04L852.968 40.54C851.995 40.34 851.295 40.0067 850.868 39.54C850.455 39.0733 850.248 38.4933 850.248 37.8C850.248 37.2533 850.401 36.7533 850.708 36.3C851.028 35.8467 851.475 35.4867 852.048 35.22C852.635 34.94 853.321 34.8 854.108 34.8C855.095 34.8 855.928 34.9933 856.608 35.38C857.288 35.7667 857.795 36.3133 858.128 37.02L856.788 37.9C856.561 37.3133 856.195 36.8867 855.688 36.62C855.181 36.34 854.655 36.2 854.108 36.2C853.628 36.2 853.215 36.2667 852.868 36.4C852.535 36.5333 852.275 36.72 852.088 36.96C851.915 37.1867 851.828 37.4467 851.828 37.74C851.828 38.0333 851.928 38.3067 852.128 38.56C852.328 38.8 852.701 38.9733 853.248 39.08L855.748 39.6C856.681 39.7867 857.335 40.0933 857.708 40.52C858.081 40.9467 858.268 41.4667 858.268 42.08C858.268 42.7067 858.101 43.26 857.768 43.74C857.435 44.2067 856.968 44.5667 856.368 44.82C855.768 45.0733 855.075 45.2 854.288 45.2ZM878.711 31.8V45H876.731L871.211 36.16L869.811 33.68H869.791L869.871 35.68V45H868.351V31.8H870.331L875.831 40.6L877.251 43.14H877.271L877.191 41.12V31.8H878.711ZM886.203 45.2C885.563 45.2 884.956 45.08 884.383 44.84C883.823 44.6 883.363 44.2133 883.003 43.68C882.656 43.1333 882.483 42.4267 882.483 41.56V35H884.083V41.14C884.083 42.1533 884.303 42.8533 884.743 43.24C885.183 43.6133 885.803 43.8 886.603 43.8C886.976 43.8 887.343 43.74 887.703 43.62C888.063 43.4867 888.383 43.2867 888.663 43.02C888.956 42.74 889.183 42.3867 889.343 41.96C889.516 41.5333 889.603 41.0267 889.603 40.44V35H891.203V45H889.803L889.703 43.48C889.356 44.08 888.883 44.52 888.283 44.8C887.696 45.0667 887.003 45.2 886.203 45.2ZM894.926 45V35H896.326L896.426 36.56C896.786 35.9467 897.253 35.5 897.826 35.22C898.413 34.94 899.013 34.8 899.626 34.8C900.333 34.8 901 34.96 901.626 35.28C902.253 35.6 902.733 36.0933 903.066 36.76C903.28 36.3067 903.58 35.94 903.966 35.66C904.353 35.3667 904.773 35.1533 905.226 35.02C905.693 34.8733 906.133 34.8 906.546 34.8C907.186 34.8 907.793 34.9333 908.366 35.2C908.953 35.4667 909.433 35.88 909.806 36.44C910.18 37 910.366 37.72 910.366 38.6V45H908.766V38.76C908.766 37.8533 908.54 37.2 908.086 36.8C907.633 36.4 907.073 36.2 906.406 36.2C905.886 36.2 905.4 36.3267 904.946 36.58C904.493 36.8333 904.126 37.2067 903.846 37.7C903.58 38.1933 903.446 38.8 903.446 39.52V45H901.846V38.76C901.846 37.8533 901.62 37.2 901.166 36.8C900.713 36.4 900.153 36.2 899.486 36.2C899.046 36.2 898.593 36.32 898.126 36.56C897.673 36.7867 897.293 37.1533 896.986 37.66C896.68 38.1667 896.526 38.8333 896.526 39.66V45H894.926ZM918.889 45.2C918.329 45.2 917.809 45.1 917.329 44.9C916.849 44.7 916.436 44.42 916.089 44.06C915.742 43.7 915.482 43.2933 915.309 42.84L915.529 42.56L915.389 45H913.989V30.4H915.589V37.26L915.389 36.96C915.656 36.3333 916.102 35.82 916.729 35.42C917.369 35.0067 918.096 34.8 918.909 34.8C919.736 34.8 920.496 35.0067 921.189 35.42C921.882 35.8333 922.436 36.4267 922.849 37.2C923.262 37.9733 923.469 38.9067 923.469 40C923.469 41.08 923.256 42.0133 922.829 42.8C922.416 43.5733 921.862 44.1667 921.169 44.58C920.476 44.9933 919.716 45.2 918.889 45.2ZM918.729 43.8C919.716 43.8 920.482 43.4533 921.029 42.76C921.589 42.0667 921.869 41.1467 921.869 40C921.869 38.8533 921.596 37.9333 921.049 37.24C920.502 36.5467 919.736 36.2 918.749 36.2C918.122 36.2 917.569 36.36 917.089 36.68C916.622 37 916.256 37.4467 915.989 38.02C915.722 38.5933 915.589 39.2667 915.589 40.04C915.589 40.8 915.716 41.4667 915.969 42.04C916.236 42.6 916.602 43.0333 917.069 43.34C917.549 43.6467 918.102 43.8 918.729 43.8ZM930.708 45.2C929.761 45.2 928.915 44.9933 928.168 44.58C927.435 44.1667 926.861 43.5733 926.448 42.8C926.035 42.0133 925.828 41.08 925.828 40C925.828 38.92 926.035 37.9933 926.448 37.22C926.861 36.4333 927.428 35.8333 928.148 35.42C928.868 35.0067 929.688 34.8 930.608 34.8C931.541 34.8 932.335 35 932.988 35.4C933.655 35.8 934.161 36.3467 934.508 37.04C934.855 37.72 935.028 38.4867 935.028 39.34C935.028 39.5667 935.021 39.7733 935.008 39.96C934.995 40.1467 934.975 40.3133 934.948 40.46H926.868V39.04H934.248L933.428 39.2C933.428 38.24 933.161 37.5 932.628 36.98C932.108 36.46 931.421 36.2 930.568 36.2C929.915 36.2 929.348 36.3533 928.868 36.66C928.401 36.9533 928.035 37.3867 927.768 37.96C927.515 38.52 927.388 39.2 927.388 40C927.388 40.7867 927.521 41.4667 927.788 42.04C928.055 42.6133 928.428 43.0533 928.908 43.36C929.401 43.6533 929.988 43.8 930.668 43.8C931.401 43.8 931.995 43.66 932.448 43.38C932.915 43.1 933.288 42.72 933.568 42.24L934.828 42.98C934.575 43.4333 934.248 43.8267 933.848 44.16C933.461 44.4933 933.001 44.7533 932.468 44.94C931.948 45.1133 931.361 45.2 930.708 45.2ZM938.071 45V35H939.371L939.591 36.64C939.871 36.0267 940.278 35.5667 940.811 35.26C941.358 34.9533 942.018 34.8 942.791 34.8C942.964 34.8 943.151 34.8133 943.351 34.84C943.564 34.8667 943.744 34.92 943.891 35L943.611 36.46C943.464 36.4067 943.304 36.3667 943.131 36.34C942.958 36.3133 942.711 36.3 942.391 36.3C941.978 36.3 941.558 36.42 941.131 36.66C940.718 36.9 940.371 37.2667 940.091 37.76C939.811 38.24 939.671 38.8533 939.671 39.6V45H938.071Z" fill="white"/>
<line x1="8.74228e-08" y1="73" x2="996" y2="73.0001" stroke="white" stroke-width="2"/>
<line x1="237" y1="4" x2="237" y2="288" stroke="white" stroke-width="2"/>
<line x1="489" x2="489" y2="286" stroke="white" stroke-width="2"/>
<line x1="-8.74228e-08" y1="145" x2="996" y2="145" stroke="white" stroke-width="2"/>
<line x1="-8.74228e-08" y1="217" x2="996" y2="217" stroke="white" stroke-width="2"/>
<path d="M69 105.8C69.6933 105.8 70.3 105.907 70.82 106.12C71.3533 106.333 71.8133 106.64 72.2 107.04C72.5867 107.44 72.9 107.913 73.14 108.46L71.62 109.18C71.4067 108.54 71.08 108.053 70.64 107.72C70.2133 107.373 69.6533 107.2 68.96 107.2C68.2933 107.2 67.72 107.353 67.24 107.66C66.76 107.953 66.3933 108.387 66.14 108.96C65.8867 109.52 65.76 110.2 65.76 111C65.76 111.787 65.8867 112.467 66.14 113.04C66.3933 113.613 66.76 114.053 67.24 114.36C67.72 114.653 68.2933 114.8 68.96 114.8C69.48 114.8 69.9267 114.72 70.3 114.56C70.6867 114.4 71 114.167 71.24 113.86C71.4933 113.553 71.6667 113.18 71.76 112.74L73.24 113.26C73.0133 113.873 72.7 114.4 72.3 114.84C71.9133 115.28 71.44 115.62 70.88 115.86C70.3333 116.087 69.7067 116.2 69 116.2C68.0667 116.2 67.2333 115.993 66.5 115.58C65.7667 115.167 65.1933 114.573 64.78 113.8C64.3667 113.013 64.16 112.08 64.16 111C64.16 109.92 64.3667 108.993 64.78 108.22C65.1933 107.433 65.7667 106.833 66.5 106.42C67.2333 106.007 68.0667 105.8 69 105.8ZM81.8914 109.54C81.8914 108.793 81.6914 108.22 81.2914 107.82C80.8914 107.407 80.3247 107.2 79.5914 107.2C78.8981 107.2 78.3114 107.353 77.8314 107.66C77.3514 107.953 76.9981 108.433 76.7714 109.1L75.4714 108.3C75.7381 107.553 76.2314 106.953 76.9514 106.5C77.6714 106.033 78.5647 105.8 79.6314 105.8C80.3514 105.8 81.0047 105.927 81.5914 106.18C82.1781 106.42 82.6381 106.793 82.9714 107.3C83.3181 107.793 83.4914 108.433 83.4914 109.22V114.06C83.4914 114.54 83.7447 114.78 84.2514 114.78C84.5047 114.78 84.7514 114.747 84.9914 114.68L84.9114 115.94C84.6447 116.073 84.2981 116.14 83.8714 116.14C83.4847 116.14 83.1381 116.067 82.8314 115.92C82.5247 115.773 82.2847 115.553 82.1114 115.26C81.9381 114.953 81.8514 114.573 81.8514 114.12V113.92L82.2514 113.98C82.0914 114.5 81.8181 114.927 81.4314 115.26C81.0447 115.58 80.6114 115.82 80.1314 115.98C79.6514 116.127 79.1781 116.2 78.7114 116.2C78.1247 116.2 77.5781 116.1 77.0714 115.9C76.5647 115.7 76.1581 115.4 75.8514 115C75.5581 114.587 75.4114 114.08 75.4114 113.48C75.4114 112.733 75.6581 112.12 76.1514 111.64C76.6581 111.147 77.3581 110.813 78.2514 110.64L82.2114 109.86V111.18L78.9914 111.84C78.3381 111.973 77.8514 112.16 77.5314 112.4C77.2114 112.64 77.0514 112.973 77.0514 113.4C77.0514 113.813 77.2114 114.153 77.5314 114.42C77.8647 114.673 78.3314 114.8 78.9314 114.8C79.3181 114.8 79.6847 114.753 80.0314 114.66C80.3914 114.553 80.7114 114.4 80.9914 114.2C81.2714 113.987 81.4914 113.727 81.6514 113.42C81.8114 113.1 81.8914 112.727 81.8914 112.3V109.54ZM87.3795 116V106H88.6795L88.8995 107.64C89.1795 107.027 89.5862 106.567 90.1195 106.26C90.6662 105.953 91.3262 105.8 92.0995 105.8C92.2729 105.8 92.4595 105.813 92.6595 105.84C92.8729 105.867 93.0529 105.92 93.1995 106L92.9195 107.46C92.7729 107.407 92.6129 107.367 92.4395 107.34C92.2662 107.313 92.0195 107.3 91.6995 107.3C91.2862 107.3 90.8662 107.42 90.4395 107.66C90.0262 107.9 89.6795 108.267 89.3995 108.76C89.1195 109.24 88.9795 109.853 88.9795 110.6V116H87.3795ZM100.444 116.2C99.8836 116.2 99.3636 116.1 98.8836 115.9C98.4036 115.7 97.9903 115.42 97.6436 115.06C97.2969 114.7 97.0369 114.293 96.8636 113.84L97.0836 113.56L96.9436 116H95.5436V101.4H97.1436V108.26L96.9436 107.96C97.2103 107.333 97.6569 106.82 98.2836 106.42C98.9236 106.007 99.6503 105.8 100.464 105.8C101.29 105.8 102.05 106.007 102.744 106.42C103.437 106.833 103.99 107.427 104.404 108.2C104.817 108.973 105.024 109.907 105.024 111C105.024 112.08 104.81 113.013 104.384 113.8C103.97 114.573 103.417 115.167 102.724 115.58C102.03 115.993 101.27 116.2 100.444 116.2ZM100.284 114.8C101.27 114.8 102.037 114.453 102.584 113.76C103.144 113.067 103.424 112.147 103.424 111C103.424 109.853 103.15 108.933 102.604 108.24C102.057 107.547 101.29 107.2 100.304 107.2C99.6769 107.2 99.1236 107.36 98.6436 107.68C98.1769 108 97.8103 108.447 97.5436 109.02C97.2769 109.593 97.1436 110.267 97.1436 111.04C97.1436 111.8 97.2703 112.467 97.5236 113.04C97.7903 113.6 98.1569 114.033 98.6236 114.34C99.1036 114.647 99.6569 114.8 100.284 114.8ZM112.223 105.8C113.169 105.8 114.003 106.007 114.723 106.42C115.456 106.833 116.029 107.433 116.443 108.22C116.856 108.993 117.063 109.92 117.063 111C117.063 112.08 116.856 113.013 116.443 113.8C116.029 114.573 115.456 115.167 114.723 115.58C114.003 115.993 113.169 116.2 112.223 116.2C111.289 116.2 110.456 115.993 109.723 115.58C108.989 115.167 108.416 114.573 108.003 113.8C107.589 113.013 107.383 112.08 107.383 111C107.383 109.92 107.589 108.993 108.003 108.22C108.416 107.433 108.989 106.833 109.723 106.42C110.456 106.007 111.289 105.8 112.223 105.8ZM112.223 107.18C111.543 107.18 110.963 107.333 110.483 107.64C110.003 107.947 109.629 108.387 109.363 108.96C109.109 109.52 108.983 110.2 108.983 111C108.983 111.787 109.109 112.467 109.363 113.04C109.629 113.613 110.003 114.053 110.483 114.36C110.963 114.667 111.543 114.82 112.223 114.82C112.903 114.82 113.483 114.667 113.963 114.36C114.443 114.053 114.809 113.613 115.063 113.04C115.329 112.467 115.463 111.787 115.463 111C115.463 110.2 115.329 109.52 115.063 108.96C114.809 108.387 114.443 107.947 113.963 107.64C113.483 107.333 112.903 107.18 112.223 107.18ZM120.075 116V106H121.475L121.615 108.24L121.355 108.02C121.568 107.487 121.855 107.06 122.215 106.74C122.575 106.407 122.988 106.167 123.455 106.02C123.935 105.873 124.428 105.8 124.935 105.8C125.655 105.8 126.308 105.94 126.895 106.22C127.482 106.487 127.948 106.9 128.295 107.46C128.655 108.02 128.835 108.733 128.835 109.6V116H127.235V110.16C127.235 109.053 126.995 108.287 126.515 107.86C126.048 107.42 125.468 107.2 124.775 107.2C124.295 107.2 123.815 107.313 123.335 107.54C122.855 107.767 122.455 108.133 122.135 108.64C121.828 109.147 121.675 109.827 121.675 110.68V116H120.075ZM138.998 109.94V111.6H132.398V109.94H138.998ZM144.133 116V106.32C144.133 106.093 144.133 105.853 144.133 105.6C144.146 105.333 144.159 105.06 144.173 104.78C143.719 105.22 143.193 105.607 142.593 105.94C141.993 106.26 141.379 106.493 140.753 106.64L140.333 105.18C140.573 105.153 140.873 105.067 141.233 104.92C141.606 104.76 141.993 104.567 142.393 104.34C142.806 104.1 143.186 103.847 143.533 103.58C143.879 103.313 144.146 103.053 144.333 102.8H145.733V116H144.133ZM149.246 116V114.7C150.566 113.727 151.666 112.873 152.546 112.14C153.439 111.407 154.152 110.74 154.686 110.14C155.219 109.54 155.599 108.973 155.826 108.44C156.052 107.893 156.166 107.327 156.166 106.74C156.166 105.953 155.912 105.32 155.406 104.84C154.912 104.347 154.232 104.1 153.366 104.1C152.459 104.1 151.732 104.4 151.186 105C150.639 105.587 150.319 106.373 150.226 107.36L148.826 106.52C148.946 105.747 149.192 105.067 149.566 104.48C149.952 103.893 150.466 103.433 151.106 103.1C151.759 102.767 152.532 102.6 153.426 102.6C154.106 102.6 154.712 102.7 155.246 102.9C155.792 103.1 156.259 103.387 156.646 103.76C157.032 104.12 157.326 104.553 157.526 105.06C157.739 105.567 157.846 106.127 157.846 106.74C157.846 107.567 157.646 108.38 157.246 109.18C156.846 109.967 156.186 110.793 155.266 111.66C154.346 112.527 153.099 113.487 151.526 114.54V114.56C151.672 114.547 151.872 114.54 152.126 114.54C152.392 114.527 152.652 114.52 152.906 114.52C153.172 114.507 153.372 114.5 153.506 114.5H158.126V116H149.246Z" fill="white"/>
<path d="M69 177.8C69.6933 177.8 70.3 177.907 70.82 178.12C71.3533 178.333 71.8133 178.64 72.2 179.04C72.5867 179.44 72.9 179.913 73.14 180.46L71.62 181.18C71.4067 180.54 71.08 180.053 70.64 179.72C70.2133 179.373 69.6533 179.2 68.96 179.2C68.2933 179.2 67.72 179.353 67.24 179.66C66.76 179.953 66.3933 180.387 66.14 180.96C65.8867 181.52 65.76 182.2 65.76 183C65.76 183.787 65.8867 184.467 66.14 185.04C66.3933 185.613 66.76 186.053 67.24 186.36C67.72 186.653 68.2933 186.8 68.96 186.8C69.48 186.8 69.9267 186.72 70.3 186.56C70.6867 186.4 71 186.167 71.24 185.86C71.4933 185.553 71.6667 185.18 71.76 184.74L73.24 185.26C73.0133 185.873 72.7 186.4 72.3 186.84C71.9133 187.28 71.44 187.62 70.88 187.86C70.3333 188.087 69.7067 188.2 69 188.2C68.0667 188.2 67.2333 187.993 66.5 187.58C65.7667 187.167 65.1933 186.573 64.78 185.8C64.3667 185.013 64.16 184.08 64.16 183C64.16 181.92 64.3667 180.993 64.78 180.22C65.1933 179.433 65.7667 178.833 66.5 178.42C67.2333 178.007 68.0667 177.8 69 177.8ZM81.8914 181.54C81.8914 180.793 81.6914 180.22 81.2914 179.82C80.8914 179.407 80.3247 179.2 79.5914 179.2C78.8981 179.2 78.3114 179.353 77.8314 179.66C77.3514 179.953 76.9981 180.433 76.7714 181.1L75.4714 180.3C75.7381 179.553 76.2314 178.953 76.9514 178.5C77.6714 178.033 78.5647 177.8 79.6314 177.8C80.3514 177.8 81.0047 177.927 81.5914 178.18C82.1781 178.42 82.6381 178.793 82.9714 179.3C83.3181 179.793 83.4914 180.433 83.4914 181.22V186.06C83.4914 186.54 83.7447 186.78 84.2514 186.78C84.5047 186.78 84.7514 186.747 84.9914 186.68L84.9114 187.94C84.6447 188.073 84.2981 188.14 83.8714 188.14C83.4847 188.14 83.1381 188.067 82.8314 187.92C82.5247 187.773 82.2847 187.553 82.1114 187.26C81.9381 186.953 81.8514 186.573 81.8514 186.12V185.92L82.2514 185.98C82.0914 186.5 81.8181 186.927 81.4314 187.26C81.0447 187.58 80.6114 187.82 80.1314 187.98C79.6514 188.127 79.1781 188.2 78.7114 188.2C78.1247 188.2 77.5781 188.1 77.0714 187.9C76.5647 187.7 76.1581 187.4 75.8514 187C75.5581 186.587 75.4114 186.08 75.4114 185.48C75.4114 184.733 75.6581 184.12 76.1514 183.64C76.6581 183.147 77.3581 182.813 78.2514 182.64L82.2114 181.86V183.18L78.9914 183.84C78.3381 183.973 77.8514 184.16 77.5314 184.4C77.2114 184.64 77.0514 184.973 77.0514 185.4C77.0514 185.813 77.2114 186.153 77.5314 186.42C77.8647 186.673 78.3314 186.8 78.9314 186.8C79.3181 186.8 79.6847 186.753 80.0314 186.66C80.3914 186.553 80.7114 186.4 80.9914 186.2C81.2714 185.987 81.4914 185.727 81.6514 185.42C81.8114 185.1 81.8914 184.727 81.8914 184.3V181.54ZM87.3795 188V178H88.6795L88.8995 179.64C89.1795 179.027 89.5862 178.567 90.1195 178.26C90.6662 177.953 91.3262 177.8 92.0995 177.8C92.2729 177.8 92.4595 177.813 92.6595 177.84C92.8729 177.867 93.0529 177.92 93.1995 178L92.9195 179.46C92.7729 179.407 92.6129 179.367 92.4395 179.34C92.2662 179.313 92.0195 179.3 91.6995 179.3C91.2862 179.3 90.8662 179.42 90.4395 179.66C90.0262 179.9 89.6795 180.267 89.3995 180.76C89.1195 181.24 88.9795 181.853 88.9795 182.6V188H87.3795ZM100.444 188.2C99.8836 188.2 99.3636 188.1 98.8836 187.9C98.4036 187.7 97.9903 187.42 97.6436 187.06C97.2969 186.7 97.0369 186.293 96.8636 185.84L97.0836 185.56L96.9436 188H95.5436V173.4H97.1436V180.26L96.9436 179.96C97.2103 179.333 97.6569 178.82 98.2836 178.42C98.9236 178.007 99.6503 177.8 100.464 177.8C101.29 177.8 102.05 178.007 102.744 178.42C103.437 178.833 103.99 179.427 104.404 180.2C104.817 180.973 105.024 181.907 105.024 183C105.024 184.08 104.81 185.013 104.384 185.8C103.97 186.573 103.417 187.167 102.724 187.58C102.03 187.993 101.27 188.2 100.444 188.2ZM100.284 186.8C101.27 186.8 102.037 186.453 102.584 185.76C103.144 185.067 103.424 184.147 103.424 183C103.424 181.853 103.15 180.933 102.604 180.24C102.057 179.547 101.29 179.2 100.304 179.2C99.6769 179.2 99.1236 179.36 98.6436 179.68C98.1769 180 97.8103 180.447 97.5436 181.02C97.2769 181.593 97.1436 182.267 97.1436 183.04C97.1436 183.8 97.2703 184.467 97.5236 185.04C97.7903 185.6 98.1569 186.033 98.6236 186.34C99.1036 186.647 99.6569 186.8 100.284 186.8ZM112.223 177.8C113.169 177.8 114.003 178.007 114.723 178.42C115.456 178.833 116.029 179.433 116.443 180.22C116.856 180.993 117.063 181.92 117.063 183C117.063 184.08 116.856 185.013 116.443 185.8C116.029 186.573 115.456 187.167 114.723 187.58C114.003 187.993 113.169 188.2 112.223 188.2C111.289 188.2 110.456 187.993 109.723 187.58C108.989 187.167 108.416 186.573 108.003 185.8C107.589 185.013 107.383 184.08 107.383 183C107.383 181.92 107.589 180.993 108.003 180.22C108.416 179.433 108.989 178.833 109.723 178.42C110.456 178.007 111.289 177.8 112.223 177.8ZM112.223 179.18C111.543 179.18 110.963 179.333 110.483 179.64C110.003 179.947 109.629 180.387 109.363 180.96C109.109 181.52 108.983 182.2 108.983 183C108.983 183.787 109.109 184.467 109.363 185.04C109.629 185.613 110.003 186.053 110.483 186.36C110.963 186.667 111.543 186.82 112.223 186.82C112.903 186.82 113.483 186.667 113.963 186.36C114.443 186.053 114.809 185.613 115.063 185.04C115.329 184.467 115.463 183.787 115.463 183C115.463 182.2 115.329 181.52 115.063 180.96C114.809 180.387 114.443 179.947 113.963 179.64C113.483 179.333 112.903 179.18 112.223 179.18ZM120.075 188V178H121.475L121.615 180.24L121.355 180.02C121.568 179.487 121.855 179.06 122.215 178.74C122.575 178.407 122.988 178.167 123.455 178.02C123.935 177.873 124.428 177.8 124.935 177.8C125.655 177.8 126.308 177.94 126.895 178.22C127.482 178.487 127.948 178.9 128.295 179.46C128.655 180.02 128.835 180.733 128.835 181.6V188H127.235V182.16C127.235 181.053 126.995 180.287 126.515 179.86C126.048 179.42 125.468 179.2 124.775 179.2C124.295 179.2 123.815 179.313 123.335 179.54C122.855 179.767 122.455 180.133 122.135 180.64C121.828 181.147 121.675 181.827 121.675 182.68V188H120.075ZM138.998 181.94V183.6H132.398V181.94H138.998ZM144.133 188V178.32C144.133 178.093 144.133 177.853 144.133 177.6C144.146 177.333 144.159 177.06 144.173 176.78C143.719 177.22 143.193 177.607 142.593 177.94C141.993 178.26 141.379 178.493 140.753 178.64L140.333 177.18C140.573 177.153 140.873 177.067 141.233 176.92C141.606 176.76 141.993 176.567 142.393 176.34C142.806 176.1 143.186 175.847 143.533 175.58C143.879 175.313 144.146 175.053 144.333 174.8H145.733V188H144.133ZM153.566 188.2C152.392 188.2 151.352 187.927 150.446 187.38C149.552 186.82 148.946 186.053 148.626 185.08L150.226 184.26C150.386 184.753 150.606 185.187 150.886 185.56C151.166 185.92 151.532 186.2 151.986 186.4C152.452 186.6 153.032 186.7 153.726 186.7C154.312 186.7 154.806 186.593 155.206 186.38C155.606 186.167 155.912 185.88 156.126 185.52C156.339 185.147 156.446 184.72 156.446 184.24C156.446 183.76 156.352 183.36 156.166 183.04C155.992 182.72 155.712 182.487 155.326 182.34C154.939 182.18 154.432 182.1 153.806 182.1C153.659 182.1 153.499 182.107 153.326 182.12C153.152 182.12 152.972 182.133 152.786 182.16V180.56C152.906 180.573 153.019 180.58 153.126 180.58C153.246 180.58 153.352 180.58 153.446 180.58C154.419 180.58 155.112 180.393 155.526 180.02C155.939 179.633 156.146 179.033 156.146 178.22C156.146 177.527 155.932 177 155.506 176.64C155.079 176.28 154.472 176.1 153.686 176.1C152.846 176.1 152.206 176.287 151.766 176.66C151.326 177.02 150.979 177.513 150.726 178.14L149.206 177.42C149.419 176.86 149.739 176.367 150.166 175.94C150.592 175.513 151.106 175.18 151.706 174.94C152.319 174.7 152.992 174.58 153.726 174.58C154.646 174.58 155.406 174.74 156.006 175.06C156.606 175.367 157.052 175.78 157.346 176.3C157.652 176.82 157.806 177.393 157.806 178.02C157.806 178.5 157.739 178.933 157.606 179.32C157.472 179.693 157.286 180.02 157.046 180.3C156.819 180.58 156.559 180.807 156.266 180.98C155.972 181.14 155.659 181.247 155.326 181.3V181.34C155.766 181.353 156.152 181.44 156.486 181.6C156.832 181.76 157.126 181.973 157.366 182.24C157.606 182.507 157.786 182.813 157.906 183.16C158.039 183.493 158.106 183.847 158.106 184.22C158.106 184.993 157.912 185.68 157.526 186.28C157.152 186.88 156.626 187.353 155.946 187.7C155.266 188.033 154.472 188.2 153.566 188.2Z" fill="white"/>
<path d="M69 250.8C69.6933 250.8 70.3 250.907 70.82 251.12C71.3533 251.333 71.8133 251.64 72.2 252.04C72.5867 252.44 72.9 252.913 73.14 253.46L71.62 254.18C71.4067 253.54 71.08 253.053 70.64 252.72C70.2133 252.373 69.6533 252.2 68.96 252.2C68.2933 252.2 67.72 252.353 67.24 252.66C66.76 252.953 66.3933 253.387 66.14 253.96C65.8867 254.52 65.76 255.2 65.76 256C65.76 256.787 65.8867 257.467 66.14 258.04C66.3933 258.613 66.76 259.053 67.24 259.36C67.72 259.653 68.2933 259.8 68.96 259.8C69.48 259.8 69.9267 259.72 70.3 259.56C70.6867 259.4 71 259.167 71.24 258.86C71.4933 258.553 71.6667 258.18 71.76 257.74L73.24 258.26C73.0133 258.873 72.7 259.4 72.3 259.84C71.9133 260.28 71.44 260.62 70.88 260.86C70.3333 261.087 69.7067 261.2 69 261.2C68.0667 261.2 67.2333 260.993 66.5 260.58C65.7667 260.167 65.1933 259.573 64.78 258.8C64.3667 258.013 64.16 257.08 64.16 256C64.16 254.92 64.3667 253.993 64.78 253.22C65.1933 252.433 65.7667 251.833 66.5 251.42C67.2333 251.007 68.0667 250.8 69 250.8ZM81.8914 254.54C81.8914 253.793 81.6914 253.22 81.2914 252.82C80.8914 252.407 80.3247 252.2 79.5914 252.2C78.8981 252.2 78.3114 252.353 77.8314 252.66C77.3514 252.953 76.9981 253.433 76.7714 254.1L75.4714 253.3C75.7381 252.553 76.2314 251.953 76.9514 251.5C77.6714 251.033 78.5647 250.8 79.6314 250.8C80.3514 250.8 81.0047 250.927 81.5914 251.18C82.1781 251.42 82.6381 251.793 82.9714 252.3C83.3181 252.793 83.4914 253.433 83.4914 254.22V259.06C83.4914 259.54 83.7447 259.78 84.2514 259.78C84.5047 259.78 84.7514 259.747 84.9914 259.68L84.9114 260.94C84.6447 261.073 84.2981 261.14 83.8714 261.14C83.4847 261.14 83.1381 261.067 82.8314 260.92C82.5247 260.773 82.2847 260.553 82.1114 260.26C81.9381 259.953 81.8514 259.573 81.8514 259.12V258.92L82.2514 258.98C82.0914 259.5 81.8181 259.927 81.4314 260.26C81.0447 260.58 80.6114 260.82 80.1314 260.98C79.6514 261.127 79.1781 261.2 78.7114 261.2C78.1247 261.2 77.5781 261.1 77.0714 260.9C76.5647 260.7 76.1581 260.4 75.8514 260C75.5581 259.587 75.4114 259.08 75.4114 258.48C75.4114 257.733 75.6581 257.12 76.1514 256.64C76.6581 256.147 77.3581 255.813 78.2514 255.64L82.2114 254.86V256.18L78.9914 256.84C78.3381 256.973 77.8514 257.16 77.5314 257.4C77.2114 257.64 77.0514 257.973 77.0514 258.4C77.0514 258.813 77.2114 259.153 77.5314 259.42C77.8647 259.673 78.3314 259.8 78.9314 259.8C79.3181 259.8 79.6847 259.753 80.0314 259.66C80.3914 259.553 80.7114 259.4 80.9914 259.2C81.2714 258.987 81.4914 258.727 81.6514 258.42C81.8114 258.1 81.8914 257.727 81.8914 257.3V254.54ZM87.3795 261V251H88.6795L88.8995 252.64C89.1795 252.027 89.5862 251.567 90.1195 251.26C90.6662 250.953 91.3262 250.8 92.0995 250.8C92.2729 250.8 92.4595 250.813 92.6595 250.84C92.8729 250.867 93.0529 250.92 93.1995 251L92.9195 252.46C92.7729 252.407 92.6129 252.367 92.4395 252.34C92.2662 252.313 92.0195 252.3 91.6995 252.3C91.2862 252.3 90.8662 252.42 90.4395 252.66C90.0262 252.9 89.6795 253.267 89.3995 253.76C89.1195 254.24 88.9795 254.853 88.9795 255.6V261H87.3795ZM100.444 261.2C99.8836 261.2 99.3636 261.1 98.8836 260.9C98.4036 260.7 97.9903 260.42 97.6436 260.06C97.2969 259.7 97.0369 259.293 96.8636 258.84L97.0836 258.56L96.9436 261H95.5436V246.4H97.1436V253.26L96.9436 252.96C97.2103 252.333 97.6569 251.82 98.2836 251.42C98.9236 251.007 99.6503 250.8 100.464 250.8C101.29 250.8 102.05 251.007 102.744 251.42C103.437 251.833 103.99 252.427 104.404 253.2C104.817 253.973 105.024 254.907 105.024 256C105.024 257.08 104.81 258.013 104.384 258.8C103.97 259.573 103.417 260.167 102.724 260.58C102.03 260.993 101.27 261.2 100.444 261.2ZM100.284 259.8C101.27 259.8 102.037 259.453 102.584 258.76C103.144 258.067 103.424 257.147 103.424 256C103.424 254.853 103.15 253.933 102.604 253.24C102.057 252.547 101.29 252.2 100.304 252.2C99.6769 252.2 99.1236 252.36 98.6436 252.68C98.1769 253 97.8103 253.447 97.5436 254.02C97.2769 254.593 97.1436 255.267 97.1436 256.04C97.1436 256.8 97.2703 257.467 97.5236 258.04C97.7903 258.6 98.1569 259.033 98.6236 259.34C99.1036 259.647 99.6569 259.8 100.284 259.8ZM112.223 250.8C113.169 250.8 114.003 251.007 114.723 251.42C115.456 251.833 116.029 252.433 116.443 253.22C116.856 253.993 117.063 254.92 117.063 256C117.063 257.08 116.856 258.013 116.443 258.8C116.029 259.573 115.456 260.167 114.723 260.58C114.003 260.993 113.169 261.2 112.223 261.2C111.289 261.2 110.456 260.993 109.723 260.58C108.989 260.167 108.416 259.573 108.003 258.8C107.589 258.013 107.383 257.08 107.383 256C107.383 254.92 107.589 253.993 108.003 253.22C108.416 252.433 108.989 251.833 109.723 251.42C110.456 251.007 111.289 250.8 112.223 250.8ZM112.223 252.18C111.543 252.18 110.963 252.333 110.483 252.64C110.003 252.947 109.629 253.387 109.363 253.96C109.109 254.52 108.983 255.2 108.983 256C108.983 256.787 109.109 257.467 109.363 258.04C109.629 258.613 110.003 259.053 110.483 259.36C110.963 259.667 111.543 259.82 112.223 259.82C112.903 259.82 113.483 259.667 113.963 259.36C114.443 259.053 114.809 258.613 115.063 258.04C115.329 257.467 115.463 256.787 115.463 256C115.463 255.2 115.329 254.52 115.063 253.96C114.809 253.387 114.443 252.947 113.963 252.64C113.483 252.333 112.903 252.18 112.223 252.18ZM120.075 261V251H121.475L121.615 253.24L121.355 253.02C121.568 252.487 121.855 252.06 122.215 251.74C122.575 251.407 122.988 251.167 123.455 251.02C123.935 250.873 124.428 250.8 124.935 250.8C125.655 250.8 126.308 250.94 126.895 251.22C127.482 251.487 127.948 251.9 128.295 252.46C128.655 253.02 128.835 253.733 128.835 254.6V261H127.235V255.16C127.235 254.053 126.995 253.287 126.515 252.86C126.048 252.42 125.468 252.2 124.775 252.2C124.295 252.2 123.815 252.313 123.335 252.54C122.855 252.767 122.455 253.133 122.135 253.64C121.828 254.147 121.675 254.827 121.675 255.68V261H120.075ZM138.998 254.94V256.6H132.398V254.94H138.998ZM144.133 261V251.32C144.133 251.093 144.133 250.853 144.133 250.6C144.146 250.333 144.159 250.06 144.173 249.78C143.719 250.22 143.193 250.607 142.593 250.94C141.993 251.26 141.379 251.493 140.753 251.64L140.333 250.18C140.573 250.153 140.873 250.067 141.233 249.92C141.606 249.76 141.993 249.567 142.393 249.34C142.806 249.1 143.186 248.847 143.533 248.58C143.879 248.313 144.146 248.053 144.333 247.8H145.733V261H144.133ZM155.086 261V257.54H148.646V256.36L154.666 247.8H156.686V256.16H159.026V257.54H156.686V261H155.086ZM150.346 256.16H155.086V251.22C155.086 250.873 155.092 250.52 155.106 250.16C155.132 249.8 155.152 249.447 155.166 249.1H155.126C154.966 249.433 154.759 249.807 154.506 250.22C154.252 250.633 154.019 250.993 153.806 251.3L150.346 256.16Z" fill="white"/>
<path d="M361.46 102.6C362.167 102.6 362.78 102.7 363.3 102.9C363.833 103.087 364.293 103.387 364.68 103.8C365.067 104.2 365.393 104.727 365.66 105.38L364.18 106.08C363.98 105.467 363.653 104.987 363.2 104.64C362.76 104.28 362.147 104.1 361.36 104.1C360.787 104.1 360.28 104.247 359.84 104.54C359.4 104.82 359.027 105.213 358.72 105.72C358.413 106.227 358.18 106.82 358.02 107.5C357.873 108.18 357.8 108.913 357.8 109.7C357.8 109.727 357.8 109.767 357.8 109.82C357.8 109.873 357.8 109.953 357.8 110.06H357.88C358.027 109.487 358.293 109.027 358.68 108.68C359.08 108.32 359.527 108.06 360.02 107.9C360.527 107.727 361.02 107.64 361.5 107.64C362.393 107.64 363.173 107.813 363.84 108.16C364.507 108.507 365.02 109 365.38 109.64C365.753 110.28 365.94 111.04 365.94 111.92C365.94 112.787 365.753 113.547 365.38 114.2C365.007 114.84 364.48 115.333 363.8 115.68C363.133 116.027 362.333 116.2 361.4 116.2C360.293 116.2 359.36 115.907 358.6 115.32C357.84 114.733 357.267 113.933 356.88 112.92C356.493 111.893 356.3 110.72 356.3 109.4C356.3 107.92 356.527 106.68 356.98 105.68C357.433 104.667 358.047 103.9 358.82 103.38C359.607 102.86 360.487 102.6 361.46 102.6ZM361.38 109.18C360.807 109.18 360.3 109.3 359.86 109.54C359.433 109.767 359.1 110.087 358.86 110.5C358.62 110.9 358.5 111.367 358.5 111.9C358.5 112.407 358.627 112.873 358.88 113.3C359.133 113.713 359.473 114.047 359.9 114.3C360.34 114.54 360.833 114.66 361.38 114.66C362.287 114.66 362.993 114.42 363.5 113.94C364.007 113.447 364.26 112.767 364.26 111.9C364.26 111.34 364.147 110.86 363.92 110.46C363.693 110.047 363.367 109.733 362.94 109.52C362.513 109.293 361.993 109.18 361.38 109.18Z" fill="white"/>
<path d="M613.8 105.72V115.64H612.3V105.72H613.8ZM617.9 109.92V111.42H608.18V109.92H617.9ZM623.035 117V107.32C623.035 107.093 623.035 106.853 623.035 106.6C623.048 106.333 623.062 106.06 623.075 105.78C622.622 106.22 622.095 106.607 621.495 106.94C620.895 107.26 620.282 107.493 619.655 107.64L619.235 106.18C619.475 106.153 619.775 106.067 620.135 105.92C620.508 105.76 620.895 105.567 621.295 105.34C621.708 105.1 622.088 104.847 622.435 104.58C622.782 104.313 623.048 104.053 623.235 103.8H624.635V117H623.035Z" fill="white"/>
<path d="M864.16 111V101.32C864.16 101.093 864.16 100.853 864.16 100.6C864.173 100.333 864.187 100.06 864.2 99.78C863.747 100.22 863.22 100.607 862.62 100.94C862.02 101.26 861.407 101.493 860.78 101.64L860.36 100.18C860.6 100.153 860.9 100.067 861.26 99.92C861.633 99.76 862.02 99.5667 862.42 99.34C862.833 99.1 863.213 98.8467 863.56 98.58C863.907 98.3133 864.173 98.0533 864.36 97.8H865.76V111H864.16ZM869.273 111V109.7C870.593 108.727 871.693 107.873 872.573 107.14C873.466 106.407 874.18 105.74 874.713 105.14C875.246 104.54 875.626 103.973 875.853 103.44C876.08 102.893 876.193 102.327 876.193 101.74C876.193 100.953 875.94 100.32 875.433 99.84C874.94 99.3467 874.26 99.1 873.393 99.1C872.486 99.1 871.76 99.4 871.213 100C870.666 100.587 870.346 101.373 870.253 102.36L868.853 101.52C868.973 100.747 869.22 100.067 869.593 99.48C869.98 98.8933 870.493 98.4333 871.133 98.1C871.786 97.7667 872.56 97.6 873.453 97.6C874.133 97.6 874.74 97.7 875.273 97.9C875.82 98.1 876.286 98.3867 876.673 98.76C877.06 99.12 877.353 99.5533 877.553 100.06C877.766 100.567 877.873 101.127 877.873 101.74C877.873 102.567 877.673 103.38 877.273 104.18C876.873 104.967 876.213 105.793 875.293 106.66C874.373 107.527 873.126 108.487 871.553 109.54V109.56C871.7 109.547 871.9 109.54 872.153 109.54C872.42 109.527 872.68 109.52 872.933 109.52C873.2 109.507 873.4 109.5 873.533 109.5H878.153V111H869.273Z" fill="white"/>
<path d="M361.46 174.6C362.167 174.6 362.78 174.7 363.3 174.9C363.833 175.087 364.293 175.387 364.68 175.8C365.067 176.2 365.393 176.727 365.66 177.38L364.18 178.08C363.98 177.467 363.653 176.987 363.2 176.64C362.76 176.28 362.147 176.1 361.36 176.1C360.787 176.1 360.28 176.247 359.84 176.54C359.4 176.82 359.027 177.213 358.72 177.72C358.413 178.227 358.18 178.82 358.02 179.5C357.873 180.18 357.8 180.913 357.8 181.7C357.8 181.727 357.8 181.767 357.8 181.82C357.8 181.873 357.8 181.953 357.8 182.06H357.88C358.027 181.487 358.293 181.027 358.68 180.68C359.08 180.32 359.527 180.06 360.02 179.9C360.527 179.727 361.02 179.64 361.5 179.64C362.393 179.64 363.173 179.813 363.84 180.16C364.507 180.507 365.02 181 365.38 181.64C365.753 182.28 365.94 183.04 365.94 183.92C365.94 184.787 365.753 185.547 365.38 186.2C365.007 186.84 364.48 187.333 363.8 187.68C363.133 188.027 362.333 188.2 361.4 188.2C360.293 188.2 359.36 187.907 358.6 187.32C357.84 186.733 357.267 185.933 356.88 184.92C356.493 183.893 356.3 182.72 356.3 181.4C356.3 179.92 356.527 178.68 356.98 177.68C357.433 176.667 358.047 175.9 358.82 175.38C359.607 174.86 360.487 174.6 361.46 174.6ZM361.38 181.18C360.807 181.18 360.3 181.3 359.86 181.54C359.433 181.767 359.1 182.087 358.86 182.5C358.62 182.9 358.5 183.367 358.5 183.9C358.5 184.407 358.627 184.873 358.88 185.3C359.133 185.713 359.473 186.047 359.9 186.3C360.34 186.54 360.833 186.66 361.38 186.66C362.287 186.66 362.993 186.42 363.5 185.94C364.007 185.447 364.26 184.767 364.26 183.9C364.26 183.34 364.147 182.86 363.92 182.46C363.693 182.047 363.367 181.733 362.94 181.52C362.513 181.293 361.993 181.18 361.38 181.18Z" fill="white"/>
<path d="M617.22 189.2C615.727 189.2 614.533 188.62 613.64 187.46C612.747 186.3 612.3 184.613 612.3 182.4C612.3 180.187 612.747 178.5 613.64 177.34C614.533 176.18 615.727 175.6 617.22 175.6C618.727 175.6 619.92 176.18 620.8 177.34C621.693 178.5 622.14 180.187 622.14 182.4C622.14 184.613 621.693 186.3 620.8 187.46C619.92 188.62 618.727 189.2 617.22 189.2ZM617.22 187.76C617.927 187.76 618.52 187.56 619 187.16C619.493 186.747 619.86 186.14 620.1 185.34C620.353 184.54 620.48 183.56 620.48 182.4C620.48 181.24 620.353 180.26 620.1 179.46C619.86 178.66 619.493 178.06 619 177.66C618.52 177.247 617.927 177.04 617.22 177.04C616.513 177.04 615.913 177.247 615.42 177.66C614.94 178.06 614.573 178.66 614.32 179.46C614.08 180.26 613.96 181.24 613.96 182.4C613.96 183.56 614.08 184.54 614.32 185.34C614.573 186.14 614.94 186.747 615.42 187.16C615.913 187.56 616.513 187.76 617.22 187.76Z" fill="white"/>
<path d="M864.16 183V173.32C864.16 173.093 864.16 172.853 864.16 172.6C864.173 172.333 864.187 172.06 864.2 171.78C863.747 172.22 863.22 172.607 862.62 172.94C862.02 173.26 861.407 173.493 860.78 173.64L860.36 172.18C860.6 172.153 860.9 172.067 861.26 171.92C861.633 171.76 862.02 171.567 862.42 171.34C862.833 171.1 863.213 170.847 863.56 170.58C863.907 170.313 864.173 170.053 864.36 169.8H865.76V183H864.16ZM873.593 183.2C872.42 183.2 871.38 182.927 870.473 182.38C869.58 181.82 868.973 181.053 868.653 180.08L870.253 179.26C870.413 179.753 870.633 180.187 870.913 180.56C871.193 180.92 871.56 181.2 872.013 181.4C872.48 181.6 873.06 181.7 873.753 181.7C874.34 181.7 874.833 181.593 875.233 181.38C875.633 181.167 875.94 180.88 876.153 180.52C876.366 180.147 876.473 179.72 876.473 179.24C876.473 178.76 876.38 178.36 876.193 178.04C876.02 177.72 875.74 177.487 875.353 177.34C874.966 177.18 874.46 177.1 873.833 177.1C873.686 177.1 873.526 177.107 873.353 177.12C873.18 177.12 873 177.133 872.813 177.16V175.56C872.933 175.573 873.046 175.58 873.153 175.58C873.273 175.58 873.38 175.58 873.473 175.58C874.446 175.58 875.14 175.393 875.553 175.02C875.966 174.633 876.173 174.033 876.173 173.22C876.173 172.527 875.96 172 875.533 171.64C875.106 171.28 874.5 171.1 873.713 171.1C872.873 171.1 872.233 171.287 871.793 171.66C871.353 172.02 871.006 172.513 870.753 173.14L869.233 172.42C869.446 171.86 869.766 171.367 870.193 170.94C870.62 170.513 871.133 170.18 871.733 169.94C872.346 169.7 873.02 169.58 873.753 169.58C874.673 169.58 875.433 169.74 876.033 170.06C876.633 170.367 877.08 170.78 877.373 171.3C877.68 171.82 877.833 172.393 877.833 173.02C877.833 173.5 877.766 173.933 877.633 174.32C877.5 174.693 877.313 175.02 877.073 175.3C876.846 175.58 876.586 175.807 876.293 175.98C876 176.14 875.686 176.247 875.353 176.3V176.34C875.793 176.353 876.18 176.44 876.513 176.6C876.86 176.76 877.153 176.973 877.393 177.24C877.633 177.507 877.813 177.813 877.933 178.16C878.066 178.493 878.133 178.847 878.133 179.22C878.133 179.993 877.94 180.68 877.553 181.28C877.18 181.88 876.653 182.353 875.973 182.7C875.293 183.033 874.5 183.2 873.593 183.2Z" fill="white"/>
<path d="M361.46 246.6C362.167 246.6 362.78 246.7 363.3 246.9C363.833 247.087 364.293 247.387 364.68 247.8C365.067 248.2 365.393 248.727 365.66 249.38L364.18 250.08C363.98 249.467 363.653 248.987 363.2 248.64C362.76 248.28 362.147 248.1 361.36 248.1C360.787 248.1 360.28 248.247 359.84 248.54C359.4 248.82 359.027 249.213 358.72 249.72C358.413 250.227 358.18 250.82 358.02 251.5C357.873 252.18 357.8 252.913 357.8 253.7C357.8 253.727 357.8 253.767 357.8 253.82C357.8 253.873 357.8 253.953 357.8 254.06H357.88C358.027 253.487 358.293 253.027 358.68 252.68C359.08 252.32 359.527 252.06 360.02 251.9C360.527 251.727 361.02 251.64 361.5 251.64C362.393 251.64 363.173 251.813 363.84 252.16C364.507 252.507 365.02 253 365.38 253.64C365.753 254.28 365.94 255.04 365.94 255.92C365.94 256.787 365.753 257.547 365.38 258.2C365.007 258.84 364.48 259.333 363.8 259.68C363.133 260.027 362.333 260.2 361.4 260.2C360.293 260.2 359.36 259.907 358.6 259.32C357.84 258.733 357.267 257.933 356.88 256.92C356.493 255.893 356.3 254.72 356.3 253.4C356.3 251.92 356.527 250.68 356.98 249.68C357.433 248.667 358.047 247.9 358.82 247.38C359.607 246.86 360.487 246.6 361.46 246.6ZM361.38 253.18C360.807 253.18 360.3 253.3 359.86 253.54C359.433 253.767 359.1 254.087 358.86 254.5C358.62 254.9 358.5 255.367 358.5 255.9C358.5 256.407 358.627 256.873 358.88 257.3C359.133 257.713 359.473 258.047 359.9 258.3C360.34 258.54 360.833 258.66 361.38 258.66C362.287 258.66 362.993 258.42 363.5 257.94C364.007 257.447 364.26 256.767 364.26 255.9C364.26 255.34 364.147 254.86 363.92 254.46C363.693 254.047 363.367 253.733 362.94 253.52C362.513 253.293 361.993 253.18 361.38 253.18Z" fill="white"/>
<path d="M616.4 254.94V256.6H609.8V254.94H616.4ZM621.535 261V251.32C621.535 251.093 621.535 250.853 621.535 250.6C621.548 250.333 621.562 250.06 621.575 249.78C621.122 250.22 620.595 250.607 619.995 250.94C619.395 251.26 618.782 251.493 618.155 251.64L617.735 250.18C617.975 250.153 618.275 250.067 618.635 249.92C619.008 249.76 619.395 249.567 619.795 249.34C620.208 249.1 620.588 248.847 620.935 248.58C621.282 248.313 621.548 248.053 621.735 247.8H623.135V261H621.535Z" fill="white"/>
<path d="M864.16 255V245.32C864.16 245.093 864.16 244.853 864.16 244.6C864.173 244.333 864.187 244.06 864.2 243.78C863.747 244.22 863.22 244.607 862.62 244.94C862.02 245.26 861.407 245.493 860.78 245.64L860.36 244.18C860.6 244.153 860.9 244.067 861.26 243.92C861.633 243.76 862.02 243.567 862.42 243.34C862.833 243.1 863.213 242.847 863.56 242.58C863.907 242.313 864.173 242.053 864.36 241.8H865.76V255H864.16ZM875.113 255V251.54H868.673V250.36L874.693 241.8H876.713V250.16H879.053V251.54H876.713V255H875.113ZM870.373 250.16H875.113V245.22C875.113 244.873 875.12 244.52 875.133 244.16C875.16 243.8 875.18 243.447 875.193 243.1H875.153C874.993 243.433 874.786 243.807 874.533 244.22C874.28 244.633 874.046 244.993 873.833 245.3L870.373 250.16Z" fill="white"/>
<line x1="746.5" y1="3" x2="746.5" y2="286" stroke="white"/>
<rect x="1" y="1" width="994" height="286" stroke="white" stroke-width="2"/>
</svg>
