<svg width="22" height="23" viewBox="0 0 22 23" fill="none" xmlns="http://www.w3.org/2000/svg">
<path d="M11.4128 17.3968C11.0076 17.3968 10.6082 17.3004 10.2464 17.1155C9.88465 16.9307 9.57069 16.6624 9.32972 16.3323C9.08876 16.0022 8.9275 15.6194 8.8589 15.2147C8.7903 14.81 8.81626 14.3947 8.93469 14.002C9.05313 13.6093 9.26075 13.2502 9.54089 12.9535C9.82102 12.6569 10.1659 12.4309 10.5477 12.2938C10.9296 12.1567 11.3379 12.1122 11.7398 12.164C12.1417 12.2157 12.5261 12.3622 12.862 12.5918C12.957 12.6568 13.0226 12.7573 13.0444 12.8713C13.0663 12.9853 13.0425 13.1034 12.9784 13.1997C12.9143 13.296 12.8151 13.3625 12.7026 13.3846C12.5902 13.4067 12.4736 13.3827 12.3786 13.3177C12.1547 13.1647 11.8984 13.0671 11.6305 13.0326C11.3626 12.9981 11.0904 13.0278 10.8358 13.1193C10.5813 13.2107 10.3514 13.3614 10.1646 13.5591C9.97792 13.7569 9.83953 13.9963 9.7606 14.2581C9.68167 14.5199 9.66439 14.7968 9.71015 15.0666C9.7559 15.3364 9.86342 15.5916 10.0241 15.8116C10.1847 16.0317 10.394 16.2105 10.6352 16.3337C10.8764 16.4569 11.1427 16.5212 11.4128 16.5212C11.7709 16.5212 12.0728 16.4122 12.3108 16.1972C12.3572 16.1546 12.4005 16.1086 12.4404 16.0597C12.4764 16.0143 12.521 15.9766 12.5716 15.9489C12.6221 15.9212 12.6777 15.904 12.7349 15.8983C12.7921 15.8926 12.8498 15.8985 12.9048 15.9157C12.9597 15.933 13.0106 15.9611 13.0547 15.9986C13.0987 16.036 13.135 16.082 13.1612 16.1338C13.1875 16.1856 13.2034 16.2422 13.2078 16.3003C13.2122 16.3584 13.2051 16.4168 13.187 16.4721C13.1689 16.5274 13.14 16.5785 13.1022 16.6223C13.0348 16.7038 12.9617 16.7803 12.8836 16.8513C12.4901 17.2081 11.9808 17.3968 11.4128 17.3968ZM9.76487 8.48858C9.74827 8.48843 9.73169 8.48741 9.71519 8.48551C9.6588 8.47899 9.60422 8.46126 9.55459 8.43334C9.50496 8.40543 9.46124 8.36787 9.42594 8.32282C9.39064 8.27776 9.36444 8.2261 9.34885 8.17078C9.33326 8.11546 9.32858 8.05757 9.33507 8.00041C9.56963 5.93217 10.999 4.83238 11.0599 4.78684C11.1515 4.71718 11.2667 4.68726 11.3801 4.70368C11.4935 4.7201 11.5959 4.78152 11.6646 4.87441C11.7334 4.9673 11.7629 5.08406 11.7467 5.19901C11.7305 5.31396 11.6699 5.41768 11.5782 5.48735C11.5575 5.50355 10.3847 6.42559 10.196 8.0998C10.184 8.20707 10.1334 8.30609 10.0539 8.37785C9.97429 8.44961 9.87137 8.48904 9.76487 8.48858Z" fill="white"/>
<path d="M11.0132 9.95393C10.6781 9.95393 10.3505 9.8532 10.0718 9.66447C9.79311 9.47575 9.57591 9.2075 9.44766 8.89366C9.3194 8.57982 9.28584 8.23448 9.35123 7.9013C9.41661 7.56813 9.578 7.26209 9.81499 7.02189C10.052 6.78169 10.3539 6.6181 10.6826 6.55183C11.0114 6.48556 11.3521 6.51957 11.6617 6.64957C11.9714 6.77957 12.236 6.99971 12.4222 7.28216C12.6084 7.56461 12.7078 7.89668 12.7078 8.23638C12.7072 8.69173 12.5285 9.12826 12.2108 9.45024C11.8932 9.77221 11.4625 9.95335 11.0132 9.95393ZM11.0132 7.39446C10.8489 7.39446 10.6883 7.44384 10.5517 7.53635C10.4151 7.62886 10.3087 7.76035 10.2458 7.91419C10.1829 8.06803 10.1665 8.23732 10.1985 8.40063C10.2306 8.56395 10.3097 8.71396 10.4259 8.83171C10.542 8.94945 10.69 9.02964 10.8512 9.06212C11.0123 9.09461 11.1793 9.07794 11.3311 9.01421C11.4829 8.95049 11.6126 8.84258 11.7039 8.70413C11.7952 8.56567 11.8439 8.4029 11.8439 8.23638C11.8435 8.0132 11.7559 7.79925 11.6002 7.64144C11.4445 7.48362 11.2334 7.39481 11.0132 7.39446Z" fill="white"/>
<path d="M11.0564 22.3003C8.86958 22.3 6.73194 21.6425 4.91375 20.4109C3.09557 19.1793 1.67848 17.429 0.841658 15.3812C0.00483534 13.3334 -0.214149 11.0801 0.212392 8.90613C0.638932 6.7322 1.69184 4.73526 3.23801 3.16778C5.32181 1.11657 8.11824 -0.0212168 11.023 0.000299704C13.9277 0.0218162 16.7074 1.20091 18.7614 3.28277C20.8154 5.36463 21.9787 8.18206 21.9999 11.1262C22.0212 14.0703 20.8986 16.9047 18.8748 19.0167C17.8506 20.0608 16.6321 20.8886 15.2901 21.4522C13.9481 22.0159 12.5091 22.3041 11.0564 22.3003ZM11.0564 0.759797C5.43537 0.759797 0.862248 5.39495 0.862248 11.0923C0.862248 16.7896 5.43537 21.4247 11.0564 21.4247C16.6775 21.4247 21.2506 16.7896 21.2506 11.0923C21.2506 5.39495 16.6775 0.759797 11.0564 0.759797Z" fill="white"/>
<path d="M11.0564 20.5421C9.21245 20.542 7.4099 19.9878 5.87672 18.9494C4.34353 17.9111 3.14856 16.4352 2.44291 14.7085C1.73726 12.9818 1.55263 11.0818 1.91236 9.24874C2.27209 7.41567 3.16002 5.73189 4.46388 4.41031C5.32805 3.52558 6.35618 2.82263 7.4892 2.34187C8.62223 1.86112 9.83781 1.61201 11.0661 1.60889C12.2944 1.60576 13.5112 1.84866 14.6466 2.32364C15.782 2.79863 16.8136 3.49632 17.6821 4.37664C18.5507 5.25697 19.239 6.30256 19.7077 7.45336C20.1763 8.60415 20.416 9.83746 20.4129 11.0824C20.4098 12.3274 20.164 13.5595 19.6897 14.7078C19.2154 15.8562 18.5218 16.8983 17.6489 17.7742C16.7852 18.6545 15.7578 19.3524 14.6262 19.8275C13.4946 20.3026 12.2813 20.5455 11.0564 20.5421ZM11.0564 2.51807C6.39127 2.51807 2.59697 6.36385 2.59697 11.0923C2.59697 15.8207 6.39127 19.6664 11.0564 19.6664C15.7215 19.6664 19.5158 15.8207 19.5158 11.0923C19.5158 6.36385 15.7215 2.51807 11.0564 2.51807Z" fill="white"/>
</svg>
