<svg width="94" height="100" viewBox="0 0 94 100" fill="none" xmlns="http://www.w3.org/2000/svg">
<g clip-path="url(#clip0_29_6)">
<path d="M45.4395 75.5541C45.4395 88.4373 35.5254 98.9025 23.2797 98.9025C11.034 98.9025 1.11993 88.4567 1.11993 75.5541C1.11993 65.205 7.52736 56.4227 16.3766 53.347V37.0979H30.1645V53.347C39.032 56.4227 45.4395 65.205 45.4395 75.5541Z" fill="#F0F7FF"/>
<path d="M45.4395 75.5541C45.4395 88.4373 35.5254 98.9025 23.2797 98.9025C11.034 98.9025 1.11993 88.4567 1.11993 75.5541C1.11993 74.4128 1.19337 73.3102 1.35861 72.2076C4.53478 72.5944 4.73673 76.2505 8.28009 76.2505C12.0254 76.2505 12.0254 72.1495 15.7707 72.1495C19.516 72.1495 19.516 76.2505 23.2613 76.2505C27.0067 76.2505 27.0067 72.1495 30.7703 72.1495C34.5156 72.1495 34.5156 76.2505 38.2609 76.2505C41.8227 76.2505 42.0063 72.5944 45.2008 72.2076C45.3477 73.3102 45.4395 74.4128 45.4395 75.5541Z" fill="#83CAFA"/>
<path opacity="0.1" d="M45.4395 75.5541C45.4395 88.4373 35.5254 98.9025 23.2797 98.9025C11.034 98.9025 1.11993 88.4567 1.11993 75.5541C1.11993 74.3741 1.19337 73.2135 1.35861 72.0915C2.95587 83.3305 12.1723 91.9386 23.2797 91.9386C34.3871 91.9386 43.6035 83.3305 45.2008 72.0915C45.3477 73.2135 45.4395 74.3741 45.4395 75.5541Z" fill="black"/>
<path d="M92.8801 37.0398C92.8801 38.2005 91.9805 39.1484 90.8789 39.1484H76.9442C75.8426 39.1484 74.943 38.2005 74.943 37.0398C74.943 35.8792 75.8426 34.9313 76.9442 34.9313H90.8789C91.9805 34.9313 92.8801 35.8599 92.8801 37.0398Z" fill="#BFBFBF"/>
<path opacity="0.4" d="M79.9918 39.1484H76.9258C75.8242 39.1484 74.9246 38.2005 74.9246 37.0398C74.9246 35.8792 75.8242 34.9313 76.9258 34.9313H79.9918C78.8902 34.9313 77.9906 35.8792 77.9906 37.0398C77.9906 38.2005 78.8902 39.1484 79.9918 39.1484Z" fill="white"/>
<path opacity="0.1" d="M92.8801 37.0398C92.8801 38.2005 91.9804 39.1484 90.8789 39.1484H87.8129C88.9144 39.1484 89.814 38.2005 89.814 37.0398C89.814 35.8792 88.9144 34.9313 87.8129 34.9313H90.8789C91.9804 34.9313 92.8801 35.8599 92.8801 37.0398Z" fill="black"/>
<path d="M90.8973 39.129V91.5517C90.8973 95.5947 87.7762 98.9025 83.9207 98.9025C81.993 98.9025 80.2488 98.0901 78.982 96.7553C77.7152 95.4206 76.9442 93.5829 76.9442 91.5517V39.129H90.8973Z" fill="#F0F7FF"/>
<path d="M90.8973 68.0098V91.5517C90.8973 95.5946 87.7762 98.9025 83.9207 98.9025C81.993 98.9025 80.2488 98.09 78.982 96.7553C77.7152 95.4205 76.9442 93.5828 76.9442 91.5517V66.2882C85.5547 62.3033 84.4164 68.0098 90.8973 68.0098Z" fill="#E56C63"/>
<path opacity="0.1" d="M90.8973 84.6072V91.5517C90.8973 95.5947 87.7762 98.9025 83.9207 98.9025C81.993 98.9025 80.2488 98.0901 78.982 96.7553C77.7152 95.4206 76.9442 93.5829 76.9442 91.5517V84.6072C76.9442 86.6383 77.7152 88.476 78.982 89.8108C80.2488 91.1455 81.993 91.958 83.9207 91.958C87.7578 91.958 90.8973 88.6501 90.8973 84.6072Z" fill="black"/>
<path d="M28.7141 30.6563H17.827V34.9314H28.7141V30.6563Z" fill="#BFBFBF"/>
<path d="M32.2391 37.0398C32.2391 38.2005 31.3394 39.1484 30.2379 39.1484H16.3031C15.2016 39.1484 14.3019 38.2005 14.3019 37.0398C14.3019 35.8792 15.2016 34.9313 16.3031 34.9313H30.2379C31.3578 34.9313 32.2391 35.8599 32.2391 37.0398Z" fill="#BFBFBF"/>
<g opacity="0.4">
<path d="M20.893 30.6563H17.827V34.9314H20.893V30.6563Z" fill="white"/>
<path d="M19.3691 39.1484H16.3031C15.2016 39.1484 14.3019 38.2006 14.3019 37.0399C14.3019 35.8793 15.2016 34.9314 16.3031 34.9314H19.3691C18.2676 34.9314 17.368 35.8793 17.368 37.0399C17.368 38.2006 18.2492 39.1484 19.3691 39.1484Z" fill="white"/>
</g>
<g opacity="0.1">
<path d="M28.7324 30.6563H25.6664V34.9314H28.7324V30.6563Z" fill="black"/>
<path d="M32.2391 37.0399C32.2391 38.2006 31.3395 39.1484 30.2379 39.1484H27.1719C28.2734 39.1484 29.173 38.2006 29.173 37.0399C29.173 35.8793 28.2734 34.9314 27.1719 34.9314H30.2379C31.3578 34.9314 32.2391 35.8599 32.2391 37.0399Z" fill="black"/>
</g>
<path d="M25.9399 51.1082C26.0858 49.556 25.0098 48.1731 23.5367 48.0194C22.0636 47.8658 20.7511 48.9994 20.6052 50.5516C20.4594 52.1037 21.5353 53.4866 23.0085 53.6403C24.4816 53.794 25.7941 52.6603 25.9399 51.1082Z" fill="#83CAFA"/>
<path opacity="0.1" d="M25.9601 50.8323C25.9601 52.3991 24.7484 53.6565 23.2797 53.6565C22.0496 53.6565 21.0215 52.8054 20.7094 51.6254C20.948 51.7028 21.2051 51.7414 21.4621 51.7414C22.9308 51.7414 24.1426 50.4841 24.1426 48.9172C24.1426 48.6464 24.1058 48.3756 24.0324 48.1241C25.134 48.4723 25.9601 49.5556 25.9601 50.8323Z" fill="black"/>
<path d="M83.4985 50.8323C84.9788 50.8323 86.1789 49.5678 86.1789 48.008C86.1789 46.4482 84.9788 45.1838 83.4985 45.1838C82.0181 45.1838 80.818 46.4482 80.818 48.008C80.818 49.5678 82.0181 50.8323 83.4985 50.8323Z" fill="#E56C63"/>
<path opacity="0.1" d="M86.1606 48.008C86.1606 49.5749 84.9672 50.8322 83.4801 50.8322C82.3418 50.8322 81.3688 50.0778 80.9832 48.9946C81.277 49.1106 81.5891 49.1686 81.9195 49.1686C83.3883 49.1686 84.5817 47.9113 84.5817 46.3444C84.5817 45.9962 84.5266 45.6674 84.4164 45.3578C85.4445 45.7834 86.1606 46.8087 86.1606 48.008Z" fill="black"/>
<path d="M31.3945 66.6945C32.8749 66.6945 34.075 65.43 34.075 63.8702C34.075 62.3104 32.8749 61.046 31.3945 61.046C29.9141 61.046 28.7141 62.3104 28.7141 63.8702C28.7141 65.43 29.9141 66.6945 31.3945 66.6945Z" fill="#83CAFA"/>
<path opacity="0.1" d="M34.0566 63.8703C34.0566 65.4371 32.8633 66.6945 31.3945 66.6945C30.2562 66.6945 29.2832 65.9594 28.8976 64.9148C29.2098 65.0309 29.5402 65.1083 29.8707 65.1083C31.3394 65.1083 32.5328 63.8509 32.5328 62.284C32.5328 61.9165 32.4777 61.5876 32.3492 61.2588C33.359 61.665 34.0566 62.6903 34.0566 63.8703Z" fill="black"/>
<path d="M12.7598 69.0158C13.9765 69.0158 14.9629 67.9765 14.9629 66.6945C14.9629 65.4125 13.9765 64.3732 12.7598 64.3732C11.543 64.3732 10.5566 65.4125 10.5566 66.6945C10.5566 67.9765 11.543 69.0158 12.7598 69.0158Z" fill="#83CAFA"/>
<path opacity="0.1" d="M14.9629 66.6945C14.9629 67.9712 13.9715 69.0158 12.7598 69.0158C11.7867 69.0158 10.9422 68.3387 10.6668 67.4102C10.8688 67.4683 11.0891 67.5069 11.3277 67.5069C12.5395 67.5069 13.5309 66.4817 13.5309 65.1856C13.5309 64.9342 13.4942 64.702 13.4207 64.4893C14.302 64.7794 14.9629 65.6499 14.9629 66.6945Z" fill="black"/>
<path d="M93.7981 37.0399C93.7981 35.3376 92.4945 33.9641 90.8789 33.9641H84.8203V12.26C84.8203 5.95378 79.9551 0.827576 73.9699 0.827576C67.9848 0.827576 63.1195 5.95378 63.1195 12.26V21.0035C63.1195 26.6907 58.7317 31.314 53.334 31.314C47.9363 31.314 43.5484 26.6907 43.5484 21.0035V11.9892C43.5484 5.83772 38.7934 0.827576 32.9551 0.827576C27.1168 0.827576 22.3617 5.83772 22.3617 11.9892V29.6891H17.827C17.3129 29.6891 16.909 30.1146 16.909 30.6563V33.9641H16.3031C14.6875 33.9641 13.384 35.3376 13.384 37.0399C13.384 38.4326 14.2652 39.5933 15.4586 39.9802V52.6699C6.29728 56.1519 0.201965 65.263 0.201965 75.5541C0.201965 88.9596 10.5567 99.8697 23.2797 99.8697C36.0027 99.8697 46.3574 88.9596 46.3574 75.5541C46.3574 65.263 40.2438 56.1519 31.1008 52.6699V39.9802C32.2942 39.5933 33.1754 38.4326 33.1754 37.0399C33.1754 35.3376 31.8719 33.9641 30.2563 33.9641H29.6504V30.6563C29.6504 30.1146 29.2465 29.6891 28.7324 29.6891H24.216V11.9892C24.216 6.90165 28.1449 2.76199 32.9734 2.76199C37.802 2.76199 41.7309 6.90165 41.7309 11.9892V21.0035C41.7309 27.7547 46.9449 33.2484 53.3524 33.2484C59.7598 33.2484 64.9738 27.7547 64.9738 21.0035V12.26C64.9738 7.01771 69.0129 2.76199 73.9883 2.76199C78.9637 2.76199 82.9844 7.01771 82.9844 12.26V33.9448H76.9258C75.3102 33.9448 74.0067 35.3182 74.0067 37.0205C74.0067 38.3746 74.8512 39.5353 76.0078 39.9415V91.5517C76.0078 96.1556 79.5328 99.8697 83.9024 99.8697C88.2535 99.8697 91.7969 96.1363 91.7969 91.5517V39.9415C92.9719 39.5353 93.7981 38.394 93.7981 37.0399ZM23.2797 97.9353C11.5664 97.9353 2.0379 87.8957 2.0379 75.5541C2.0379 74.8384 2.07462 74.1226 2.1297 73.4069C2.809 73.7164 3.3047 74.2774 3.85548 74.8771C4.81017 75.9216 6.00353 77.2177 8.24337 77.2177C10.5016 77.2177 11.6949 75.9216 12.6496 74.8771C13.5492 73.8905 14.2469 73.1361 15.734 73.1361C17.2211 73.1361 17.9188 73.9098 18.8184 74.8771C19.7731 75.9216 20.9664 77.2177 23.2246 77.2177C25.4828 77.2177 26.6762 75.9216 27.6309 74.8771C28.5305 73.8905 29.2465 73.1167 30.7336 73.1167C32.2207 73.1167 32.9184 73.8905 33.818 74.8577C34.7727 75.9023 35.966 77.1983 38.2242 77.1983C40.5008 77.1983 41.6758 75.9023 42.6488 74.8577C43.1996 74.258 43.7137 73.6971 44.3746 73.3876C44.4297 74.1033 44.4664 74.7997 44.4664 75.5348C44.5215 87.8957 34.993 97.9353 23.2797 97.9353ZM44.1543 71.4531C42.8875 71.8787 42.0981 72.7492 41.3637 73.5423C40.4641 74.5289 39.7481 75.2833 38.2609 75.2833C36.7738 75.2833 36.0762 74.5095 35.1766 73.5423C34.2219 72.4977 33.0285 71.2017 30.7703 71.2017C28.4938 71.2017 27.3004 72.4977 26.3457 73.5423C25.4461 74.5095 24.7484 75.2833 23.2613 75.2833C21.7742 75.2833 21.0766 74.5095 20.177 73.5423C19.2223 72.4977 18.0289 71.2017 15.7707 71.2017C13.5125 71.2017 12.3192 72.4977 11.3645 73.5423C10.4649 74.5289 9.7672 75.2833 8.28009 75.2833C6.81134 75.2833 6.09532 74.5095 5.19571 73.5423C4.46134 72.7492 3.67189 71.8787 2.40509 71.4531C3.8004 63.522 9.1797 56.8676 16.6703 54.2755C17.0559 54.1401 17.2945 53.7726 17.2945 53.347V40.0962H29.2465V53.347C29.2465 53.7726 29.5035 54.1401 29.8707 54.2755C37.3797 56.8676 42.759 63.522 44.1543 71.4531ZM31.3211 37.0399C31.3211 37.6782 30.8438 38.1812 30.2379 38.1812H16.3031C15.6973 38.1812 15.2199 37.6782 15.2199 37.0399C15.2199 36.4015 15.6973 35.8986 16.3031 35.8986H30.2379C30.8438 35.8986 31.3211 36.4015 31.3211 37.0399ZM27.7961 33.9641H18.7449V31.6235H27.7961V33.9641ZM89.9793 67.004C88.2535 66.8299 87.2254 66.1528 86.1606 65.4564C83.9758 64.0056 82.1399 63.1545 77.8621 64.8568V40.0962H89.9609L89.9793 67.004ZM83.9207 97.9353C80.561 97.9353 77.8621 95.0917 77.8621 91.5517V66.9266C82.1399 65.0696 83.4984 65.9594 85.1692 67.0814C86.3074 67.8358 87.666 68.745 89.9609 68.9384V91.5517C89.9793 95.0724 87.2621 97.9353 83.9207 97.9353ZM90.8789 38.1618H76.9442H76.9258C76.3199 38.1618 75.8426 37.6589 75.8426 37.0205C75.8426 36.3822 76.3199 35.8792 76.9258 35.8792H90.8789C91.4848 35.8792 91.9621 36.3822 91.9621 37.0205C91.9621 37.6589 91.4848 38.1618 90.8789 38.1618Z" fill="#333333"/>
<path d="M83.4984 51.7995C85.4812 51.7995 87.0969 50.0972 87.0969 48.008C87.0969 45.9188 85.4812 44.2166 83.4984 44.2166C81.5156 44.2166 79.9 45.9188 79.9 48.008C79.9 50.0972 81.5156 51.7995 83.4984 51.7995ZM83.4984 46.1703C84.4715 46.1703 85.2609 47.0021 85.2609 48.0274C85.2609 49.0526 84.4715 49.8844 83.4984 49.8844C82.5254 49.8844 81.7359 49.0526 81.7359 48.0274C81.7359 47.0021 82.5254 46.1703 83.4984 46.1703ZM23.2797 47.0408C21.2969 47.0408 19.6812 48.7431 19.6812 50.8323C19.6812 52.9214 21.2969 54.6237 23.2797 54.6237C25.2625 54.6237 26.8781 52.9214 26.8781 50.8323C26.8781 48.7431 25.2625 47.0408 23.2797 47.0408ZM23.2797 52.6893C22.3066 52.6893 21.5172 51.8575 21.5172 50.8323C21.5172 49.807 22.3066 48.9752 23.2797 48.9752C24.2527 48.9752 25.0422 49.807 25.0422 50.8323C25.0238 51.8575 24.2527 52.6893 23.2797 52.6893ZM27.7961 63.8702C27.7961 65.9594 29.4117 67.6617 31.3945 67.6617C33.3773 67.6617 34.993 65.9594 34.993 63.8702C34.993 61.7811 33.3773 60.0788 31.3945 60.0788C29.4117 60.0981 27.7961 61.7811 27.7961 63.8702ZM31.3945 62.0325C32.3676 62.0325 33.157 62.8643 33.157 63.8896C33.157 64.9148 32.3676 65.7466 31.3945 65.7466C30.4215 65.7466 29.632 64.9148 29.632 63.8896C29.632 62.8643 30.4215 62.0325 31.3945 62.0325ZM12.7598 63.406C11.0523 63.406 9.63867 64.8761 9.63867 66.6945C9.63867 68.5128 11.034 69.983 12.7598 69.983C14.4672 69.983 15.8809 68.5128 15.8809 66.6945C15.8809 64.8761 14.4855 63.406 12.7598 63.406ZM12.7598 68.0486C12.0621 68.0486 11.4746 67.4489 11.4746 66.6945C11.4746 65.9594 12.0437 65.3404 12.7598 65.3404C13.4574 65.3404 14.0449 65.9401 14.0449 66.6945C14.0449 67.4489 13.4758 68.0486 12.7598 68.0486Z" fill="#333333"/>
</g>
<defs>
<clipPath id="clip0_29_6">
<rect width="94" height="99.0421" fill="white" transform="translate(0 0.827576)"/>
</clipPath>
</defs>
</svg>
