<svg width="781" height="288" viewBox="0 0 781 288" fill="none" xmlns="http://www.w3.org/2000/svg">
<rect x="3" y="1" width="777" height="286" stroke="white" stroke-width="2"/>
<path d="M90.82 36.8C91.7133 36.8 92.4867 36.9667 93.14 37.3C93.8067 37.62 94.3267 38.08 94.7 38.68C95.0733 39.28 95.26 39.9933 95.26 40.82C95.26 41.6467 95.0733 42.36 94.7 42.96C94.3267 43.56 93.8067 44.0267 93.14 44.36C92.4867 44.68 91.7133 44.84 90.82 44.84H87.76V50H86.16V36.8H90.82ZM90.58 43.34C91.62 43.34 92.38 43.1267 92.86 42.7C93.34 42.26 93.58 41.6333 93.58 40.82C93.58 39.9933 93.34 39.3667 92.86 38.94C92.38 38.5133 91.62 38.3 90.58 38.3H87.76V43.34H90.58ZM103.907 43.54C103.907 42.7933 103.707 42.22 103.307 41.82C102.907 41.4067 102.34 41.2 101.607 41.2C100.914 41.2 100.327 41.3533 99.847 41.66C99.367 41.9533 99.0137 42.4333 98.787 43.1L97.487 42.3C97.7537 41.5533 98.247 40.9533 98.967 40.5C99.687 40.0333 100.58 39.8 101.647 39.8C102.367 39.8 103.02 39.9267 103.607 40.18C104.194 40.42 104.654 40.7933 104.987 41.3C105.334 41.7933 105.507 42.4333 105.507 43.22V48.06C105.507 48.54 105.76 48.78 106.267 48.78C106.52 48.78 106.767 48.7467 107.007 48.68L106.927 49.94C106.66 50.0733 106.314 50.14 105.887 50.14C105.5 50.14 105.154 50.0667 104.847 49.92C104.54 49.7733 104.3 49.5533 104.127 49.26C103.954 48.9533 103.867 48.5733 103.867 48.12V47.92L104.267 47.98C104.107 48.5 103.834 48.9267 103.447 49.26C103.06 49.58 102.627 49.82 102.147 49.98C101.667 50.1267 101.194 50.2 100.727 50.2C100.14 50.2 99.5937 50.1 99.087 49.9C98.5804 49.7 98.1737 49.4 97.867 49C97.5737 48.5867 97.427 48.08 97.427 47.48C97.427 46.7333 97.6737 46.12 98.167 45.64C98.6737 45.1467 99.3737 44.8133 100.267 44.64L104.227 43.86V45.18L101.007 45.84C100.354 45.9733 99.867 46.16 99.547 46.4C99.227 46.64 99.067 46.9733 99.067 47.4C99.067 47.8133 99.227 48.1533 99.547 48.42C99.8804 48.6733 100.347 48.8 100.947 48.8C101.334 48.8 101.7 48.7533 102.047 48.66C102.407 48.5533 102.727 48.4 103.007 48.2C103.287 47.9867 103.507 47.7267 103.667 47.42C103.827 47.1 103.907 46.7267 103.907 46.3V43.54ZM109.395 50V40H110.695L110.915 41.64C111.195 41.0267 111.602 40.5667 112.135 40.26C112.682 39.9533 113.342 39.8 114.115 39.8C114.288 39.8 114.475 39.8133 114.675 39.84C114.888 39.8667 115.068 39.92 115.215 40L114.935 41.46C114.788 41.4067 114.628 41.3667 114.455 41.34C114.282 41.3133 114.035 41.3 113.715 41.3C113.302 41.3 112.882 41.42 112.455 41.66C112.042 41.9 111.695 42.2667 111.415 42.76C111.135 43.24 110.995 43.8533 110.995 44.6V50H109.395ZM119.314 37.16V47.24C119.314 47.7333 119.454 48.1 119.734 48.34C120.014 48.58 120.374 48.7 120.814 48.7C121.2 48.7 121.534 48.6333 121.814 48.5C122.094 48.3667 122.347 48.1867 122.574 47.96L123.134 49.3C122.827 49.58 122.46 49.8 122.034 49.96C121.62 50.12 121.14 50.2 120.594 50.2C120.087 50.2 119.614 50.1133 119.174 49.94C118.734 49.7533 118.38 49.4667 118.114 49.08C117.86 48.68 117.727 48.16 117.714 47.52V37.6L119.314 37.16ZM122.954 40V41.38H115.714V40H122.954ZM126.133 38.08C125.773 38.08 125.479 37.9733 125.253 37.76C125.039 37.5333 124.933 37.24 124.933 36.88C124.933 36.52 125.039 36.2333 125.253 36.02C125.479 35.7933 125.773 35.68 126.133 35.68C126.493 35.68 126.779 35.7933 126.993 36.02C127.219 36.2333 127.333 36.52 127.333 36.88C127.333 37.24 127.219 37.5333 126.993 37.76C126.779 37.9733 126.493 38.08 126.133 38.08ZM126.933 40V50H125.333V40H126.933ZM134.785 39.8C135.478 39.8 136.085 39.9067 136.605 40.12C137.138 40.3333 137.598 40.64 137.985 41.04C138.372 41.44 138.685 41.9133 138.925 42.46L137.405 43.18C137.192 42.54 136.865 42.0533 136.425 41.72C135.998 41.3733 135.438 41.2 134.745 41.2C134.078 41.2 133.505 41.3533 133.025 41.66C132.545 41.9533 132.178 42.3867 131.925 42.96C131.672 43.52 131.545 44.2 131.545 45C131.545 45.7867 131.672 46.4667 131.925 47.04C132.178 47.6133 132.545 48.0533 133.025 48.36C133.505 48.6533 134.078 48.8 134.745 48.8C135.265 48.8 135.712 48.72 136.085 48.56C136.472 48.4 136.785 48.1667 137.025 47.86C137.278 47.5533 137.452 47.18 137.545 46.74L139.025 47.26C138.798 47.8733 138.485 48.4 138.085 48.84C137.698 49.28 137.225 49.62 136.665 49.86C136.118 50.0867 135.492 50.2 134.785 50.2C133.852 50.2 133.018 49.9933 132.285 49.58C131.552 49.1667 130.978 48.5733 130.565 47.8C130.152 47.0133 129.945 46.08 129.945 45C129.945 43.92 130.152 42.9933 130.565 42.22C130.978 41.4333 131.552 40.8333 132.285 40.42C133.018 40.0067 133.852 39.8 134.785 39.8ZM143.357 35.4V47.46C143.357 47.9667 143.45 48.32 143.637 48.52C143.823 48.7067 144.123 48.8 144.537 48.8C144.803 48.8 145.023 48.78 145.197 48.74C145.37 48.7 145.603 48.6267 145.897 48.52L145.637 49.92C145.423 50.0133 145.19 50.08 144.937 50.12C144.683 50.1733 144.423 50.2 144.157 50.2C143.343 50.2 142.737 49.98 142.337 49.54C141.95 49.1 141.757 48.4267 141.757 47.52V35.4H143.357ZM152.13 50.2C151.183 50.2 150.337 49.9933 149.59 49.58C148.857 49.1667 148.283 48.5733 147.87 47.8C147.457 47.0133 147.25 46.08 147.25 45C147.25 43.92 147.457 42.9933 147.87 42.22C148.283 41.4333 148.85 40.8333 149.57 40.42C150.29 40.0067 151.11 39.8 152.03 39.8C152.963 39.8 153.757 40 154.41 40.4C155.077 40.8 155.583 41.3467 155.93 42.04C156.277 42.72 156.45 43.4867 156.45 44.34C156.45 44.5667 156.443 44.7733 156.43 44.96C156.417 45.1467 156.397 45.3133 156.37 45.46H148.29V44.04H155.67L154.85 44.2C154.85 43.24 154.583 42.5 154.05 41.98C153.53 41.46 152.843 41.2 151.99 41.2C151.337 41.2 150.77 41.3533 150.29 41.66C149.823 41.9533 149.457 42.3867 149.19 42.96C148.937 43.52 148.81 44.2 148.81 45C148.81 45.7867 148.943 46.4667 149.21 47.04C149.477 47.6133 149.85 48.0533 150.33 48.36C150.823 48.6533 151.41 48.8 152.09 48.8C152.823 48.8 153.417 48.66 153.87 48.38C154.337 48.1 154.71 47.72 154.99 47.24L156.25 47.98C155.997 48.4333 155.67 48.8267 155.27 49.16C154.883 49.4933 154.423 49.7533 153.89 49.94C153.37 50.1133 152.783 50.2 152.13 50.2Z" fill="white"/>
<path d="M332.16 36.8C333.507 36.8 334.587 37.1467 335.4 37.84C336.213 38.5333 336.62 39.4733 336.62 40.66C336.62 41.8467 336.207 42.7733 335.38 43.44C334.567 44.0933 333.487 44.42 332.14 44.42L332 44.52H328.76V50H327.16V36.8H332.16ZM332.14 43.02C333.087 43.02 333.787 42.8267 334.24 42.44C334.707 42.04 334.94 41.4467 334.94 40.66C334.94 39.8733 334.707 39.2867 334.24 38.9C333.787 38.5 333.087 38.3 332.14 38.3H328.76V43.02H332.14ZM333.06 43.34L337.42 50H335.52L331.72 44.22L333.06 43.34ZM344.009 50.2C343.062 50.2 342.215 49.9933 341.469 49.58C340.735 49.1667 340.162 48.5733 339.749 47.8C339.335 47.0133 339.129 46.08 339.129 45C339.129 43.92 339.335 42.9933 339.749 42.22C340.162 41.4333 340.729 40.8333 341.449 40.42C342.169 40.0067 342.989 39.8 343.909 39.8C344.842 39.8 345.635 40 346.289 40.4C346.955 40.8 347.462 41.3467 347.809 42.04C348.155 42.72 348.329 43.4867 348.329 44.34C348.329 44.5667 348.322 44.7733 348.309 44.96C348.295 45.1467 348.275 45.3133 348.249 45.46H340.169V44.04H347.549L346.729 44.2C346.729 43.24 346.462 42.5 345.929 41.98C345.409 41.46 344.722 41.2 343.869 41.2C343.215 41.2 342.649 41.3533 342.169 41.66C341.702 41.9533 341.335 42.3867 341.069 42.96C340.815 43.52 340.689 44.2 340.689 45C340.689 45.7867 340.822 46.4667 341.089 47.04C341.355 47.6133 341.729 48.0533 342.209 48.36C342.702 48.6533 343.289 48.8 343.969 48.8C344.702 48.8 345.295 48.66 345.749 48.38C346.215 48.1 346.589 47.72 346.869 47.24L348.129 47.98C347.875 48.4333 347.549 48.8267 347.149 49.16C346.762 49.4933 346.302 49.7533 345.769 49.94C345.249 50.1133 344.662 50.2 344.009 50.2ZM352.892 35.4V47.46C352.892 47.9667 352.985 48.32 353.172 48.52C353.358 48.7067 353.658 48.8 354.072 48.8C354.338 48.8 354.558 48.78 354.732 48.74C354.905 48.7 355.138 48.6267 355.432 48.52L355.172 49.92C354.958 50.0133 354.725 50.08 354.472 50.12C354.218 50.1733 353.958 50.2 353.692 50.2C352.878 50.2 352.272 49.98 351.872 49.54C351.485 49.1 351.292 48.4267 351.292 47.52V35.4H352.892ZM363.325 43.54C363.325 42.7933 363.125 42.22 362.725 41.82C362.325 41.4067 361.758 41.2 361.025 41.2C360.332 41.2 359.745 41.3533 359.265 41.66C358.785 41.9533 358.432 42.4333 358.205 43.1L356.905 42.3C357.172 41.5533 357.665 40.9533 358.385 40.5C359.105 40.0333 359.998 39.8 361.065 39.8C361.785 39.8 362.438 39.9267 363.025 40.18C363.612 40.42 364.072 40.7933 364.405 41.3C364.752 41.7933 364.925 42.4333 364.925 43.22V48.06C364.925 48.54 365.178 48.78 365.685 48.78C365.938 48.78 366.185 48.7467 366.425 48.68L366.345 49.94C366.078 50.0733 365.732 50.14 365.305 50.14C364.918 50.14 364.572 50.0667 364.265 49.92C363.958 49.7733 363.718 49.5533 363.545 49.26C363.372 48.9533 363.285 48.5733 363.285 48.12V47.92L363.685 47.98C363.525 48.5 363.252 48.9267 362.865 49.26C362.478 49.58 362.045 49.82 361.565 49.98C361.085 50.1267 360.612 50.2 360.145 50.2C359.558 50.2 359.012 50.1 358.505 49.9C357.998 49.7 357.592 49.4 357.285 49C356.992 48.5867 356.845 48.08 356.845 47.48C356.845 46.7333 357.092 46.12 357.585 45.64C358.092 45.1467 358.792 44.8133 359.685 44.64L363.645 43.86V45.18L360.425 45.84C359.772 45.9733 359.285 46.16 358.965 46.4C358.645 46.64 358.485 46.9733 358.485 47.4C358.485 47.8133 358.645 48.1533 358.965 48.42C359.298 48.6733 359.765 48.8 360.365 48.8C360.752 48.8 361.118 48.7533 361.465 48.66C361.825 48.5533 362.145 48.4 362.425 48.2C362.705 47.9867 362.925 47.7267 363.085 47.42C363.245 47.1 363.325 46.7267 363.325 46.3V43.54ZM370.783 37.16V47.24C370.783 47.7333 370.923 48.1 371.203 48.34C371.483 48.58 371.843 48.7 372.283 48.7C372.669 48.7 373.003 48.6333 373.283 48.5C373.563 48.3667 373.816 48.1867 374.043 47.96L374.603 49.3C374.296 49.58 373.929 49.8 373.503 49.96C373.089 50.12 372.609 50.2 372.063 50.2C371.556 50.2 371.083 50.1133 370.643 49.94C370.203 49.7533 369.849 49.4667 369.583 49.08C369.329 48.68 369.196 48.16 369.183 47.52V37.6L370.783 37.16ZM374.423 40V41.38H367.183V40H374.423ZM377.601 38.08C377.241 38.08 376.948 37.9733 376.721 37.76C376.508 37.5333 376.401 37.24 376.401 36.88C376.401 36.52 376.508 36.2333 376.721 36.02C376.948 35.7933 377.241 35.68 377.601 35.68C377.961 35.68 378.248 35.7933 378.461 36.02C378.688 36.2333 378.801 36.52 378.801 36.88C378.801 37.24 378.688 37.5333 378.461 37.76C378.248 37.9733 377.961 38.08 377.601 38.08ZM378.401 40V50H376.801V40H378.401ZM388.734 40H390.414L386.254 50H384.654L380.494 40H382.314L385.474 48.38L388.734 40ZM396.685 50.2C395.738 50.2 394.891 49.9933 394.145 49.58C393.411 49.1667 392.838 48.5733 392.425 47.8C392.011 47.0133 391.805 46.08 391.805 45C391.805 43.92 392.011 42.9933 392.425 42.22C392.838 41.4333 393.405 40.8333 394.125 40.42C394.845 40.0067 395.665 39.8 396.585 39.8C397.518 39.8 398.311 40 398.965 40.4C399.631 40.8 400.138 41.3467 400.485 42.04C400.831 42.72 401.005 43.4867 401.005 44.34C401.005 44.5667 400.998 44.7733 400.985 44.96C400.971 45.1467 400.951 45.3133 400.925 45.46H392.845V44.04H400.225L399.405 44.2C399.405 43.24 399.138 42.5 398.605 41.98C398.085 41.46 397.398 41.2 396.545 41.2C395.891 41.2 395.325 41.3533 394.845 41.66C394.378 41.9533 394.011 42.3867 393.745 42.96C393.491 43.52 393.365 44.2 393.365 45C393.365 45.7867 393.498 46.4667 393.765 47.04C394.031 47.6133 394.405 48.0533 394.885 48.36C395.378 48.6533 395.965 48.8 396.645 48.8C397.378 48.8 397.971 48.66 398.425 48.38C398.891 48.1 399.265 47.72 399.545 47.24L400.805 47.98C400.551 48.4333 400.225 48.8267 399.825 49.16C399.438 49.4933 398.978 49.7533 398.445 49.94C397.925 50.1133 397.338 50.2 396.685 50.2ZM423.924 36.8V50H422.404V41.7L422.584 38.22H422.564L418.224 50H416.864L412.524 38.22H412.504L412.684 41.7V50H411.164V36.8H413.624L416.524 44.82L417.524 48.12H417.564L418.584 44.84L421.464 36.8H423.924ZM433.657 43.54C433.657 42.7933 433.457 42.22 433.057 41.82C432.657 41.4067 432.09 41.2 431.357 41.2C430.664 41.2 430.077 41.3533 429.597 41.66C429.117 41.9533 428.764 42.4333 428.537 43.1L427.237 42.3C427.504 41.5533 427.997 40.9533 428.717 40.5C429.437 40.0333 430.33 39.8 431.397 39.8C432.117 39.8 432.77 39.9267 433.357 40.18C433.944 40.42 434.404 40.7933 434.737 41.3C435.084 41.7933 435.257 42.4333 435.257 43.22V48.06C435.257 48.54 435.51 48.78 436.017 48.78C436.27 48.78 436.517 48.7467 436.757 48.68L436.677 49.94C436.41 50.0733 436.064 50.14 435.637 50.14C435.25 50.14 434.904 50.0667 434.597 49.92C434.29 49.7733 434.05 49.5533 433.877 49.26C433.704 48.9533 433.617 48.5733 433.617 48.12V47.92L434.017 47.98C433.857 48.5 433.584 48.9267 433.197 49.26C432.81 49.58 432.377 49.82 431.897 49.98C431.417 50.1267 430.944 50.2 430.477 50.2C429.89 50.2 429.344 50.1 428.837 49.9C428.33 49.7 427.924 49.4 427.617 49C427.324 48.5867 427.177 48.08 427.177 47.48C427.177 46.7333 427.424 46.12 427.917 45.64C428.424 45.1467 429.124 44.8133 430.017 44.64L433.977 43.86V45.18L430.757 45.84C430.104 45.9733 429.617 46.16 429.297 46.4C428.977 46.64 428.817 46.9733 428.817 47.4C428.817 47.8133 428.977 48.1533 429.297 48.42C429.63 48.6733 430.097 48.8 430.697 48.8C431.084 48.8 431.45 48.7533 431.797 48.66C432.157 48.5533 432.477 48.4 432.757 48.2C433.037 47.9867 433.257 47.7267 433.417 47.42C433.577 47.1 433.657 46.7267 433.657 46.3V43.54ZM442.745 50.2C441.772 50.2 440.872 49.9933 440.045 49.58C439.232 49.1667 438.605 48.58 438.165 47.82L439.525 46.84C439.818 47.4533 440.245 47.9333 440.805 48.28C441.378 48.6267 442.065 48.8 442.865 48.8C443.572 48.8 444.125 48.6667 444.525 48.4C444.925 48.12 445.125 47.76 445.125 47.32C445.125 47.04 445.032 46.7867 444.845 46.56C444.672 46.32 444.332 46.1467 443.825 46.04L441.425 45.54C440.452 45.34 439.752 45.0067 439.325 44.54C438.912 44.0733 438.705 43.4933 438.705 42.8C438.705 42.2533 438.858 41.7533 439.165 41.3C439.485 40.8467 439.932 40.4867 440.505 40.22C441.092 39.94 441.778 39.8 442.565 39.8C443.552 39.8 444.385 39.9933 445.065 40.38C445.745 40.7667 446.252 41.3133 446.585 42.02L445.245 42.9C445.018 42.3133 444.652 41.8867 444.145 41.62C443.638 41.34 443.112 41.2 442.565 41.2C442.085 41.2 441.672 41.2667 441.325 41.4C440.992 41.5333 440.732 41.72 440.545 41.96C440.372 42.1867 440.285 42.4467 440.285 42.74C440.285 43.0333 440.385 43.3067 440.585 43.56C440.785 43.8 441.158 43.9733 441.705 44.08L444.205 44.6C445.138 44.7867 445.792 45.0933 446.165 45.52C446.538 45.9467 446.725 46.4667 446.725 47.08C446.725 47.7067 446.558 48.26 446.225 48.74C445.892 49.2067 445.425 49.5667 444.825 49.82C444.225 50.0733 443.532 50.2 442.745 50.2ZM453.292 50.2C452.319 50.2 451.419 49.9933 450.592 49.58C449.779 49.1667 449.152 48.58 448.712 47.82L450.072 46.84C450.365 47.4533 450.792 47.9333 451.352 48.28C451.925 48.6267 452.612 48.8 453.412 48.8C454.119 48.8 454.672 48.6667 455.072 48.4C455.472 48.12 455.672 47.76 455.672 47.32C455.672 47.04 455.579 46.7867 455.392 46.56C455.219 46.32 454.879 46.1467 454.372 46.04L451.972 45.54C450.999 45.34 450.299 45.0067 449.872 44.54C449.459 44.0733 449.252 43.4933 449.252 42.8C449.252 42.2533 449.405 41.7533 449.712 41.3C450.032 40.8467 450.479 40.4867 451.052 40.22C451.639 39.94 452.325 39.8 453.112 39.8C454.099 39.8 454.932 39.9933 455.612 40.38C456.292 40.7667 456.799 41.3133 457.132 42.02L455.792 42.9C455.565 42.3133 455.199 41.8867 454.692 41.62C454.185 41.34 453.659 41.2 453.112 41.2C452.632 41.2 452.219 41.2667 451.872 41.4C451.539 41.5333 451.279 41.72 451.092 41.96C450.919 42.1867 450.832 42.4467 450.832 42.74C450.832 43.0333 450.932 43.3067 451.132 43.56C451.332 43.8 451.705 43.9733 452.252 44.08L454.752 44.6C455.685 44.7867 456.339 45.0933 456.712 45.52C457.085 45.9467 457.272 46.4667 457.272 47.08C457.272 47.7067 457.105 48.26 456.772 48.74C456.439 49.2067 455.972 49.5667 455.372 49.82C454.772 50.0733 454.079 50.2 453.292 50.2Z" fill="white"/>
<path d="M593.16 36.8C594.507 36.8 595.587 37.1467 596.4 37.84C597.213 38.5333 597.62 39.4733 597.62 40.66C597.62 41.8467 597.207 42.7733 596.38 43.44C595.567 44.0933 594.487 44.42 593.14 44.42L593 44.52H589.76V50H588.16V36.8H593.16ZM593.14 43.02C594.087 43.02 594.787 42.8267 595.24 42.44C595.707 42.04 595.94 41.4467 595.94 40.66C595.94 39.8733 595.707 39.2867 595.24 38.9C594.787 38.5 594.087 38.3 593.14 38.3H589.76V43.02H593.14ZM594.06 43.34L598.42 50H596.52L592.72 44.22L594.06 43.34ZM605.009 50.2C604.062 50.2 603.215 49.9933 602.469 49.58C601.735 49.1667 601.162 48.5733 600.749 47.8C600.335 47.0133 600.129 46.08 600.129 45C600.129 43.92 600.335 42.9933 600.749 42.22C601.162 41.4333 601.729 40.8333 602.449 40.42C603.169 40.0067 603.989 39.8 604.909 39.8C605.842 39.8 606.635 40 607.289 40.4C607.955 40.8 608.462 41.3467 608.809 42.04C609.155 42.72 609.329 43.4867 609.329 44.34C609.329 44.5667 609.322 44.7733 609.309 44.96C609.295 45.1467 609.275 45.3133 609.249 45.46H601.169V44.04H608.549L607.729 44.2C607.729 43.24 607.462 42.5 606.929 41.98C606.409 41.46 605.722 41.2 604.869 41.2C604.215 41.2 603.649 41.3533 603.169 41.66C602.702 41.9533 602.335 42.3867 602.069 42.96C601.815 43.52 601.689 44.2 601.689 45C601.689 45.7867 601.822 46.4667 602.089 47.04C602.355 47.6133 602.729 48.0533 603.209 48.36C603.702 48.6533 604.289 48.8 604.969 48.8C605.702 48.8 606.295 48.66 606.749 48.38C607.215 48.1 607.589 47.72 607.869 47.24L609.129 47.98C608.875 48.4333 608.549 48.8267 608.149 49.16C607.762 49.4933 607.302 49.7533 606.769 49.94C606.249 50.1133 605.662 50.2 605.009 50.2ZM613.892 35.4V47.46C613.892 47.9667 613.985 48.32 614.172 48.52C614.358 48.7067 614.658 48.8 615.072 48.8C615.338 48.8 615.558 48.78 615.732 48.74C615.905 48.7 616.138 48.6267 616.432 48.52L616.172 49.92C615.958 50.0133 615.725 50.08 615.472 50.12C615.218 50.1733 614.958 50.2 614.692 50.2C613.878 50.2 613.272 49.98 612.872 49.54C612.485 49.1 612.292 48.4267 612.292 47.52V35.4H613.892ZM624.325 43.54C624.325 42.7933 624.125 42.22 623.725 41.82C623.325 41.4067 622.758 41.2 622.025 41.2C621.332 41.2 620.745 41.3533 620.265 41.66C619.785 41.9533 619.432 42.4333 619.205 43.1L617.905 42.3C618.172 41.5533 618.665 40.9533 619.385 40.5C620.105 40.0333 620.998 39.8 622.065 39.8C622.785 39.8 623.438 39.9267 624.025 40.18C624.612 40.42 625.072 40.7933 625.405 41.3C625.752 41.7933 625.925 42.4333 625.925 43.22V48.06C625.925 48.54 626.178 48.78 626.685 48.78C626.938 48.78 627.185 48.7467 627.425 48.68L627.345 49.94C627.078 50.0733 626.732 50.14 626.305 50.14C625.918 50.14 625.572 50.0667 625.265 49.92C624.958 49.7733 624.718 49.5533 624.545 49.26C624.372 48.9533 624.285 48.5733 624.285 48.12V47.92L624.685 47.98C624.525 48.5 624.252 48.9267 623.865 49.26C623.478 49.58 623.045 49.82 622.565 49.98C622.085 50.1267 621.612 50.2 621.145 50.2C620.558 50.2 620.012 50.1 619.505 49.9C618.998 49.7 618.592 49.4 618.285 49C617.992 48.5867 617.845 48.08 617.845 47.48C617.845 46.7333 618.092 46.12 618.585 45.64C619.092 45.1467 619.792 44.8133 620.685 44.64L624.645 43.86V45.18L621.425 45.84C620.772 45.9733 620.285 46.16 619.965 46.4C619.645 46.64 619.485 46.9733 619.485 47.4C619.485 47.8133 619.645 48.1533 619.965 48.42C620.298 48.6733 620.765 48.8 621.365 48.8C621.752 48.8 622.118 48.7533 622.465 48.66C622.825 48.5533 623.145 48.4 623.425 48.2C623.705 47.9867 623.925 47.7267 624.085 47.42C624.245 47.1 624.325 46.7267 624.325 46.3V43.54ZM631.783 37.16V47.24C631.783 47.7333 631.923 48.1 632.203 48.34C632.483 48.58 632.843 48.7 633.283 48.7C633.669 48.7 634.003 48.6333 634.283 48.5C634.563 48.3667 634.816 48.1867 635.043 47.96L635.603 49.3C635.296 49.58 634.929 49.8 634.503 49.96C634.089 50.12 633.609 50.2 633.063 50.2C632.556 50.2 632.083 50.1133 631.643 49.94C631.203 49.7533 630.849 49.4667 630.583 49.08C630.329 48.68 630.196 48.16 630.183 47.52V37.6L631.783 37.16ZM635.423 40V41.38H628.183V40H635.423ZM638.601 38.08C638.241 38.08 637.948 37.9733 637.721 37.76C637.508 37.5333 637.401 37.24 637.401 36.88C637.401 36.52 637.508 36.2333 637.721 36.02C637.948 35.7933 638.241 35.68 638.601 35.68C638.961 35.68 639.248 35.7933 639.461 36.02C639.688 36.2333 639.801 36.52 639.801 36.88C639.801 37.24 639.688 37.5333 639.461 37.76C639.248 37.9733 638.961 38.08 638.601 38.08ZM639.401 40V50H637.801V40H639.401ZM649.734 40H651.414L647.254 50H645.654L641.494 40H643.314L646.474 48.38L649.734 40ZM657.685 50.2C656.738 50.2 655.891 49.9933 655.145 49.58C654.411 49.1667 653.838 48.5733 653.425 47.8C653.011 47.0133 652.805 46.08 652.805 45C652.805 43.92 653.011 42.9933 653.425 42.22C653.838 41.4333 654.405 40.8333 655.125 40.42C655.845 40.0067 656.665 39.8 657.585 39.8C658.518 39.8 659.311 40 659.965 40.4C660.631 40.8 661.138 41.3467 661.485 42.04C661.831 42.72 662.005 43.4867 662.005 44.34C662.005 44.5667 661.998 44.7733 661.985 44.96C661.971 45.1467 661.951 45.3133 661.925 45.46H653.845V44.04H661.225L660.405 44.2C660.405 43.24 660.138 42.5 659.605 41.98C659.085 41.46 658.398 41.2 657.545 41.2C656.891 41.2 656.325 41.3533 655.845 41.66C655.378 41.9533 655.011 42.3867 654.745 42.96C654.491 43.52 654.365 44.2 654.365 45C654.365 45.7867 654.498 46.4667 654.765 47.04C655.031 47.6133 655.405 48.0533 655.885 48.36C656.378 48.6533 656.965 48.8 657.645 48.8C658.378 48.8 658.971 48.66 659.425 48.38C659.891 48.1 660.265 47.72 660.545 47.24L661.805 47.98C661.551 48.4333 661.225 48.8267 660.825 49.16C660.438 49.4933 659.978 49.7533 659.445 49.94C658.925 50.1133 658.338 50.2 657.685 50.2ZM682.804 46.62C682.524 47.3667 682.124 48.0133 681.604 48.56C681.084 49.0933 680.471 49.5 679.764 49.78C679.071 50.06 678.311 50.2 677.484 50.2C676.231 50.2 675.144 49.9267 674.224 49.38C673.317 48.82 672.611 48.0333 672.104 47.02C671.611 46.0067 671.364 44.8 671.364 43.4C671.364 42 671.611 40.7933 672.104 39.78C672.611 38.7667 673.317 37.9867 674.224 37.44C675.144 36.88 676.217 36.6 677.444 36.6C678.297 36.6 679.057 36.72 679.724 36.96C680.391 37.1867 680.957 37.5333 681.424 38C681.904 38.4533 682.284 39.0133 682.564 39.68L680.984 40.42C680.691 39.66 680.264 39.0867 679.704 38.7C679.157 38.3 678.444 38.1 677.564 38.1C676.671 38.1 675.884 38.3133 675.204 38.74C674.524 39.1533 673.991 39.7533 673.604 40.54C673.231 41.3267 673.044 42.28 673.044 43.4C673.044 44.5067 673.224 45.46 673.584 46.26C673.944 47.0467 674.457 47.6533 675.124 48.08C675.791 48.4933 676.577 48.7 677.484 48.7C678.364 48.7 679.131 48.48 679.784 48.04C680.437 47.5867 680.911 46.9133 681.204 46.02L682.804 46.62ZM685.575 50V35.4H687.175V41.5C687.522 40.9 687.982 40.4667 688.555 40.2C689.128 39.9333 689.755 39.8 690.435 39.8C691.155 39.8 691.808 39.94 692.395 40.22C692.982 40.4867 693.448 40.9 693.795 41.46C694.155 42.02 694.335 42.7333 694.335 43.6V50H692.735V44.16C692.735 43.0533 692.495 42.2867 692.015 41.86C691.548 41.42 690.968 41.2 690.275 41.2C689.795 41.2 689.315 41.3133 688.835 41.54C688.355 41.7667 687.955 42.14 687.635 42.66C687.328 43.1667 687.175 43.8467 687.175 44.7V50H685.575ZM703.798 43.54C703.798 42.7933 703.598 42.22 703.198 41.82C702.798 41.4067 702.231 41.2 701.498 41.2C700.804 41.2 700.218 41.3533 699.738 41.66C699.258 41.9533 698.904 42.4333 698.678 43.1L697.378 42.3C697.644 41.5533 698.138 40.9533 698.858 40.5C699.578 40.0333 700.471 39.8 701.538 39.8C702.258 39.8 702.911 39.9267 703.498 40.18C704.084 40.42 704.544 40.7933 704.878 41.3C705.224 41.7933 705.398 42.4333 705.398 43.22V48.06C705.398 48.54 705.651 48.78 706.158 48.78C706.411 48.78 706.658 48.7467 706.898 48.68L706.818 49.94C706.551 50.0733 706.204 50.14 705.778 50.14C705.391 50.14 705.044 50.0667 704.738 49.92C704.431 49.7733 704.191 49.5533 704.018 49.26C703.844 48.9533 703.758 48.5733 703.758 48.12V47.92L704.158 47.98C703.998 48.5 703.724 48.9267 703.338 49.26C702.951 49.58 702.518 49.82 702.038 49.98C701.558 50.1267 701.084 50.2 700.618 50.2C700.031 50.2 699.484 50.1 698.978 49.9C698.471 49.7 698.064 49.4 697.758 49C697.464 48.5867 697.318 48.08 697.318 47.48C697.318 46.7333 697.564 46.12 698.058 45.64C698.564 45.1467 699.264 44.8133 700.158 44.64L704.118 43.86V45.18L700.898 45.84C700.244 45.9733 699.758 46.16 699.438 46.4C699.118 46.64 698.958 46.9733 698.958 47.4C698.958 47.8133 699.118 48.1533 699.438 48.42C699.771 48.6733 700.238 48.8 700.838 48.8C701.224 48.8 701.591 48.7533 701.938 48.66C702.298 48.5533 702.618 48.4 702.898 48.2C703.178 47.9867 703.398 47.7267 703.558 47.42C703.718 47.1 703.798 46.7267 703.798 46.3V43.54ZM709.286 50V40H710.586L710.806 41.64C711.086 41.0267 711.492 40.5667 712.026 40.26C712.572 39.9533 713.232 39.8 714.006 39.8C714.179 39.8 714.366 39.8133 714.566 39.84C714.779 39.8667 714.959 39.92 715.106 40L714.826 41.46C714.679 41.4067 714.519 41.3667 714.346 41.34C714.172 41.3133 713.926 41.3 713.606 41.3C713.192 41.3 712.772 41.42 712.346 41.66C711.932 41.9 711.586 42.2667 711.306 42.76C711.026 43.24 710.886 43.8533 710.886 44.6V50H709.286ZM725.362 38.16L725.722 39.58C725.709 39.58 725.689 39.58 725.662 39.58C725.635 39.58 725.609 39.58 725.582 39.58C724.929 39.58 724.422 39.7133 724.062 39.98C723.715 40.2333 723.542 40.6467 723.542 41.22L722.562 40.72C722.562 40.2 722.682 39.7467 722.922 39.36C723.162 38.9733 723.489 38.68 723.902 38.48C724.315 38.2667 724.769 38.16 725.262 38.16C725.275 38.16 725.289 38.16 725.302 38.16C725.329 38.16 725.349 38.16 725.362 38.16ZM722.322 48.72C723.269 48.72 724.009 48.94 724.542 49.38C725.075 49.8067 725.342 50.38 725.342 51.1C725.342 51.7533 725.122 52.32 724.682 52.8C724.255 53.28 723.675 53.6467 722.942 53.9C722.222 54.1667 721.409 54.3 720.502 54.3C718.929 54.3 717.749 54.0333 716.962 53.5C716.189 52.9667 715.802 52.3267 715.802 51.58C715.802 51.0467 715.975 50.5667 716.322 50.14C716.682 49.7267 717.282 49.4933 718.122 49.44L717.982 49.74C717.529 49.62 717.142 49.42 716.822 49.14C716.515 48.8467 716.362 48.4267 716.362 47.88C716.362 47.3333 716.562 46.8667 716.962 46.48C717.375 46.08 717.982 45.8333 718.782 45.74L719.842 46.28H719.642C718.989 46.3467 718.522 46.5133 718.242 46.78C717.975 47.0333 717.842 47.3133 717.842 47.62C717.842 47.9933 717.975 48.2733 718.242 48.46C718.522 48.6333 718.909 48.72 719.402 48.72H722.322ZM720.482 52.96C721.255 52.96 721.889 52.88 722.382 52.72C722.889 52.56 723.262 52.3533 723.502 52.1C723.742 51.8467 723.862 51.5733 723.862 51.28C723.862 50.92 723.715 50.6333 723.422 50.42C723.142 50.2067 722.629 50.1 721.882 50.1H718.802C718.375 50.1 718.015 50.2067 717.722 50.42C717.429 50.6467 717.282 50.9533 717.282 51.34C717.282 51.8333 717.562 52.2267 718.122 52.52C718.695 52.8133 719.482 52.96 720.482 52.96ZM720.342 39.8C721.142 39.8 721.849 39.9467 722.462 40.24C723.089 40.52 723.575 40.9133 723.922 41.42C724.269 41.9267 724.442 42.5133 724.442 43.18C724.442 43.8333 724.269 44.42 723.922 44.94C723.575 45.4467 723.089 45.8467 722.462 46.14C721.849 46.42 721.142 46.56 720.342 46.56C719.022 46.56 718.009 46.2467 717.302 45.62C716.595 44.98 716.242 44.1667 716.242 43.18C716.242 42.5133 716.415 41.9267 716.762 41.42C717.122 40.9133 717.609 40.52 718.222 40.24C718.835 39.9467 719.542 39.8 720.342 39.8ZM720.342 41.1C719.649 41.1 719.069 41.2933 718.602 41.68C718.135 42.0533 717.902 42.5533 717.902 43.18C717.902 43.7933 718.135 44.2933 718.602 44.68C719.069 45.0667 719.649 45.26 720.342 45.26C721.035 45.26 721.615 45.0667 722.082 44.68C722.549 44.2933 722.782 43.7933 722.782 43.18C722.782 42.5533 722.549 42.0533 722.082 41.68C721.615 41.2933 721.035 41.1 720.342 41.1ZM731.767 50.2C730.82 50.2 729.973 49.9933 729.227 49.58C728.493 49.1667 727.92 48.5733 727.507 47.8C727.093 47.0133 726.887 46.08 726.887 45C726.887 43.92 727.093 42.9933 727.507 42.22C727.92 41.4333 728.487 40.8333 729.207 40.42C729.927 40.0067 730.747 39.8 731.667 39.8C732.6 39.8 733.393 40 734.047 40.4C734.713 40.8 735.22 41.3467 735.567 42.04C735.913 42.72 736.087 43.4867 736.087 44.34C736.087 44.5667 736.08 44.7733 736.067 44.96C736.053 45.1467 736.033 45.3133 736.007 45.46H727.927V44.04H735.307L734.487 44.2C734.487 43.24 734.22 42.5 733.687 41.98C733.167 41.46 732.48 41.2 731.627 41.2C730.973 41.2 730.407 41.3533 729.927 41.66C729.46 41.9533 729.093 42.3867 728.827 42.96C728.573 43.52 728.447 44.2 728.447 45C728.447 45.7867 728.58 46.4667 728.847 47.04C729.113 47.6133 729.487 48.0533 729.967 48.36C730.46 48.6533 731.047 48.8 731.727 48.8C732.46 48.8 733.053 48.66 733.507 48.38C733.973 48.1 734.347 47.72 734.627 47.24L735.887 47.98C735.633 48.4333 735.307 48.8267 734.907 49.16C734.52 49.4933 734.06 49.7533 733.527 49.94C733.007 50.1133 732.42 50.2 731.767 50.2Z" fill="white"/>
<line x1="2" y1="73" x2="781" y2="73" stroke="white" stroke-width="2"/>
<line x1="262" y1="4" x2="262" y2="288" stroke="white" stroke-width="2"/>
<line x1="523" y1="2" x2="523" y2="288" stroke="white" stroke-width="2"/>
<line x1="1" y1="145" x2="781" y2="145" stroke="white" stroke-width="2"/>
<line y1="217" x2="781" y2="217" stroke="white" stroke-width="2"/>
<path d="M94.82 102.8C95.7133 102.8 96.4867 102.967 97.14 103.3C97.8067 103.62 98.3267 104.08 98.7 104.68C99.0733 105.28 99.26 105.993 99.26 106.82C99.26 107.647 99.0733 108.36 98.7 108.96C98.3267 109.56 97.8067 110.027 97.14 110.36C96.4867 110.68 95.7133 110.84 94.82 110.84H91.76V116H90.16V102.8H94.82ZM94.58 109.34C95.62 109.34 96.38 109.127 96.86 108.7C97.34 108.26 97.58 107.633 97.58 106.82C97.58 105.993 97.34 105.367 96.86 104.94C96.38 104.513 95.62 104.3 94.58 104.3H91.76V109.34H94.58ZM102.067 116V106H103.367L103.587 107.64C103.867 107.027 104.274 106.567 104.807 106.26C105.354 105.953 106.014 105.8 106.787 105.8C106.96 105.8 107.147 105.813 107.347 105.84C107.56 105.867 107.74 105.92 107.887 106L107.607 107.46C107.46 107.407 107.3 107.367 107.127 107.34C106.954 107.313 106.707 107.3 106.387 107.3C105.974 107.3 105.554 107.42 105.127 107.66C104.714 107.9 104.367 108.267 104.087 108.76C103.807 109.24 103.667 109.853 103.667 110.6V116H102.067ZM114.059 105.8C115.005 105.8 115.839 106.007 116.559 106.42C117.292 106.833 117.865 107.433 118.279 108.22C118.692 108.993 118.899 109.92 118.899 111C118.899 112.08 118.692 113.013 118.279 113.8C117.865 114.573 117.292 115.167 116.559 115.58C115.839 115.993 115.005 116.2 114.059 116.2C113.125 116.2 112.292 115.993 111.559 115.58C110.825 115.167 110.252 114.573 109.839 113.8C109.425 113.013 109.219 112.08 109.219 111C109.219 109.92 109.425 108.993 109.839 108.22C110.252 107.433 110.825 106.833 111.559 106.42C112.292 106.007 113.125 105.8 114.059 105.8ZM114.059 107.18C113.379 107.18 112.799 107.333 112.319 107.64C111.839 107.947 111.465 108.387 111.199 108.96C110.945 109.52 110.819 110.2 110.819 111C110.819 111.787 110.945 112.467 111.199 113.04C111.465 113.613 111.839 114.053 112.319 114.36C112.799 114.667 113.379 114.82 114.059 114.82C114.739 114.82 115.319 114.667 115.799 114.36C116.279 114.053 116.645 113.613 116.899 113.04C117.165 112.467 117.299 111.787 117.299 111C117.299 110.2 117.165 109.52 116.899 108.96C116.645 108.387 116.279 107.947 115.799 107.64C115.319 107.333 114.739 107.18 114.059 107.18ZM124.095 103.16V113.24C124.095 113.733 124.235 114.1 124.515 114.34C124.795 114.58 125.155 114.7 125.595 114.7C125.982 114.7 126.315 114.633 126.595 114.5C126.875 114.367 127.128 114.187 127.355 113.96L127.915 115.3C127.608 115.58 127.242 115.8 126.815 115.96C126.402 116.12 125.922 116.2 125.375 116.2C124.868 116.2 124.395 116.113 123.955 115.94C123.515 115.753 123.162 115.467 122.895 115.08C122.642 114.68 122.508 114.16 122.495 113.52V103.6L124.095 103.16ZM127.735 106V107.38H120.495V106H127.735ZM134.254 105.8C135.201 105.8 136.034 106.007 136.754 106.42C137.487 106.833 138.061 107.433 138.474 108.22C138.887 108.993 139.094 109.92 139.094 111C139.094 112.08 138.887 113.013 138.474 113.8C138.061 114.573 137.487 115.167 136.754 115.58C136.034 115.993 135.201 116.2 134.254 116.2C133.321 116.2 132.487 115.993 131.754 115.58C131.021 115.167 130.447 114.573 130.034 113.8C129.621 113.013 129.414 112.08 129.414 111C129.414 109.92 129.621 108.993 130.034 108.22C130.447 107.433 131.021 106.833 131.754 106.42C132.487 106.007 133.321 105.8 134.254 105.8ZM134.254 107.18C133.574 107.18 132.994 107.333 132.514 107.64C132.034 107.947 131.661 108.387 131.394 108.96C131.141 109.52 131.014 110.2 131.014 111C131.014 111.787 131.141 112.467 131.394 113.04C131.661 113.613 132.034 114.053 132.514 114.36C132.994 114.667 133.574 114.82 134.254 114.82C134.934 114.82 135.514 114.667 135.994 114.36C136.474 114.053 136.841 113.613 137.094 113.04C137.361 112.467 137.494 111.787 137.494 111C137.494 110.2 137.361 109.52 137.094 108.96C136.841 108.387 136.474 107.947 135.994 107.64C135.514 107.333 134.934 107.18 134.254 107.18ZM142.106 116V106H143.506L143.646 108.24L143.386 108.02C143.599 107.487 143.886 107.06 144.246 106.74C144.606 106.407 145.019 106.167 145.486 106.02C145.966 105.873 146.459 105.8 146.966 105.8C147.686 105.8 148.339 105.94 148.926 106.22C149.513 106.487 149.979 106.9 150.326 107.46C150.686 108.02 150.866 108.733 150.866 109.6V116H149.266V110.16C149.266 109.053 149.026 108.287 148.546 107.86C148.079 107.42 147.499 107.2 146.806 107.2C146.326 107.2 145.846 107.313 145.366 107.54C144.886 107.767 144.486 108.133 144.166 108.64C143.859 109.147 143.706 109.827 143.706 110.68V116H142.106Z" fill="white"/>
<path d="M89.52 174.8V188H87.54L82.02 179.16L80.62 176.68H80.6L80.68 178.68V188H79.16V174.8H81.14L86.64 183.6L88.06 186.14H88.08L88 184.12V174.8H89.52ZM97.5713 188.2C96.6246 188.2 95.7779 187.993 95.0313 187.58C94.2979 187.167 93.7246 186.573 93.3113 185.8C92.8979 185.013 92.6913 184.08 92.6913 183C92.6913 181.92 92.8979 180.993 93.3113 180.22C93.7246 179.433 94.2913 178.833 95.0113 178.42C95.7313 178.007 96.5513 177.8 97.4713 177.8C98.4046 177.8 99.1979 178 99.8513 178.4C100.518 178.8 101.025 179.347 101.371 180.04C101.718 180.72 101.891 181.487 101.891 182.34C101.891 182.567 101.885 182.773 101.871 182.96C101.858 183.147 101.838 183.313 101.811 183.46H93.7313V182.04H101.111L100.291 182.2C100.291 181.24 100.025 180.5 99.4913 179.98C98.9713 179.46 98.2846 179.2 97.4313 179.2C96.7779 179.2 96.2113 179.353 95.7313 179.66C95.2646 179.953 94.8979 180.387 94.6313 180.96C94.3779 181.52 94.2513 182.2 94.2513 183C94.2513 183.787 94.3846 184.467 94.6513 185.04C94.9179 185.613 95.2913 186.053 95.7713 186.36C96.2646 186.653 96.8513 186.8 97.5313 186.8C98.2646 186.8 98.8579 186.66 99.3113 186.38C99.7779 186.1 100.151 185.72 100.431 185.24L101.691 185.98C101.438 186.433 101.111 186.827 100.711 187.16C100.325 187.493 99.8646 187.753 99.3313 187.94C98.8113 188.113 98.2246 188.2 97.5713 188.2ZM108.554 188.2C107.914 188.2 107.308 188.08 106.734 187.84C106.174 187.6 105.714 187.213 105.354 186.68C105.008 186.133 104.834 185.427 104.834 184.56V178H106.434V184.14C106.434 185.153 106.654 185.853 107.094 186.24C107.534 186.613 108.154 186.8 108.954 186.8C109.328 186.8 109.694 186.74 110.054 186.62C110.414 186.487 110.734 186.287 111.014 186.02C111.308 185.74 111.534 185.387 111.694 184.96C111.868 184.533 111.954 184.027 111.954 183.44V178H113.554V188H112.154L112.054 186.48C111.708 187.08 111.234 187.52 110.634 187.8C110.048 188.067 109.354 188.2 108.554 188.2ZM119.638 175.16V185.24C119.638 185.733 119.778 186.1 120.058 186.34C120.338 186.58 120.698 186.7 121.138 186.7C121.525 186.7 121.858 186.633 122.138 186.5C122.418 186.367 122.671 186.187 122.898 185.96L123.458 187.3C123.151 187.58 122.785 187.8 122.358 187.96C121.945 188.12 121.465 188.2 120.918 188.2C120.411 188.2 119.938 188.113 119.498 187.94C119.058 187.753 118.705 187.467 118.438 187.08C118.185 186.68 118.051 186.16 118.038 185.52V175.6L119.638 175.16ZM123.278 178V179.38H116.038V178H123.278ZM125.657 188V178H126.957L127.177 179.64C127.457 179.027 127.864 178.567 128.397 178.26C128.944 177.953 129.604 177.8 130.377 177.8C130.55 177.8 130.737 177.813 130.937 177.84C131.15 177.867 131.33 177.92 131.477 178L131.197 179.46C131.05 179.407 130.89 179.367 130.717 179.34C130.544 179.313 130.297 179.3 129.977 179.3C129.564 179.3 129.144 179.42 128.717 179.66C128.304 179.9 127.957 180.267 127.677 180.76C127.397 181.24 127.257 181.853 127.257 182.6V188H125.657ZM137.648 177.8C138.595 177.8 139.428 178.007 140.148 178.42C140.882 178.833 141.455 179.433 141.868 180.22C142.282 180.993 142.488 181.92 142.488 183C142.488 184.08 142.282 185.013 141.868 185.8C141.455 186.573 140.882 187.167 140.148 187.58C139.428 187.993 138.595 188.2 137.648 188.2C136.715 188.2 135.882 187.993 135.148 187.58C134.415 187.167 133.842 186.573 133.428 185.8C133.015 185.013 132.808 184.08 132.808 183C132.808 181.92 133.015 180.993 133.428 180.22C133.842 179.433 134.415 178.833 135.148 178.42C135.882 178.007 136.715 177.8 137.648 177.8ZM137.648 179.18C136.968 179.18 136.388 179.333 135.908 179.64C135.428 179.947 135.055 180.387 134.788 180.96C134.535 181.52 134.408 182.2 134.408 183C134.408 183.787 134.535 184.467 134.788 185.04C135.055 185.613 135.428 186.053 135.908 186.36C136.388 186.667 136.968 186.82 137.648 186.82C138.328 186.82 138.908 186.667 139.388 186.36C139.868 186.053 140.235 185.613 140.488 185.04C140.755 184.467 140.888 183.787 140.888 183C140.888 182.2 140.755 181.52 140.488 180.96C140.235 180.387 139.868 179.947 139.388 179.64C138.908 179.333 138.328 179.18 137.648 179.18ZM145.501 188V178H146.901L147.041 180.24L146.781 180.02C146.994 179.487 147.281 179.06 147.641 178.74C148.001 178.407 148.414 178.167 148.881 178.02C149.361 177.873 149.854 177.8 150.361 177.8C151.081 177.8 151.734 177.94 152.321 178.22C152.907 178.487 153.374 178.9 153.721 179.46C154.081 180.02 154.261 180.733 154.261 181.6V188H152.661V182.16C152.661 181.053 152.421 180.287 151.941 179.86C151.474 179.42 150.894 179.2 150.201 179.2C149.721 179.2 149.241 179.313 148.761 179.54C148.281 179.767 147.881 180.133 147.561 180.64C147.254 181.147 147.101 181.827 147.101 182.68V188H145.501Z" fill="white"/>
<path d="M77.16 261V247.8H86.42V249.3H78.76V253.56H84.72V255.06H78.76V259.5H86.72V261H77.16ZM91.1339 246.4V258.46C91.1339 258.967 91.2272 259.32 91.4139 259.52C91.6006 259.707 91.9006 259.8 92.3139 259.8C92.5806 259.8 92.8006 259.78 92.9739 259.74C93.1472 259.7 93.3806 259.627 93.6739 259.52L93.4139 260.92C93.2006 261.013 92.9672 261.08 92.7139 261.12C92.4606 261.173 92.2006 261.2 91.9339 261.2C91.1206 261.2 90.5139 260.98 90.1139 260.54C89.7272 260.1 89.5339 259.427 89.5339 258.52V246.4H91.1339ZM99.9072 261.2C98.9605 261.2 98.1139 260.993 97.3672 260.58C96.6339 260.167 96.0605 259.573 95.6472 258.8C95.2339 258.013 95.0272 257.08 95.0272 256C95.0272 254.92 95.2339 253.993 95.6472 253.22C96.0605 252.433 96.6272 251.833 97.3472 251.42C98.0672 251.007 98.8872 250.8 99.8072 250.8C100.741 250.8 101.534 251 102.187 251.4C102.854 251.8 103.361 252.347 103.707 253.04C104.054 253.72 104.227 254.487 104.227 255.34C104.227 255.567 104.221 255.773 104.207 255.96C104.194 256.147 104.174 256.313 104.147 256.46H96.0672V255.04H103.447L102.627 255.2C102.627 254.24 102.361 253.5 101.827 252.98C101.307 252.46 100.621 252.2 99.7672 252.2C99.1139 252.2 98.5472 252.353 98.0672 252.66C97.6005 252.953 97.2339 253.387 96.9672 253.96C96.7139 254.52 96.5872 255.2 96.5872 256C96.5872 256.787 96.7205 257.467 96.9872 258.04C97.2539 258.613 97.6272 259.053 98.1072 259.36C98.6005 259.653 99.1872 259.8 99.8672 259.8C100.601 259.8 101.194 259.66 101.647 259.38C102.114 259.1 102.487 258.72 102.767 258.24L104.027 258.98C103.774 259.433 103.447 259.827 103.047 260.16C102.661 260.493 102.201 260.753 101.667 260.94C101.147 261.113 100.561 261.2 99.9072 261.2ZM111.41 250.8C112.103 250.8 112.71 250.907 113.23 251.12C113.763 251.333 114.223 251.64 114.61 252.04C114.997 252.44 115.31 252.913 115.55 253.46L114.03 254.18C113.817 253.54 113.49 253.053 113.05 252.72C112.623 252.373 112.063 252.2 111.37 252.2C110.703 252.2 110.13 252.353 109.65 252.66C109.17 252.953 108.803 253.387 108.55 253.96C108.297 254.52 108.17 255.2 108.17 256C108.17 256.787 108.297 257.467 108.55 258.04C108.803 258.613 109.17 259.053 109.65 259.36C110.13 259.653 110.703 259.8 111.37 259.8C111.89 259.8 112.337 259.72 112.71 259.56C113.097 259.4 113.41 259.167 113.65 258.86C113.903 258.553 114.077 258.18 114.17 257.74L115.65 258.26C115.423 258.873 115.11 259.4 114.71 259.84C114.323 260.28 113.85 260.62 113.29 260.86C112.743 261.087 112.117 261.2 111.41 261.2C110.477 261.2 109.643 260.993 108.91 260.58C108.177 260.167 107.603 259.573 107.19 258.8C106.777 258.013 106.57 257.08 106.57 256C106.57 254.92 106.777 253.993 107.19 253.22C107.603 252.433 108.177 251.833 108.91 251.42C109.643 251.007 110.477 250.8 111.41 250.8ZM120.822 248.16V258.24C120.822 258.733 120.962 259.1 121.242 259.34C121.522 259.58 121.882 259.7 122.322 259.7C122.708 259.7 123.042 259.633 123.322 259.5C123.602 259.367 123.855 259.187 124.082 258.96L124.642 260.3C124.335 260.58 123.968 260.8 123.542 260.96C123.128 261.12 122.648 261.2 122.102 261.2C121.595 261.2 121.122 261.113 120.682 260.94C120.242 260.753 119.888 260.467 119.622 260.08C119.368 259.68 119.235 259.16 119.222 258.52V248.6L120.822 248.16ZM124.462 251V252.38H117.222V251H124.462ZM126.84 261V251H128.14L128.36 252.64C128.64 252.027 129.047 251.567 129.58 251.26C130.127 250.953 130.787 250.8 131.56 250.8C131.734 250.8 131.92 250.813 132.12 250.84C132.334 250.867 132.514 250.92 132.66 251L132.38 252.46C132.234 252.407 132.074 252.367 131.9 252.34C131.727 252.313 131.48 252.3 131.16 252.3C130.747 252.3 130.327 252.42 129.9 252.66C129.487 252.9 129.14 253.267 128.86 253.76C128.58 254.24 128.44 254.853 128.44 255.6V261H126.84ZM138.832 250.8C139.779 250.8 140.612 251.007 141.332 251.42C142.065 251.833 142.639 252.433 143.052 253.22C143.465 253.993 143.672 254.92 143.672 256C143.672 257.08 143.465 258.013 143.052 258.8C142.639 259.573 142.065 260.167 141.332 260.58C140.612 260.993 139.779 261.2 138.832 261.2C137.899 261.2 137.065 260.993 136.332 260.58C135.599 260.167 135.025 259.573 134.612 258.8C134.199 258.013 133.992 257.08 133.992 256C133.992 254.92 134.199 253.993 134.612 253.22C135.025 252.433 135.599 251.833 136.332 251.42C137.065 251.007 137.899 250.8 138.832 250.8ZM138.832 252.18C138.152 252.18 137.572 252.333 137.092 252.64C136.612 252.947 136.239 253.387 135.972 253.96C135.719 254.52 135.592 255.2 135.592 256C135.592 256.787 135.719 257.467 135.972 258.04C136.239 258.613 136.612 259.053 137.092 259.36C137.572 259.667 138.152 259.82 138.832 259.82C139.512 259.82 140.092 259.667 140.572 259.36C141.052 259.053 141.419 258.613 141.672 258.04C141.939 257.467 142.072 256.787 142.072 256C142.072 255.2 141.939 254.52 141.672 253.96C141.419 253.387 141.052 252.947 140.572 252.64C140.092 252.333 139.512 252.18 138.832 252.18ZM146.684 261V251H148.084L148.224 253.24L147.964 253.02C148.178 252.487 148.464 252.06 148.824 251.74C149.184 251.407 149.598 251.167 150.064 251.02C150.544 250.873 151.038 250.8 151.544 250.8C152.264 250.8 152.918 250.94 153.504 251.22C154.091 251.487 154.558 251.9 154.904 252.46C155.264 253.02 155.444 253.733 155.444 254.6V261H153.844V255.16C153.844 254.053 153.604 253.287 153.124 252.86C152.658 252.42 152.078 252.2 151.384 252.2C150.904 252.2 150.424 252.313 149.944 252.54C149.464 252.767 149.064 253.133 148.744 253.64C148.438 254.147 148.284 254.827 148.284 255.68V261H146.684Z" fill="white"/>
<path d="M382.16 116V106.32C382.16 106.093 382.16 105.853 382.16 105.6C382.173 105.333 382.187 105.06 382.2 104.78C381.747 105.22 381.22 105.607 380.62 105.94C380.02 106.26 379.407 106.493 378.78 106.64L378.36 105.18C378.6 105.153 378.9 105.067 379.26 104.92C379.633 104.76 380.02 104.567 380.42 104.34C380.833 104.1 381.213 103.847 381.56 103.58C381.907 103.313 382.173 103.053 382.36 102.8H383.76V116H382.16Z" fill="white"/>
<path d="M647.8 104.72V114.64H646.3V104.72H647.8ZM651.9 108.92V110.42H642.18V108.92H651.9ZM657.035 116V106.32C657.035 106.093 657.035 105.853 657.035 105.6C657.048 105.333 657.062 105.06 657.075 104.78C656.622 105.22 656.095 105.607 655.495 105.94C654.895 106.26 654.282 106.493 653.655 106.64L653.235 105.18C653.475 105.153 653.775 105.067 654.135 104.92C654.508 104.76 654.895 104.567 655.295 104.34C655.708 104.1 656.088 103.847 656.435 103.58C656.782 103.313 657.048 103.053 657.235 102.8H658.635V116H657.035Z" fill="white"/>
<path d="M382.16 188V178.32C382.16 178.093 382.16 177.853 382.16 177.6C382.173 177.333 382.187 177.06 382.2 176.78C381.747 177.22 381.22 177.607 380.62 177.94C380.02 178.26 379.407 178.493 378.78 178.64L378.36 177.18C378.6 177.153 378.9 177.067 379.26 176.92C379.633 176.76 380.02 176.567 380.42 176.34C380.833 176.1 381.213 175.847 381.56 175.58C381.907 175.313 382.173 175.053 382.36 174.8H383.76V188H382.16Z" fill="white"/>
<path d="M654.22 188.2C652.727 188.2 651.533 187.62 650.64 186.46C649.747 185.3 649.3 183.613 649.3 181.4C649.3 179.187 649.747 177.5 650.64 176.34C651.533 175.18 652.727 174.6 654.22 174.6C655.727 174.6 656.92 175.18 657.8 176.34C658.693 177.5 659.14 179.187 659.14 181.4C659.14 183.613 658.693 185.3 657.8 186.46C656.92 187.62 655.727 188.2 654.22 188.2ZM654.22 186.76C654.927 186.76 655.52 186.56 656 186.16C656.493 185.747 656.86 185.14 657.1 184.34C657.353 183.54 657.48 182.56 657.48 181.4C657.48 180.24 657.353 179.26 657.1 178.46C656.86 177.66 656.493 177.06 656 176.66C655.52 176.247 654.927 176.04 654.22 176.04C653.513 176.04 652.913 176.247 652.42 176.66C651.94 177.06 651.573 177.66 651.32 178.46C651.08 179.26 650.96 180.24 650.96 181.4C650.96 182.56 651.08 183.54 651.32 184.34C651.573 185.14 651.94 185.747 652.42 186.16C652.913 186.56 653.513 186.76 654.22 186.76Z" fill="white"/>
<path d="M358.16 260V250.32C358.16 250.093 358.16 249.853 358.16 249.6C358.173 249.333 358.187 249.06 358.2 248.78C357.747 249.22 357.22 249.607 356.62 249.94C356.02 250.26 355.407 250.493 354.78 250.64L354.36 249.18C354.6 249.153 354.9 249.067 355.26 248.92C355.633 248.76 356.02 248.567 356.42 248.34C356.833 248.1 357.213 247.847 357.56 247.58C357.907 247.313 358.173 247.053 358.36 246.8H359.76V260H358.16ZM369.973 245.4L363.853 261.4H362.353L368.473 245.4H369.973ZM374.683 260V250.32C374.683 250.093 374.683 249.853 374.683 249.6C374.697 249.333 374.71 249.06 374.723 248.78C374.27 249.22 373.743 249.607 373.143 249.94C372.543 250.26 371.93 250.493 371.303 250.64L370.883 249.18C371.123 249.153 371.423 249.067 371.783 248.92C372.157 248.76 372.543 248.567 372.943 248.34C373.357 248.1 373.737 247.847 374.083 247.58C374.43 247.313 374.697 247.053 374.883 246.8H376.283V260H374.683ZM384.476 246.62C385.33 246.62 386.07 246.76 386.696 247.04C387.323 247.32 387.81 247.72 388.156 248.24C388.503 248.747 388.676 249.36 388.676 250.08C388.676 250.76 388.51 251.36 388.176 251.88C387.856 252.387 387.403 252.773 386.816 253.04V253.06C387.563 253.34 388.156 253.767 388.596 254.34C389.05 254.913 389.276 255.613 389.276 256.44C389.276 257.213 389.076 257.88 388.676 258.44C388.276 259 387.716 259.433 386.996 259.74C386.29 260.047 385.45 260.2 384.476 260.2C383.516 260.2 382.676 260.047 381.956 259.74C381.236 259.433 380.676 259 380.276 258.44C379.876 257.88 379.676 257.213 379.676 256.44C379.676 255.627 379.896 254.933 380.336 254.36C380.776 253.773 381.383 253.34 382.156 253.06V253.04C381.583 252.787 381.123 252.407 380.776 251.9C380.443 251.38 380.276 250.773 380.276 250.08C380.276 249.36 380.45 248.747 380.796 248.24C381.143 247.72 381.63 247.32 382.256 247.04C382.896 246.76 383.636 246.62 384.476 246.62ZM384.476 248.12C383.703 248.12 383.083 248.307 382.616 248.68C382.163 249.053 381.936 249.573 381.936 250.24C381.936 250.893 382.17 251.407 382.636 251.78C383.103 252.153 383.716 252.34 384.476 252.34C385.236 252.34 385.85 252.153 386.316 251.78C386.783 251.407 387.016 250.893 387.016 250.24C387.016 249.573 386.79 249.053 386.336 248.68C385.883 248.307 385.263 248.12 384.476 248.12ZM384.476 258.7C385.13 258.7 385.69 258.607 386.156 258.42C386.623 258.22 386.983 257.94 387.236 257.58C387.49 257.207 387.616 256.773 387.616 256.28C387.616 255.773 387.483 255.34 387.216 254.98C386.963 254.607 386.603 254.327 386.136 254.14C385.67 253.94 385.116 253.84 384.476 253.84C383.85 253.84 383.296 253.94 382.816 254.14C382.35 254.327 381.983 254.607 381.716 254.98C381.463 255.34 381.336 255.773 381.336 256.28C381.336 256.773 381.463 257.207 381.716 257.58C381.97 257.94 382.33 258.22 382.796 258.42C383.276 258.607 383.836 258.7 384.476 258.7ZM396.05 260.2C394.877 260.2 393.837 259.927 392.93 259.38C392.037 258.82 391.43 258.053 391.11 257.08L392.71 256.26C392.87 256.753 393.09 257.187 393.37 257.56C393.65 257.92 394.017 258.2 394.47 258.4C394.937 258.6 395.517 258.7 396.21 258.7C396.797 258.7 397.29 258.593 397.69 258.38C398.09 258.167 398.397 257.88 398.61 257.52C398.823 257.147 398.93 256.72 398.93 256.24C398.93 255.76 398.837 255.36 398.65 255.04C398.477 254.72 398.197 254.487 397.81 254.34C397.423 254.18 396.917 254.1 396.29 254.1C396.143 254.1 395.983 254.107 395.81 254.12C395.637 254.12 395.457 254.133 395.27 254.16V252.56C395.39 252.573 395.503 252.58 395.61 252.58C395.73 252.58 395.837 252.58 395.93 252.58C396.903 252.58 397.597 252.393 398.01 252.02C398.423 251.633 398.63 251.033 398.63 250.22C398.63 249.527 398.417 249 397.99 248.64C397.563 248.28 396.957 248.1 396.17 248.1C395.33 248.1 394.69 248.287 394.25 248.66C393.81 249.02 393.463 249.513 393.21 250.14L391.69 249.42C391.903 248.86 392.223 248.367 392.65 247.94C393.077 247.513 393.59 247.18 394.19 246.94C394.803 246.7 395.477 246.58 396.21 246.58C397.13 246.58 397.89 246.74 398.49 247.06C399.09 247.367 399.537 247.78 399.83 248.3C400.137 248.82 400.29 249.393 400.29 250.02C400.29 250.5 400.223 250.933 400.09 251.32C399.957 251.693 399.77 252.02 399.53 252.3C399.303 252.58 399.043 252.807 398.75 252.98C398.457 253.14 398.143 253.247 397.81 253.3V253.34C398.25 253.353 398.637 253.44 398.97 253.6C399.317 253.76 399.61 253.973 399.85 254.24C400.09 254.507 400.27 254.813 400.39 255.16C400.523 255.493 400.59 255.847 400.59 256.22C400.59 256.993 400.397 257.68 400.01 258.28C399.637 258.88 399.11 259.353 398.43 259.7C397.75 260.033 396.957 260.2 396.05 260.2ZM408.37 246.6C409.077 246.6 409.69 246.7 410.21 246.9C410.743 247.087 411.203 247.387 411.59 247.8C411.977 248.2 412.303 248.727 412.57 249.38L411.09 250.08C410.89 249.467 410.563 248.987 410.11 248.64C409.67 248.28 409.057 248.1 408.27 248.1C407.697 248.1 407.19 248.247 406.75 248.54C406.31 248.82 405.937 249.213 405.63 249.72C405.323 250.227 405.09 250.82 404.93 251.5C404.783 252.18 404.71 252.913 404.71 253.7C404.71 253.727 404.71 253.767 404.71 253.82C404.71 253.873 404.71 253.953 404.71 254.06H404.79C404.937 253.487 405.203 253.027 405.59 252.68C405.99 252.32 406.437 252.06 406.93 251.9C407.437 251.727 407.93 251.64 408.41 251.64C409.303 251.64 410.083 251.813 410.75 252.16C411.417 252.507 411.93 253 412.29 253.64C412.663 254.28 412.85 255.04 412.85 255.92C412.85 256.787 412.663 257.547 412.29 258.2C411.917 258.84 411.39 259.333 410.71 259.68C410.043 260.027 409.243 260.2 408.31 260.2C407.203 260.2 406.27 259.907 405.51 259.32C404.75 258.733 404.177 257.933 403.79 256.92C403.403 255.893 403.21 254.72 403.21 253.4C403.21 251.92 403.437 250.68 403.89 249.68C404.343 248.667 404.957 247.9 405.73 247.38C406.517 246.86 407.397 246.6 408.37 246.6ZM408.29 253.18C407.717 253.18 407.21 253.3 406.77 253.54C406.343 253.767 406.01 254.087 405.77 254.5C405.53 254.9 405.41 255.367 405.41 255.9C405.41 256.407 405.537 256.873 405.79 257.3C406.043 257.713 406.383 258.047 406.81 258.3C407.25 258.54 407.743 258.66 408.29 258.66C409.197 258.66 409.903 258.42 410.41 257.94C410.917 257.447 411.17 256.767 411.17 255.9C411.17 255.34 411.057 254.86 410.83 254.46C410.603 254.047 410.277 253.733 409.85 253.52C409.423 253.293 408.903 253.18 408.29 253.18Z" fill="white"/>
<path d="M653.4 253.94V255.6H646.8V253.94H653.4ZM658.535 260V250.32C658.535 250.093 658.535 249.853 658.535 249.6C658.548 249.333 658.562 249.06 658.575 248.78C658.122 249.22 657.595 249.607 656.995 249.94C656.395 250.26 655.782 250.493 655.155 250.64L654.735 249.18C654.975 249.153 655.275 249.067 655.635 248.92C656.008 248.76 656.395 248.567 656.795 248.34C657.208 248.1 657.588 247.847 657.935 247.58C658.282 247.313 658.548 247.053 658.735 246.8H660.135V260H658.535Z" fill="white"/>
</svg>
